<svg width="170" height="157" viewBox="0 0 170 157" fill="none" xmlns="http://www.w3.org/2000/svg">
<rect x="3" y="3" width="163.176" height="150.548" rx="9" fill="url(#paint0_linear_215_245)" stroke="#1A74BE" stroke-width="6"/>
<path d="M132.632 91.5884C132.272 91.4712 131.888 91.4697 131.527 91.5841L111.949 97.7899C110.006 98.4057 110.131 101.42 112.117 101.846L131.267 105.95C131.547 106.01 131.836 106.002 132.114 105.927L149.667 101.191C151.575 100.677 151.64 97.7752 149.756 97.1622L132.632 91.5884Z" fill="url(#paint1_linear_215_245)"/>
<path d="M151.836 100.257C151.836 97.9667 149.75 96.3539 147.74 97.0906L133.407 102.344C132.151 102.805 131.305 104.078 131.305 105.511V133.634L149.878 125.691C151.06 125.186 151.836 123.953 151.836 122.582V100.257Z" fill="url(#paint2_linear_215_245)"/>
<path d="M131.482 105.281C131.492 103.759 130.548 102.421 129.185 102.028L113.707 97.5532C111.738 96.9842 109.806 98.5848 109.806 100.784V123.864C109.806 125.324 110.683 126.615 111.973 127.054L131.302 133.634L131.482 105.281Z" fill="url(#paint3_linear_215_245)"/>
<path d="M146.219 97.0527L131.111 91.6178L132.08 91.4087L150.286 97.2617C149.318 97.0527 149.705 99.143 149.512 98.3069C149.342 97.5757 148.35 97.4707 147.575 97.4707C146.8 97.4707 133.242 102.697 132.661 103.324C132.08 103.951 131.187 132.173 131.305 126.735C131.355 124.436 130.53 103.324 129.756 102.906C128.981 102.488 115.616 98.934 113.873 98.7249C112.479 98.5577 110.71 99.4914 109.999 99.9791C110.129 99.4914 110.542 98.4323 111.162 98.0978C111.781 97.7634 113.486 97.2617 114.261 97.0527L131.886 102.488L146.219 97.0527Z" fill="white" fill-opacity="0.57" style="mix-blend-mode:screen"/>
<path d="M146.219 97.0527L131.111 91.6178L132.08 91.4087L150.286 97.2617C149.318 97.0527 149.705 99.143 149.512 98.3069C149.342 97.5757 148.35 97.4707 147.575 97.4707C146.8 97.4707 133.242 102.697 132.661 103.324C132.08 103.951 131.187 132.173 131.305 126.735C131.355 124.436 130.53 103.324 129.756 102.906C128.981 102.488 115.616 98.934 113.873 98.7249C112.479 98.5577 110.71 99.4914 109.999 99.9791C110.129 99.4914 110.542 98.4323 111.162 98.0978C111.781 97.7634 113.486 97.2617 114.261 97.0527L131.886 102.488L146.219 97.0527Z" fill="#2E89B6" fill-opacity="0.7" style="mix-blend-mode:color-dodge"/>
<path d="M135.954 101.86C136.399 102.043 149.899 125.69 149.899 125.69L146.413 127.154L133.823 102.697C134.687 102.21 135.508 101.678 135.954 101.86Z" fill="#92DCEE" fill-opacity="0.21"/>
<path d="M131.692 117.538C131.692 116.91 139.827 129.755 139.827 129.755L138.567 130.286L131.692 119.628V117.538Z" fill="#92DCEE" fill-opacity="0.21"/>
<path d="M120.846 94.9623L140.602 99.143L141.764 98.7249L125.494 93.4991L120.846 94.9623Z" fill="url(#paint4_linear_215_245)"/>
<path d="M149.705 107.296C149.705 104.453 148.931 99.7701 146.8 97.6798C147.188 97.4701 149.428 96.8323 150.093 97.2624C152.03 98.5159 151.772 99.9798 151.836 101.234C151.901 107.644 152.17 120.992 151.836 122.974C151.448 125.272 149.899 125.69 148.35 126.317L131.305 133.634L131.305 131.126C136.535 128.966 147.42 124.479 149.124 123.81C151.255 122.974 149.705 110.85 149.705 107.296Z" fill="#F8F8F8" fill-opacity="0.18" style="mix-blend-mode:overlay"/>
<path d="M149.705 107.296C149.705 104.453 148.931 99.7701 146.8 97.6798C147.188 97.4701 149.428 96.8323 150.093 97.2624C152.03 98.5159 151.772 99.9798 151.836 101.234C151.901 107.644 152.17 120.992 151.836 122.974C151.448 125.272 149.899 125.69 148.35 126.317L131.305 133.634L131.305 131.126C136.535 128.966 147.42 124.479 149.124 123.81C151.255 122.974 149.705 110.85 149.705 107.296Z" fill="#F8F8F8" fill-opacity="0.18" style="mix-blend-mode:overlay"/>
<path d="M112.129 108.695C112.129 105.853 113.486 101.233 115.616 99.1429C115.229 98.9332 111.632 97.8767 110.968 98.3068C109.031 99.5603 110.063 101.379 109.998 102.633C109.934 109.044 109.664 122.392 109.998 124.373C110.386 126.672 111.936 126.944 113.485 127.572L131.305 133.634L131.304 130.916C126.075 128.756 115.578 126.15 113.873 125.481C111.743 124.645 112.129 112.249 112.129 108.695Z" fill="#F8F8F8" fill-opacity="0.18" style="mix-blend-mode:overlay"/>
<path d="M112.129 108.695C112.129 105.853 113.486 101.233 115.616 99.1429C115.229 98.9332 111.632 97.8767 110.968 98.3068C109.031 99.5603 110.063 101.379 109.998 102.633C109.934 109.044 109.664 122.392 109.998 124.373C110.386 126.672 111.936 126.944 113.485 127.572L131.305 133.634L131.304 130.916C126.075 128.756 115.578 126.15 113.873 125.481C111.743 124.645 112.129 112.249 112.129 108.695Z" fill="#F8F8F8" fill-opacity="0.18" style="mix-blend-mode:overlay"/>
<path d="M40.8509 24.8132C40.4908 24.696 40.1068 24.6945 39.7458 24.8089L20.1678 31.0147C18.2249 31.6305 18.3502 34.6449 20.3363 35.0706L39.4858 39.1746C39.7662 39.2347 40.0554 39.2271 40.3328 39.1523L57.8861 34.4162C59.7944 33.9014 59.8588 31 57.9756 30.387L40.8509 24.8132Z" fill="url(#paint5_linear_215_245)"/>
<path d="M60.055 33.4823C60.055 31.1915 57.9693 29.5787 55.9595 30.3154L41.6266 35.5688C40.3697 36.0295 39.5242 37.3031 39.5242 38.7357V66.8583L58.0976 58.916C59.2791 58.4107 60.055 57.1782 60.055 55.8066V33.4823Z" fill="url(#paint6_linear_215_245)"/>
<path d="M39.7014 38.506C39.7111 36.9836 38.7669 35.6463 37.4043 35.2524L21.9258 30.778C19.9576 30.209 18.025 31.8096 18.025 34.0086V57.0892C18.025 58.5488 18.902 59.8398 20.1918 60.2788L39.5207 66.8583L39.7014 38.506Z" fill="url(#paint7_linear_215_245)"/>
<path d="M54.4381 30.2775L39.3305 24.8426L40.299 24.6335L58.5056 30.4865C57.5371 30.2775 57.9245 32.3678 57.7308 31.5317C57.5614 30.8005 56.5687 30.6955 55.7939 30.6955C55.0192 30.6955 41.4611 35.9214 40.88 36.5485C40.299 37.1756 39.4067 65.3976 39.5242 59.9602C39.5739 57.6609 38.7495 36.5485 37.9747 36.1304C37.2 35.7123 23.8356 32.1588 22.0924 31.9497C20.6978 31.7825 18.9288 32.7162 18.2187 33.2039C18.3478 32.7162 18.761 31.6571 19.3808 31.3226C20.0006 30.9882 21.705 30.4865 22.4798 30.2775L40.1053 35.7123L54.4381 30.2775Z" fill="white" fill-opacity="0.57" style="mix-blend-mode:screen"/>
<path d="M54.4381 30.2775L39.3305 24.8426L40.299 24.6335L58.5056 30.4865C57.5371 30.2775 57.9245 32.3678 57.7308 31.5317C57.5614 30.8005 56.5687 30.6955 55.7939 30.6955C55.0192 30.6955 41.4611 35.9214 40.88 36.5485C40.299 37.1756 39.4067 65.3976 39.5242 59.9602C39.5739 57.6609 38.7495 36.5485 37.9747 36.1304C37.2 35.7123 23.8356 32.1588 22.0924 31.9497C20.6978 31.7825 18.9288 32.7162 18.2187 33.2039C18.3478 32.7162 18.761 31.6571 19.3808 31.3226C20.0006 30.9882 21.705 30.4865 22.4798 30.2775L40.1053 35.7123L54.4381 30.2775Z" fill="#2E89B6" fill-opacity="0.7" style="mix-blend-mode:color-dodge"/>
<path d="M44.1727 35.0852C44.6178 35.268 58.1182 58.9152 58.1182 58.9152L54.6318 60.3784L42.0421 35.9215C42.9063 35.4352 43.7277 34.9025 44.1727 35.0852Z" fill="#92DCEE" fill-opacity="0.21"/>
<path d="M39.9116 50.7625C39.9116 50.1352 48.0465 62.9799 48.0465 62.9799L46.7863 63.5112L39.9116 52.8531V50.7625Z" fill="#92DCEE" fill-opacity="0.21"/>
<path d="M29.0651 28.1871L48.8212 32.3678L49.9833 31.9497L33.7136 26.7239L29.0651 28.1871Z" fill="url(#paint8_linear_215_245)"/>
<path d="M57.9246 40.5208C57.9246 37.6779 57.15 32.9949 55.0195 30.9046C55.4071 30.6949 57.6476 30.0571 58.3122 30.4872C60.249 31.7407 59.9908 33.2046 60.0553 34.4588C60.1199 40.8692 60.3894 54.2172 60.0553 56.1983C59.6677 58.497 58.1185 58.9144 56.569 59.5422L39.5242 66.8583L39.5245 64.3506C44.754 62.1906 55.6391 57.7034 57.3435 57.0345C59.4741 56.1983 57.9246 44.0744 57.9246 40.5208Z" fill="#F8F8F8" fill-opacity="0.18" style="mix-blend-mode:overlay"/>
<path d="M57.9246 40.5208C57.9246 37.6779 57.15 32.9949 55.0195 30.9046C55.4071 30.6949 57.6476 30.0571 58.3122 30.4872C60.249 31.7407 59.9908 33.2046 60.0553 34.4588C60.1199 40.8692 60.3894 54.2172 60.0553 56.1983C59.6677 58.497 58.1185 58.9144 56.569 59.5422L39.5242 66.8583L39.5245 64.3506C44.754 62.1906 55.6391 57.7034 57.3435 57.0345C59.4741 56.1983 57.9246 44.0744 57.9246 40.5208Z" fill="#F8F8F8" fill-opacity="0.18" style="mix-blend-mode:overlay"/>
<path d="M20.3483 41.9202C20.3483 39.0774 21.705 34.458 23.8356 32.3677C23.448 32.158 19.8516 31.1015 19.187 31.5316C17.2502 32.7851 18.2821 34.604 18.2176 35.8582C18.1531 42.2686 17.8836 55.6166 18.2176 57.5977C18.6053 59.8964 20.1547 60.1686 21.7043 60.7964L39.5242 66.8583L39.5235 64.141C34.294 61.981 23.7968 59.3748 22.0924 58.7059C19.9618 57.8698 20.3483 45.4738 20.3483 41.9202Z" fill="#F8F8F8" fill-opacity="0.18" style="mix-blend-mode:overlay"/>
<path d="M20.3483 41.9202C20.3483 39.0774 21.705 34.458 23.8356 32.3677C23.448 32.158 19.8516 31.1015 19.187 31.5316C17.2502 32.7851 18.2821 34.604 18.2176 35.8582C18.1531 42.2686 17.8836 55.6166 18.2176 57.5977C18.6053 59.8964 20.1547 60.1686 21.7043 60.7964L39.5242 66.8583L39.5235 64.141C34.294 61.981 23.7968 59.3748 22.0924 58.7059C19.9618 57.8698 20.3483 45.4738 20.3483 41.9202Z" fill="#F8F8F8" fill-opacity="0.18" style="mix-blend-mode:overlay"/>
<path d="M37.3683 91.5884C37.7284 91.4712 38.1124 91.4697 38.4733 91.5841L58.0514 97.7899C59.9943 98.4057 59.869 101.42 57.8828 101.846L38.7334 105.95C38.453 106.01 38.1637 106.002 37.8864 105.927L20.3331 101.191C18.4248 100.677 18.3604 97.7752 20.2436 97.1622L37.3683 91.5884Z" fill="url(#paint9_linear_215_245)"/>
<path d="M18.1641 100.257C18.1641 97.9667 20.2498 96.3539 22.2597 97.0906L36.5925 102.344C37.8495 102.805 38.695 104.078 38.695 105.511V133.634L20.1216 125.691C18.9401 125.186 18.1641 123.953 18.1641 122.582V100.257Z" fill="url(#paint10_linear_215_245)"/>
<path d="M38.5177 105.281C38.508 103.759 39.4522 102.421 40.8149 102.028L56.2934 97.5532C58.2616 96.9842 60.1942 98.5848 60.1942 100.784V123.864C60.1942 125.324 59.3172 126.615 58.0274 127.054L38.6985 133.634L38.5177 105.281Z" fill="url(#paint11_linear_215_245)"/>
<path d="M23.7811 97.0527L38.8886 91.6178L37.9202 91.4087L19.7136 97.2617C20.6821 97.0527 20.2947 99.143 20.4884 98.3069C20.6577 97.5757 21.6505 97.4707 22.4252 97.4707C23.2 97.4707 36.7581 102.697 37.3391 103.324C37.9202 103.951 38.8125 132.173 38.695 126.735C38.6452 124.436 39.4697 103.324 40.2444 102.906C41.0192 102.488 54.3836 98.934 56.1268 98.7249C57.5213 98.5577 59.2903 99.4914 60.0005 99.9791C59.8714 99.4914 59.4582 98.4323 58.8384 98.0978C58.2186 97.7634 56.5142 97.2617 55.7394 97.0527L38.1139 102.488L23.7811 97.0527Z" fill="white" fill-opacity="0.57" style="mix-blend-mode:screen"/>
<path d="M23.7811 97.0527L38.8886 91.6178L37.9202 91.4087L19.7136 97.2617C20.6821 97.0527 20.2947 99.143 20.4884 98.3069C20.6577 97.5757 21.6505 97.4707 22.4252 97.4707C23.2 97.4707 36.7581 102.697 37.3391 103.324C37.9202 103.951 38.8125 132.173 38.695 126.735C38.6452 124.436 39.4697 103.324 40.2444 102.906C41.0192 102.488 54.3836 98.934 56.1268 98.7249C57.5213 98.5577 59.2903 99.4914 60.0005 99.9791C59.8714 99.4914 59.4582 98.4323 58.8384 98.0978C58.2186 97.7634 56.5142 97.2617 55.7394 97.0527L38.1139 102.488L23.7811 97.0527Z" fill="#2E89B6" fill-opacity="0.7" style="mix-blend-mode:color-dodge"/>
<path d="M34.0465 101.86C33.6014 102.043 20.101 125.69 20.101 125.69L23.5874 127.154L36.177 102.697C35.3129 102.21 34.4915 101.678 34.0465 101.86Z" fill="#92DCEE" fill-opacity="0.21"/>
<path d="M38.3076 117.538C38.3076 116.91 30.1727 129.755 30.1727 129.755L31.4329 130.286L38.3076 119.628V117.538Z" fill="#92DCEE" fill-opacity="0.21"/>
<path d="M49.154 94.9623L29.398 99.143L28.2359 98.7249L44.5056 93.4991L49.154 94.9623Z" fill="url(#paint12_linear_215_245)"/>
<path d="M20.2946 107.296C20.2946 104.453 21.0691 99.7701 23.1997 97.6798C22.8121 97.4701 20.5716 96.8323 19.907 97.2624C17.9701 98.5159 18.2284 99.9798 18.1639 101.234C18.0993 107.644 17.8298 120.992 18.1639 122.974C18.5515 125.272 20.1006 125.69 21.6502 126.317L38.695 133.634L38.6947 131.126C33.4652 128.966 22.5801 124.479 20.8757 123.81C18.7451 122.974 20.2946 110.85 20.2946 107.296Z" fill="#F8F8F8" fill-opacity="0.18" style="mix-blend-mode:overlay"/>
<path d="M20.2946 107.296C20.2946 104.453 21.0691 99.7701 23.1997 97.6798C22.8121 97.4701 20.5716 96.8323 19.907 97.2624C17.9701 98.5159 18.2284 99.9798 18.1639 101.234C18.0993 107.644 17.8298 120.992 18.1639 122.974C18.5515 125.272 20.1006 125.69 21.6502 126.317L38.695 133.634L38.6947 131.126C33.4652 128.966 22.5801 124.479 20.8757 123.81C18.7451 122.974 20.2946 110.85 20.2946 107.296Z" fill="#F8F8F8" fill-opacity="0.18" style="mix-blend-mode:overlay"/>
<path d="M57.8708 108.695C57.8708 105.853 56.5142 101.233 54.3836 99.1429C54.7712 98.9332 58.3676 97.8767 59.0321 98.3068C60.969 99.5603 59.9371 101.379 60.0015 102.633C60.0661 109.044 60.3356 122.392 60.0015 124.373C59.6139 126.672 58.0644 126.944 56.5149 127.572L38.695 133.634L38.6957 130.916C43.9252 128.756 54.4223 126.15 56.1268 125.481C58.2573 124.645 57.8708 112.249 57.8708 108.695Z" fill="#F8F8F8" fill-opacity="0.18" style="mix-blend-mode:overlay"/>
<path d="M57.8708 108.695C57.8708 105.853 56.5142 101.233 54.3836 99.1429C54.7712 98.9332 58.3676 97.8767 59.0321 98.3068C60.969 99.5603 59.9371 101.379 60.0015 102.633C60.0661 109.044 60.3356 122.392 60.0015 124.373C59.6139 126.672 58.0644 126.944 56.5149 127.572L38.695 133.634L38.6957 130.916C43.9252 128.756 54.4223 126.15 56.1268 125.481C58.2573 124.645 57.8708 112.249 57.8708 108.695Z" fill="#F8F8F8" fill-opacity="0.18" style="mix-blend-mode:overlay"/>
<path d="M129.149 24.8132C129.509 24.696 129.893 24.6945 130.254 24.8089L149.832 31.0147C151.775 31.6305 151.65 34.6449 149.664 35.0706L130.514 39.1746C130.234 39.2347 129.945 39.2271 129.667 39.1523L112.114 34.4162C110.206 33.9014 110.141 31 112.024 30.387L129.149 24.8132Z" fill="url(#paint13_linear_215_245)"/>
<path d="M109.945 33.4823C109.945 31.1915 112.031 29.5787 114.041 30.3154L128.373 35.5688C129.63 36.0295 130.476 37.3031 130.476 38.7357V66.8583L111.902 58.916C110.721 58.4107 109.945 57.1782 109.945 55.8066V33.4823Z" fill="url(#paint14_linear_215_245)"/>
<path d="M130.299 38.506C130.289 36.9836 131.233 35.6463 132.596 35.2524L148.074 30.778C150.042 30.209 151.975 31.8096 151.975 34.0086V57.0892C151.975 58.5488 151.098 59.8398 149.808 60.2788L130.479 66.8583L130.299 38.506Z" fill="url(#paint15_linear_215_245)"/>
<path d="M115.562 30.2775L130.669 24.8426L129.701 24.6335L111.494 30.4865C112.463 30.2775 112.076 32.3678 112.269 31.5317C112.439 30.8005 113.431 30.6955 114.206 30.6955C114.981 30.6955 128.539 35.9214 129.12 36.5485C129.701 37.1756 130.593 65.3976 130.476 59.9602C130.426 57.6609 131.251 36.5485 132.025 36.1304C132.8 35.7123 146.164 32.1588 147.908 31.9497C149.302 31.7825 151.071 32.7162 151.781 33.2039C151.652 32.7162 151.239 31.6571 150.619 31.3226C149.999 30.9882 148.295 30.4865 147.52 30.2775L129.895 35.7123L115.562 30.2775Z" fill="white" fill-opacity="0.57" style="mix-blend-mode:screen"/>
<path d="M115.562 30.2775L130.669 24.8426L129.701 24.6335L111.494 30.4865C112.463 30.2775 112.076 32.3678 112.269 31.5317C112.439 30.8005 113.431 30.6955 114.206 30.6955C114.981 30.6955 128.539 35.9214 129.12 36.5485C129.701 37.1756 130.593 65.3976 130.476 59.9602C130.426 57.6609 131.251 36.5485 132.025 36.1304C132.8 35.7123 146.164 32.1588 147.908 31.9497C149.302 31.7825 151.071 32.7162 151.781 33.2039C151.652 32.7162 151.239 31.6571 150.619 31.3226C149.999 30.9882 148.295 30.4865 147.52 30.2775L129.895 35.7123L115.562 30.2775Z" fill="#2E89B6" fill-opacity="0.7" style="mix-blend-mode:color-dodge"/>
<path d="M125.827 35.0852C125.382 35.268 111.882 58.9152 111.882 58.9152L115.368 60.3784L127.958 35.9215C127.094 35.4352 126.272 34.9025 125.827 35.0852Z" fill="#92DCEE" fill-opacity="0.21"/>
<path d="M130.088 50.7625C130.088 50.1352 121.954 62.9799 121.954 62.9799L123.214 63.5112L130.088 52.8531V50.7625Z" fill="#92DCEE" fill-opacity="0.21"/>
<path d="M140.935 28.1871L121.179 32.3678L120.017 31.9497L136.286 26.7239L140.935 28.1871Z" fill="url(#paint16_linear_215_245)"/>
<path d="M112.075 40.5208C112.075 37.6779 112.85 32.9949 114.981 30.9046C114.593 30.6949 112.352 30.0571 111.688 30.4872C109.751 31.7407 110.009 33.2046 109.945 34.4588C109.88 40.8692 109.611 54.2172 109.945 56.1983C110.332 58.497 111.881 58.9144 113.431 59.5422L130.476 66.8583L130.476 64.3506C125.246 62.1906 114.361 57.7034 112.656 57.0345C110.526 56.1983 112.075 44.0744 112.075 40.5208Z" fill="#F8F8F8" fill-opacity="0.18" style="mix-blend-mode:overlay"/>
<path d="M112.075 40.5208C112.075 37.6779 112.85 32.9949 114.981 30.9046C114.593 30.6949 112.352 30.0571 111.688 30.4872C109.751 31.7407 110.009 33.2046 109.945 34.4588C109.88 40.8692 109.611 54.2172 109.945 56.1983C110.332 58.497 111.881 58.9144 113.431 59.5422L130.476 66.8583L130.476 64.3506C125.246 62.1906 114.361 57.7034 112.656 57.0345C110.526 56.1983 112.075 44.0744 112.075 40.5208Z" fill="#F8F8F8" fill-opacity="0.18" style="mix-blend-mode:overlay"/>
<path d="M149.652 41.9202C149.652 39.0774 148.295 34.458 146.164 32.3677C146.552 32.158 150.148 31.1015 150.813 31.5316C152.75 32.7851 151.718 34.604 151.782 35.8582C151.847 42.2686 152.116 55.6166 151.782 57.5977C151.395 59.8964 149.845 60.1686 148.296 60.7964L130.476 66.8583L130.477 64.141C135.706 61.981 146.203 59.3748 147.908 58.7059C150.038 57.8698 149.652 45.4738 149.652 41.9202Z" fill="#F8F8F8" fill-opacity="0.18" style="mix-blend-mode:overlay"/>
<path d="M149.652 41.9202C149.652 39.0774 148.295 34.458 146.164 32.3677C146.552 32.158 150.148 31.1015 150.813 31.5316C152.75 32.7851 151.718 34.604 151.782 35.8582C151.847 42.2686 152.116 55.6166 151.782 57.5977C151.395 59.8964 149.845 60.1686 148.296 60.7964L130.476 66.8583L130.477 64.141C135.706 61.981 146.203 59.3748 147.908 58.7059C150.038 57.8698 149.652 45.4738 149.652 41.9202Z" fill="#F8F8F8" fill-opacity="0.18" style="mix-blend-mode:overlay"/>
<defs>
<linearGradient id="paint0_linear_215_245" x1="86.6547" y1="156.548" x2="81.8375" y2="0.0210431" gradientUnits="userSpaceOnUse">
<stop stop-color="#78C0FF"/>
<stop offset="1" stop-color="#DFF0FF"/>
</linearGradient>
<linearGradient id="paint1_linear_215_245" x1="152" y1="79.1335" x2="18" y2="79.1335" gradientUnits="userSpaceOnUse">
<stop stop-color="#DEF5FF"/>
<stop offset="1" stop-color="#3CB8EE"/>
</linearGradient>
<linearGradient id="paint2_linear_215_245" x1="85" y1="24.6335" x2="85" y2="133.634" gradientUnits="userSpaceOnUse">
<stop stop-color="#70E0FF"/>
<stop offset="1" stop-color="#02A5D2"/>
</linearGradient>
<linearGradient id="paint3_linear_215_245" x1="85" y1="24.6335" x2="85" y2="133.634" gradientUnits="userSpaceOnUse">
<stop stop-color="#2D96C5"/>
<stop offset="1" stop-color="#1D7EAA"/>
</linearGradient>
<linearGradient id="paint4_linear_215_245" x1="85" y1="24.6335" x2="85" y2="133.634" gradientUnits="userSpaceOnUse">
<stop stop-color="#F6F6F6"/>
<stop offset="1" stop-color="#3AC7FF"/>
</linearGradient>
<linearGradient id="paint5_linear_215_245" x1="152" y1="79.1335" x2="18" y2="79.1335" gradientUnits="userSpaceOnUse">
<stop stop-color="#DEF5FF"/>
<stop offset="1" stop-color="#3CB8EE"/>
</linearGradient>
<linearGradient id="paint6_linear_215_245" x1="85" y1="24.6335" x2="85" y2="133.634" gradientUnits="userSpaceOnUse">
<stop stop-color="#70E0FF"/>
<stop offset="1" stop-color="#02A5D2"/>
</linearGradient>
<linearGradient id="paint7_linear_215_245" x1="85" y1="24.6335" x2="85" y2="133.634" gradientUnits="userSpaceOnUse">
<stop stop-color="#2D96C5"/>
<stop offset="1" stop-color="#1D7EAA"/>
</linearGradient>
<linearGradient id="paint8_linear_215_245" x1="85" y1="24.6335" x2="85" y2="133.634" gradientUnits="userSpaceOnUse">
<stop stop-color="#F6F6F6"/>
<stop offset="1" stop-color="#3AC7FF"/>
</linearGradient>
<linearGradient id="paint9_linear_215_245" x1="18" y1="79.1335" x2="152" y2="79.1335" gradientUnits="userSpaceOnUse">
<stop stop-color="#DEF5FF"/>
<stop offset="1" stop-color="#3CB8EE"/>
</linearGradient>
<linearGradient id="paint10_linear_215_245" x1="85" y1="24.6335" x2="85" y2="133.634" gradientUnits="userSpaceOnUse">
<stop stop-color="#70E0FF"/>
<stop offset="1" stop-color="#02A5D2"/>
</linearGradient>
<linearGradient id="paint11_linear_215_245" x1="85" y1="24.6335" x2="85" y2="133.634" gradientUnits="userSpaceOnUse">
<stop stop-color="#2D96C5"/>
<stop offset="1" stop-color="#1D7EAA"/>
</linearGradient>
<linearGradient id="paint12_linear_215_245" x1="85" y1="24.6335" x2="85" y2="133.634" gradientUnits="userSpaceOnUse">
<stop stop-color="#F6F6F6"/>
<stop offset="1" stop-color="#3AC7FF"/>
</linearGradient>
<linearGradient id="paint13_linear_215_245" x1="18" y1="79.1335" x2="152" y2="79.1335" gradientUnits="userSpaceOnUse">
<stop stop-color="#DEF5FF"/>
<stop offset="1" stop-color="#3CB8EE"/>
</linearGradient>
<linearGradient id="paint14_linear_215_245" x1="85" y1="24.6335" x2="85" y2="133.634" gradientUnits="userSpaceOnUse">
<stop stop-color="#70E0FF"/>
<stop offset="1" stop-color="#02A5D2"/>
</linearGradient>
<linearGradient id="paint15_linear_215_245" x1="85" y1="24.6335" x2="85" y2="133.634" gradientUnits="userSpaceOnUse">
<stop stop-color="#2D96C5"/>
<stop offset="1" stop-color="#1D7EAA"/>
</linearGradient>
<linearGradient id="paint16_linear_215_245" x1="85" y1="24.6335" x2="85" y2="133.634" gradientUnits="userSpaceOnUse">
<stop stop-color="#F6F6F6"/>
<stop offset="1" stop-color="#3AC7FF"/>
</linearGradient>
</defs>
</svg>
