<svg width="170" height="157" viewBox="0 0 170 157" fill="none" xmlns="http://www.w3.org/2000/svg">
<rect x="3" y="3" width="163.176" height="150.548" rx="9" fill="url(#paint0_linear_215_264)" stroke="#1A74BE" stroke-width="6"/>
<path d="M43.3681 17.3362C43.6776 17.2355 44.0075 17.2342 44.3176 17.3325L61.1384 22.6636C62.8077 23.1927 62.7001 25.7822 60.9936 26.1479L44.541 29.6735C44.3001 29.7251 44.0516 29.7185 43.8133 29.6542L28.732 25.5857C27.0925 25.1434 27.0371 22.651 28.6551 22.1244L43.3681 17.3362Z" fill="url(#paint1_linear_215_264)"/>
<path d="M26.8686 24.7834C26.8686 22.8155 28.6605 21.43 30.3873 22.0629L42.7017 26.5759C43.7816 26.9717 44.508 28.0657 44.508 29.2964V53.4553L28.5503 46.6323C27.5352 46.1983 26.8686 45.1395 26.8686 43.9612V24.7834Z" fill="url(#paint2_linear_215_264)"/>
<path d="M44.3557 29.0991C44.3474 27.7913 45.1586 26.6424 46.3293 26.304L59.628 22.4603C61.319 21.9715 62.9795 23.3465 62.9795 25.2356V45.063C62.9795 46.3169 62.226 47.4259 61.1178 47.8031L44.511 53.4553L44.3557 29.0991Z" fill="url(#paint3_linear_215_264)"/>
<path d="M31.6944 22.0303L44.6744 17.3615L43.8423 17.1819L28.1998 22.2099C29.0319 22.0303 28.6991 23.826 28.8655 23.1077C29.011 22.4796 29.8639 22.3894 30.5296 22.3894C31.1952 22.3894 42.8439 26.8787 43.3431 27.4174C43.8423 27.9562 44.609 52.2004 44.508 47.5294C44.4653 45.5541 45.1736 27.4174 45.8393 27.0583C46.5049 26.6992 57.9872 23.6464 59.4849 23.4669C60.683 23.3232 62.2029 24.1253 62.8131 24.5443C62.7021 24.1253 62.3471 23.2155 61.8146 22.9282C61.2821 22.6408 59.8177 22.2099 59.152 22.0303L44.0088 26.6992L31.6944 22.0303Z" fill="white" fill-opacity="0.57" style="mix-blend-mode:screen"/>
<path d="M31.6944 22.0303L44.6744 17.3615L43.8423 17.1819L28.1998 22.2099C29.0319 22.0303 28.6991 23.826 28.8655 23.1077C29.011 22.4796 29.8639 22.3894 30.5296 22.3894C31.1952 22.3894 42.8439 26.8787 43.3431 27.4174C43.8423 27.9562 44.609 52.2004 44.508 47.5294C44.4653 45.5541 45.1736 27.4174 45.8393 27.0583C46.5049 26.6992 57.9872 23.6464 59.4849 23.4669C60.683 23.3232 62.2029 24.1253 62.8131 24.5443C62.7021 24.1253 62.3471 23.2155 61.8146 22.9282C61.2821 22.6408 59.8177 22.2099 59.152 22.0303L44.0088 26.6992L31.6944 22.0303Z" fill="#2E89B6" fill-opacity="0.7" style="mix-blend-mode:color-dodge"/>
<path d="M40.5142 26.1604C40.1318 26.3174 28.5327 46.6316 28.5327 46.6316L31.528 47.8886L42.3447 26.8788C41.6022 26.4611 40.8965 26.0035 40.5142 26.1604Z" fill="#92DCEE" fill-opacity="0.21"/>
<path d="M44.1752 39.6281C44.1752 39.0892 37.186 50.1234 37.186 50.1234L38.2686 50.5799L44.1752 41.424V39.6281Z" fill="#92DCEE" fill-opacity="0.21"/>
<path d="M53.4941 20.2346L36.5203 23.826L35.5219 23.4669L49.5003 18.9776L53.4941 20.2346Z" fill="url(#paint4_linear_215_264)"/>
<path d="M28.699 30.8299C28.699 28.3877 29.3644 24.3647 31.195 22.569C30.862 22.3889 28.937 21.841 28.366 22.2105C26.7019 23.2873 26.9237 24.5449 26.8683 25.6223C26.8129 31.1292 26.5813 42.5958 26.8683 44.2977C27.2014 46.2724 28.5323 46.631 29.8637 47.1703L44.508 53.4553L44.5078 51.301C40.0148 49.4454 30.6626 45.5906 29.1982 45.016C27.3677 44.2977 28.699 33.8826 28.699 30.8299Z" fill="#F8F8F8" fill-opacity="0.18" style="mix-blend-mode:overlay"/>
<path d="M28.699 30.8299C28.699 28.3877 29.3644 24.3647 31.195 22.569C30.862 22.3889 28.937 21.841 28.366 22.2105C26.7019 23.2873 26.9237 24.5449 26.8683 25.6223C26.8129 31.1292 26.5813 42.5958 26.8683 44.2977C27.2014 46.2724 28.5323 46.631 29.8637 47.1703L44.508 53.4553L44.5078 51.301C40.0148 49.4454 30.6626 45.5906 29.1982 45.016C27.3677 44.2977 28.699 33.8826 28.699 30.8299Z" fill="#F8F8F8" fill-opacity="0.18" style="mix-blend-mode:overlay"/>
<path d="M60.9833 32.0321C60.9833 29.5899 59.8177 25.6216 57.9872 23.8259C58.3202 23.6458 61.4101 22.7382 61.9811 23.1076C63.6452 24.1845 62.7585 25.7471 62.8139 26.8245C62.8694 32.3314 63.1009 43.798 62.8139 45.4999C62.4809 47.4746 61.1496 47.7084 59.8183 48.2478L44.508 53.4553L44.5086 51.1209C49.0016 49.2653 58.0205 47.0265 59.4849 46.4519C61.3154 45.7336 60.9833 35.0848 60.9833 32.0321Z" fill="#F8F8F8" fill-opacity="0.18" style="mix-blend-mode:overlay"/>
<path d="M60.9833 32.0321C60.9833 29.5899 59.8177 25.6216 57.9872 23.8259C58.3202 23.6458 61.4101 22.7382 61.9811 23.1076C63.6452 24.1845 62.7585 25.7471 62.8139 26.8245C62.8694 32.3314 63.1009 43.798 62.8139 45.4999C62.4809 47.4746 61.1496 47.7084 59.8183 48.2478L44.508 53.4553L44.5086 51.1209C49.0016 49.2653 58.0205 47.0265 59.4849 46.4519C61.3154 45.7336 60.9833 35.0848 60.9833 32.0321Z" fill="#F8F8F8" fill-opacity="0.18" style="mix-blend-mode:overlay"/>
<path d="M43.3681 61.2461C43.6776 61.1454 44.0075 61.1441 44.3176 61.2424L61.1384 66.5735C62.8077 67.1026 62.7001 69.6921 60.9936 70.0578L44.541 73.5834C44.3001 73.635 44.0516 73.6284 43.8133 73.5642L28.732 69.4956C27.0925 69.0533 27.0371 66.5609 28.6551 66.0343L43.3681 61.2461Z" fill="url(#paint5_linear_215_264)"/>
<path d="M26.8686 68.6933C26.8686 66.7254 28.6605 65.3399 30.3873 65.9728L42.7017 70.4858C43.7816 70.8816 44.508 71.9756 44.508 73.2063V97.3652L28.5503 90.5423C27.5352 90.1082 26.8686 89.0494 26.8686 87.8711V68.6933Z" fill="url(#paint6_linear_215_264)"/>
<path d="M44.3557 73.009C44.3474 71.7012 45.1586 70.5523 46.3293 70.2139L59.628 66.3702C61.319 65.8814 62.9795 67.2564 62.9795 69.1455V88.9729C62.9795 90.2268 62.226 91.3358 61.1178 91.713L44.511 97.3652L44.3557 73.009Z" fill="url(#paint7_linear_215_264)"/>
<path d="M31.6944 65.9402L44.6744 61.2714L43.8423 61.0918L28.1998 66.1198C29.0319 65.9402 28.6991 67.7359 28.8655 67.0176C29.011 66.3895 29.8639 66.2994 30.5296 66.2994C31.1952 66.2994 42.8439 70.7886 43.3431 71.3274C43.8423 71.8661 44.609 96.1104 44.508 91.4393C44.4653 89.464 45.1736 71.3274 45.8393 70.9682C46.5049 70.6091 57.9872 67.5564 59.4849 67.3768C60.683 67.2331 62.2029 68.0352 62.8131 68.4542C62.7021 68.0352 62.3471 67.1254 61.8146 66.8381C61.2821 66.5508 59.8177 66.1198 59.152 65.9402L44.0088 70.6091L31.6944 65.9402Z" fill="white" fill-opacity="0.57" style="mix-blend-mode:screen"/>
<path d="M31.6944 65.9402L44.6744 61.2714L43.8423 61.0918L28.1998 66.1198C29.0319 65.9402 28.6991 67.7359 28.8655 67.0176C29.011 66.3895 29.8639 66.2994 30.5296 66.2994C31.1952 66.2994 42.8439 70.7886 43.3431 71.3274C43.8423 71.8661 44.609 96.1104 44.508 91.4393C44.4653 89.464 45.1736 71.3274 45.8393 70.9682C46.5049 70.6091 57.9872 67.5564 59.4849 67.3768C60.683 67.2331 62.2029 68.0352 62.8131 68.4542C62.7021 68.0352 62.3471 67.1254 61.8146 66.8381C61.2821 66.5508 59.8177 66.1198 59.152 65.9402L44.0088 70.6091L31.6944 65.9402Z" fill="#2E89B6" fill-opacity="0.7" style="mix-blend-mode:color-dodge"/>
<path d="M40.5142 70.0704C40.1318 70.2273 28.5327 90.5415 28.5327 90.5415L31.528 91.7985L42.3447 70.7887C41.6022 70.371 40.8965 69.9134 40.5142 70.0704Z" fill="#92DCEE" fill-opacity="0.21"/>
<path d="M44.1752 83.538C44.1752 82.9991 37.186 94.0334 37.186 94.0334L38.2686 94.4898L44.1752 85.3339V83.538Z" fill="#92DCEE" fill-opacity="0.21"/>
<path d="M53.4941 64.1445L36.5203 67.7359L35.5219 67.3768L49.5003 62.8875L53.4941 64.1445Z" fill="url(#paint8_linear_215_264)"/>
<path d="M28.699 74.7398C28.699 72.2976 29.3644 68.2746 31.195 66.4789C30.862 66.2988 28.937 65.7509 28.366 66.1204C26.7019 67.1972 26.9237 68.4548 26.8683 69.5322C26.8129 75.0391 26.5813 86.5057 26.8683 88.2076C27.2014 90.1823 28.5323 90.5409 29.8637 91.0802L44.508 97.3652L44.5078 95.2109C40.0148 93.3554 30.6626 89.5006 29.1982 88.9259C27.3677 88.2076 28.699 77.7925 28.699 74.7398Z" fill="#F8F8F8" fill-opacity="0.18" style="mix-blend-mode:overlay"/>
<path d="M28.699 74.7398C28.699 72.2976 29.3644 68.2746 31.195 66.4789C30.862 66.2988 28.937 65.7509 28.366 66.1204C26.7019 67.1972 26.9237 68.4548 26.8683 69.5322C26.8129 75.0391 26.5813 86.5057 26.8683 88.2076C27.2014 90.1823 28.5323 90.5409 29.8637 91.0802L44.508 97.3652L44.5078 95.2109C40.0148 93.3554 30.6626 89.5006 29.1982 88.9259C27.3677 88.2076 28.699 77.7925 28.699 74.7398Z" fill="#F8F8F8" fill-opacity="0.18" style="mix-blend-mode:overlay"/>
<path d="M60.9833 75.942C60.9833 73.4998 59.8177 69.5316 57.9872 67.7358C58.3202 67.5557 61.4101 66.6481 61.9811 67.0176C63.6452 68.0944 62.7585 69.657 62.8139 70.7344C62.8694 76.2413 63.1009 87.7079 62.8139 89.4098C62.4809 91.3845 61.1496 91.6184 59.8183 92.1577L44.508 97.3652L44.5086 95.0308C49.0016 93.1752 58.0205 90.9364 59.4849 90.3618C61.3154 89.6435 60.9833 78.9947 60.9833 75.942Z" fill="#F8F8F8" fill-opacity="0.18" style="mix-blend-mode:overlay"/>
<path d="M60.9833 75.942C60.9833 73.4998 59.8177 69.5316 57.9872 67.7358C58.3202 67.5557 61.4101 66.6481 61.9811 67.0176C63.6452 68.0944 62.7585 69.657 62.8139 70.7344C62.8694 76.2413 63.1009 87.7079 62.8139 89.4098C62.4809 91.3845 61.1496 91.6184 59.8183 92.1577L44.508 97.3652L44.5086 95.0308C49.0016 93.1752 58.0205 90.9364 59.4849 90.3618C61.3154 89.6435 60.9833 78.9947 60.9833 75.942Z" fill="#F8F8F8" fill-opacity="0.18" style="mix-blend-mode:overlay"/>
<path d="M43.3681 108.974C43.6776 108.874 44.0075 108.872 44.3176 108.971L61.1384 114.302C62.8077 114.831 62.7001 117.42 60.9936 117.786L44.541 121.312C44.3001 121.363 44.0516 121.357 43.8133 121.292L28.732 117.224C27.0925 116.782 27.0371 114.289 28.6551 113.763L43.3681 108.974Z" fill="url(#paint9_linear_215_264)"/>
<path d="M26.8686 116.422C26.8686 114.454 28.6605 113.068 30.3873 113.701L42.7017 118.214C43.7816 118.61 44.508 119.704 44.508 120.935V145.093L28.5503 138.271C27.5352 137.836 26.8686 136.778 26.8686 135.599V116.422Z" fill="url(#paint10_linear_215_264)"/>
<path d="M44.3557 120.737C44.3474 119.429 45.1586 118.281 46.3293 117.942L59.628 114.098C61.319 113.61 62.9795 114.985 62.9795 116.874V136.701C62.9795 137.955 62.226 139.064 61.1178 139.441L44.511 145.093L44.3557 120.737Z" fill="url(#paint11_linear_215_264)"/>
<path d="M31.6944 113.668L44.6744 109L43.8423 108.82L28.1998 113.848C29.0319 113.668 28.6991 115.464 28.8655 114.746C29.011 114.118 29.8639 114.028 30.5296 114.028C31.1952 114.028 42.8439 118.517 43.3431 119.056C43.8423 119.594 44.609 143.839 44.508 139.168C44.4653 137.192 45.1736 119.056 45.8393 118.696C46.5049 118.337 57.9872 115.285 59.4849 115.105C60.683 114.961 62.2029 115.763 62.8131 116.182C62.7021 115.763 62.3471 114.854 61.8146 114.566C61.2821 114.279 59.8177 113.848 59.152 113.668L44.0088 118.337L31.6944 113.668Z" fill="white" fill-opacity="0.57" style="mix-blend-mode:screen"/>
<path d="M31.6944 113.668L44.6744 109L43.8423 108.82L28.1998 113.848C29.0319 113.668 28.6991 115.464 28.8655 114.746C29.011 114.118 29.8639 114.028 30.5296 114.028C31.1952 114.028 42.8439 118.517 43.3431 119.056C43.8423 119.594 44.609 143.839 44.508 139.168C44.4653 137.192 45.1736 119.056 45.8393 118.696C46.5049 118.337 57.9872 115.285 59.4849 115.105C60.683 114.961 62.2029 115.763 62.8131 116.182C62.7021 115.763 62.3471 114.854 61.8146 114.566C61.2821 114.279 59.8177 113.848 59.152 113.668L44.0088 118.337L31.6944 113.668Z" fill="#2E89B6" fill-opacity="0.7" style="mix-blend-mode:color-dodge"/>
<path d="M40.5142 117.799C40.1318 117.956 28.5327 138.27 28.5327 138.27L31.528 139.527L42.3447 118.517C41.6022 118.099 40.8965 117.642 40.5142 117.799Z" fill="#92DCEE" fill-opacity="0.21"/>
<path d="M44.1752 131.266C44.1752 130.727 37.186 141.762 37.186 141.762L38.2686 142.218L44.1752 133.062V131.266Z" fill="#92DCEE" fill-opacity="0.21"/>
<path d="M53.4941 111.873L36.5203 115.464L35.5219 115.105L49.5003 110.616L53.4941 111.873Z" fill="url(#paint12_linear_215_264)"/>
<path d="M28.699 122.468C28.699 120.026 29.3644 116.003 31.195 114.207C30.862 114.027 28.937 113.479 28.366 113.849C26.7019 114.925 26.9237 116.183 26.8683 117.261C26.8129 122.767 26.5813 134.234 26.8683 135.936C27.2014 137.911 28.5323 138.269 29.8637 138.808L44.508 145.093L44.5078 142.939C40.0148 141.084 30.6626 137.229 29.1982 136.654C27.3677 135.936 28.699 125.521 28.699 122.468Z" fill="#F8F8F8" fill-opacity="0.18" style="mix-blend-mode:overlay"/>
<path d="M28.699 122.468C28.699 120.026 29.3644 116.003 31.195 114.207C30.862 114.027 28.937 113.479 28.366 113.849C26.7019 114.925 26.9237 116.183 26.8683 117.261C26.8129 122.767 26.5813 134.234 26.8683 135.936C27.2014 137.911 28.5323 138.269 29.8637 138.808L44.508 145.093L44.5078 142.939C40.0148 141.084 30.6626 137.229 29.1982 136.654C27.3677 135.936 28.699 125.521 28.699 122.468Z" fill="#F8F8F8" fill-opacity="0.18" style="mix-blend-mode:overlay"/>
<path d="M60.9833 123.67C60.9833 121.228 59.8177 117.26 57.9872 115.464C58.3202 115.284 61.4101 114.376 61.9811 114.746C63.6452 115.823 62.7585 117.385 62.8139 118.463C62.8694 123.97 63.1009 135.436 62.8139 137.138C62.4809 139.113 61.1496 139.347 59.8183 139.886L44.508 145.093L44.5086 142.759C49.0016 140.904 58.0205 138.665 59.4849 138.09C61.3154 137.372 60.9833 126.723 60.9833 123.67Z" fill="#F8F8F8" fill-opacity="0.18" style="mix-blend-mode:overlay"/>
<path d="M60.9833 123.67C60.9833 121.228 59.8177 117.26 57.9872 115.464C58.3202 115.284 61.4101 114.376 61.9811 114.746C63.6452 115.823 62.7585 117.385 62.8139 118.463C62.8694 123.97 63.1009 135.436 62.8139 137.138C62.4809 139.113 61.1496 139.347 59.8183 139.886L44.508 145.093L44.5086 142.759C49.0016 140.904 58.0205 138.665 59.4849 138.09C61.3154 137.372 60.9833 126.723 60.9833 123.67Z" fill="#F8F8F8" fill-opacity="0.18" style="mix-blend-mode:overlay"/>
<path d="M121.643 17.3362C121.952 17.2355 122.282 17.2342 122.592 17.3325L139.413 22.6636C141.082 23.1927 140.974 25.7822 139.268 26.1479L122.815 29.6735C122.575 29.7251 122.326 29.7185 122.088 29.6542L107.006 25.5857C105.367 25.1434 105.312 22.651 106.93 22.1244L121.643 17.3362Z" fill="url(#paint13_linear_215_264)"/>
<path d="M105.143 24.7834C105.143 22.8155 106.935 21.43 108.662 22.0629L120.976 26.5759C122.056 26.9717 122.782 28.0657 122.782 29.2964V53.4553L106.825 46.6323C105.81 46.1983 105.143 45.1395 105.143 43.9612V24.7834Z" fill="url(#paint14_linear_215_264)"/>
<path d="M122.63 29.0991C122.622 27.7913 123.433 26.6424 124.604 26.304L137.902 22.4603C139.593 21.9715 141.254 23.3465 141.254 25.2356V45.063C141.254 46.3169 140.5 47.4259 139.392 47.8031L122.785 53.4553L122.63 29.0991Z" fill="url(#paint15_linear_215_264)"/>
<path d="M109.969 22.0303L122.949 17.3615L122.117 17.1819L106.474 22.2099C107.306 22.0303 106.973 23.826 107.14 23.1077C107.285 22.4796 108.138 22.3894 108.804 22.3894C109.47 22.3894 121.118 26.8787 121.618 27.4174C122.117 27.9562 122.883 52.2004 122.782 47.5294C122.74 45.5541 123.448 27.4174 124.114 27.0583C124.779 26.6992 136.262 23.6464 137.759 23.4669C138.957 23.3232 140.477 24.1253 141.087 24.5443C140.977 24.1253 140.622 23.2155 140.089 22.9282C139.557 22.6408 138.092 22.2099 137.426 22.0303L122.283 26.6992L109.969 22.0303Z" fill="white" fill-opacity="0.57" style="mix-blend-mode:screen"/>
<path d="M109.969 22.0303L122.949 17.3615L122.117 17.1819L106.474 22.2099C107.306 22.0303 106.973 23.826 107.14 23.1077C107.285 22.4796 108.138 22.3894 108.804 22.3894C109.47 22.3894 121.118 26.8787 121.618 27.4174C122.117 27.9562 122.883 52.2004 122.782 47.5294C122.74 45.5541 123.448 27.4174 124.114 27.0583C124.779 26.6992 136.262 23.6464 137.759 23.4669C138.957 23.3232 140.477 24.1253 141.087 24.5443C140.977 24.1253 140.622 23.2155 140.089 22.9282C139.557 22.6408 138.092 22.2099 137.426 22.0303L122.283 26.6992L109.969 22.0303Z" fill="#2E89B6" fill-opacity="0.7" style="mix-blend-mode:color-dodge"/>
<path d="M118.789 26.1604C118.406 26.3174 106.807 46.6316 106.807 46.6316L109.802 47.8886L120.619 26.8788C119.877 26.4611 119.171 26.0035 118.789 26.1604Z" fill="#92DCEE" fill-opacity="0.21"/>
<path d="M122.45 39.6281C122.45 39.0892 115.46 50.1234 115.46 50.1234L116.543 50.5799L122.45 41.424V39.6281Z" fill="#92DCEE" fill-opacity="0.21"/>
<path d="M131.769 20.2346L114.795 23.826L113.796 23.4669L127.775 18.9776L131.769 20.2346Z" fill="url(#paint16_linear_215_264)"/>
<path d="M106.973 30.8299C106.973 28.3877 107.639 24.3647 109.469 22.569C109.136 22.3889 107.211 21.841 106.64 22.2105C104.976 23.2873 105.198 24.5449 105.143 25.6223C105.087 31.1292 104.856 42.5958 105.143 44.2977C105.476 46.2724 106.807 46.631 108.138 47.1703L122.782 53.4553L122.782 51.301C118.289 49.4454 108.937 45.5906 107.473 45.016C105.642 44.2977 106.973 33.8826 106.973 30.8299Z" fill="#F8F8F8" fill-opacity="0.18" style="mix-blend-mode:overlay"/>
<path d="M106.973 30.8299C106.973 28.3877 107.639 24.3647 109.469 22.569C109.136 22.3889 107.211 21.841 106.64 22.2105C104.976 23.2873 105.198 24.5449 105.143 25.6223C105.087 31.1292 104.856 42.5958 105.143 44.2977C105.476 46.2724 106.807 46.631 108.138 47.1703L122.782 53.4553L122.782 51.301C118.289 49.4454 108.937 45.5906 107.473 45.016C105.642 44.2977 106.973 33.8826 106.973 30.8299Z" fill="#F8F8F8" fill-opacity="0.18" style="mix-blend-mode:overlay"/>
<path d="M139.258 32.0321C139.258 29.5899 138.092 25.6216 136.262 23.8259C136.595 23.6458 139.684 22.7382 140.255 23.1076C141.92 24.1845 141.033 25.7471 141.088 26.8245C141.144 32.3314 141.375 43.798 141.088 45.4999C140.755 47.4746 139.424 47.7084 138.093 48.2478L122.782 53.4553L122.783 51.1209C127.276 49.2653 136.295 47.0265 137.759 46.4519C139.59 45.7336 139.258 35.0848 139.258 32.0321Z" fill="#F8F8F8" fill-opacity="0.18" style="mix-blend-mode:overlay"/>
<path d="M139.258 32.0321C139.258 29.5899 138.092 25.6216 136.262 23.8259C136.595 23.6458 139.684 22.7382 140.255 23.1076C141.92 24.1845 141.033 25.7471 141.088 26.8245C141.144 32.3314 141.375 43.798 141.088 45.4999C140.755 47.4746 139.424 47.7084 138.093 48.2478L122.782 53.4553L122.783 51.1209C127.276 49.2653 136.295 47.0265 137.759 46.4519C139.59 45.7336 139.258 35.0848 139.258 32.0321Z" fill="#F8F8F8" fill-opacity="0.18" style="mix-blend-mode:overlay"/>
<path d="M121.643 61.2461C121.952 61.1454 122.282 61.1441 122.592 61.2424L139.413 66.5735C141.082 67.1026 140.974 69.6921 139.268 70.0578L122.815 73.5834C122.575 73.635 122.326 73.6284 122.088 73.5642L107.006 69.4956C105.367 69.0533 105.312 66.5609 106.93 66.0343L121.643 61.2461Z" fill="url(#paint17_linear_215_264)"/>
<path d="M105.143 68.6933C105.143 66.7254 106.935 65.3399 108.662 65.9728L120.976 70.4858C122.056 70.8816 122.782 71.9756 122.782 73.2063V97.3652L106.825 90.5423C105.81 90.1082 105.143 89.0494 105.143 87.8711V68.6933Z" fill="url(#paint18_linear_215_264)"/>
<path d="M122.63 73.009C122.622 71.7012 123.433 70.5523 124.604 70.2139L137.902 66.3702C139.593 65.8814 141.254 67.2564 141.254 69.1455V88.9729C141.254 90.2268 140.5 91.3358 139.392 91.713L122.785 97.3652L122.63 73.009Z" fill="url(#paint19_linear_215_264)"/>
<path d="M109.969 65.9402L122.949 61.2714L122.117 61.0918L106.474 66.1198C107.306 65.9402 106.973 67.7359 107.14 67.0176C107.285 66.3895 108.138 66.2994 108.804 66.2994C109.47 66.2994 121.118 70.7886 121.618 71.3274C122.117 71.8661 122.883 96.1104 122.782 91.4393C122.74 89.464 123.448 71.3274 124.114 70.9682C124.779 70.6091 136.262 67.5564 137.759 67.3768C138.957 67.2331 140.477 68.0352 141.087 68.4542C140.977 68.0352 140.622 67.1254 140.089 66.8381C139.557 66.5508 138.092 66.1198 137.426 65.9402L122.283 70.6091L109.969 65.9402Z" fill="white" fill-opacity="0.57" style="mix-blend-mode:screen"/>
<path d="M109.969 65.9402L122.949 61.2714L122.117 61.0918L106.474 66.1198C107.306 65.9402 106.973 67.7359 107.14 67.0176C107.285 66.3895 108.138 66.2994 108.804 66.2994C109.47 66.2994 121.118 70.7886 121.618 71.3274C122.117 71.8661 122.883 96.1104 122.782 91.4393C122.74 89.464 123.448 71.3274 124.114 70.9682C124.779 70.6091 136.262 67.5564 137.759 67.3768C138.957 67.2331 140.477 68.0352 141.087 68.4542C140.977 68.0352 140.622 67.1254 140.089 66.8381C139.557 66.5508 138.092 66.1198 137.426 65.9402L122.283 70.6091L109.969 65.9402Z" fill="#2E89B6" fill-opacity="0.7" style="mix-blend-mode:color-dodge"/>
<path d="M118.789 70.0704C118.406 70.2273 106.807 90.5415 106.807 90.5415L109.802 91.7985L120.619 70.7887C119.877 70.371 119.171 69.9134 118.789 70.0704Z" fill="#92DCEE" fill-opacity="0.21"/>
<path d="M122.45 83.538C122.45 82.9991 115.46 94.0334 115.46 94.0334L116.543 94.4898L122.45 85.3339V83.538Z" fill="#92DCEE" fill-opacity="0.21"/>
<path d="M131.769 64.1445L114.795 67.7359L113.796 67.3768L127.775 62.8875L131.769 64.1445Z" fill="url(#paint20_linear_215_264)"/>
<path d="M106.973 74.7398C106.973 72.2976 107.639 68.2746 109.469 66.4789C109.136 66.2988 107.211 65.7509 106.64 66.1204C104.976 67.1972 105.198 68.4548 105.143 69.5322C105.087 75.0391 104.856 86.5057 105.143 88.2076C105.476 90.1823 106.807 90.5409 108.138 91.0802L122.782 97.3652L122.782 95.2109C118.289 93.3554 108.937 89.5006 107.473 88.9259C105.642 88.2076 106.973 77.7925 106.973 74.7398Z" fill="#F8F8F8" fill-opacity="0.18" style="mix-blend-mode:overlay"/>
<path d="M106.973 74.7398C106.973 72.2976 107.639 68.2746 109.469 66.4789C109.136 66.2988 107.211 65.7509 106.64 66.1204C104.976 67.1972 105.198 68.4548 105.143 69.5322C105.087 75.0391 104.856 86.5057 105.143 88.2076C105.476 90.1823 106.807 90.5409 108.138 91.0802L122.782 97.3652L122.782 95.2109C118.289 93.3554 108.937 89.5006 107.473 88.9259C105.642 88.2076 106.973 77.7925 106.973 74.7398Z" fill="#F8F8F8" fill-opacity="0.18" style="mix-blend-mode:overlay"/>
<path d="M139.258 75.942C139.258 73.4998 138.092 69.5316 136.262 67.7358C136.595 67.5557 139.684 66.6481 140.255 67.0176C141.92 68.0944 141.033 69.657 141.088 70.7344C141.144 76.2413 141.375 87.7079 141.088 89.4098C140.755 91.3845 139.424 91.6184 138.093 92.1577L122.782 97.3652L122.783 95.0308C127.276 93.1752 136.295 90.9364 137.759 90.3618C139.59 89.6435 139.258 78.9947 139.258 75.942Z" fill="#F8F8F8" fill-opacity="0.18" style="mix-blend-mode:overlay"/>
<path d="M139.258 75.942C139.258 73.4998 138.092 69.5316 136.262 67.7358C136.595 67.5557 139.684 66.6481 140.255 67.0176C141.92 68.0944 141.033 69.657 141.088 70.7344C141.144 76.2413 141.375 87.7079 141.088 89.4098C140.755 91.3845 139.424 91.6184 138.093 92.1577L122.782 97.3652L122.783 95.0308C127.276 93.1752 136.295 90.9364 137.759 90.3618C139.59 89.6435 139.258 78.9947 139.258 75.942Z" fill="#F8F8F8" fill-opacity="0.18" style="mix-blend-mode:overlay"/>
<path d="M121.643 108.974C121.952 108.874 122.282 108.872 122.592 108.971L139.413 114.302C141.082 114.831 140.974 117.42 139.268 117.786L122.815 121.312C122.575 121.363 122.326 121.357 122.088 121.292L107.006 117.224C105.367 116.782 105.312 114.289 106.93 113.763L121.643 108.974Z" fill="url(#paint21_linear_215_264)"/>
<path d="M105.143 116.422C105.143 114.454 106.935 113.068 108.662 113.701L120.976 118.214C122.056 118.61 122.782 119.704 122.782 120.935V145.093L106.825 138.271C105.81 137.836 105.143 136.778 105.143 135.599V116.422Z" fill="url(#paint22_linear_215_264)"/>
<path d="M122.63 120.737C122.622 119.429 123.433 118.281 124.604 117.942L137.902 114.098C139.593 113.61 141.254 114.985 141.254 116.874V136.701C141.254 137.955 140.5 139.064 139.392 139.441L122.785 145.093L122.63 120.737Z" fill="url(#paint23_linear_215_264)"/>
<path d="M109.969 113.668L122.949 109L122.117 108.82L106.474 113.848C107.306 113.668 106.973 115.464 107.14 114.746C107.285 114.118 108.138 114.028 108.804 114.028C109.47 114.028 121.118 118.517 121.618 119.056C122.117 119.594 122.883 143.839 122.782 139.168C122.74 137.192 123.448 119.056 124.114 118.696C124.779 118.337 136.262 115.285 137.759 115.105C138.957 114.961 140.477 115.763 141.087 116.182C140.977 115.763 140.622 114.854 140.089 114.566C139.557 114.279 138.092 113.848 137.426 113.668L122.283 118.337L109.969 113.668Z" fill="white" fill-opacity="0.57" style="mix-blend-mode:screen"/>
<path d="M109.969 113.668L122.949 109L122.117 108.82L106.474 113.848C107.306 113.668 106.973 115.464 107.14 114.746C107.285 114.118 108.138 114.028 108.804 114.028C109.47 114.028 121.118 118.517 121.618 119.056C122.117 119.594 122.883 143.839 122.782 139.168C122.74 137.192 123.448 119.056 124.114 118.696C124.779 118.337 136.262 115.285 137.759 115.105C138.957 114.961 140.477 115.763 141.087 116.182C140.977 115.763 140.622 114.854 140.089 114.566C139.557 114.279 138.092 113.848 137.426 113.668L122.283 118.337L109.969 113.668Z" fill="#2E89B6" fill-opacity="0.7" style="mix-blend-mode:color-dodge"/>
<path d="M118.789 117.799C118.406 117.956 106.807 138.27 106.807 138.27L109.802 139.527L120.619 118.517C119.877 118.099 119.171 117.642 118.789 117.799Z" fill="#92DCEE" fill-opacity="0.21"/>
<path d="M122.45 131.266C122.45 130.727 115.46 141.762 115.46 141.762L116.543 142.218L122.45 133.062V131.266Z" fill="#92DCEE" fill-opacity="0.21"/>
<path d="M131.769 111.873L114.795 115.464L113.796 115.105L127.775 110.616L131.769 111.873Z" fill="url(#paint24_linear_215_264)"/>
<path d="M106.973 122.468C106.973 120.026 107.639 116.003 109.469 114.207C109.136 114.027 107.211 113.479 106.64 113.849C104.976 114.925 105.198 116.183 105.143 117.261C105.087 122.767 104.856 134.234 105.143 135.936C105.476 137.911 106.807 138.269 108.138 138.808L122.782 145.093L122.782 142.939C118.289 141.084 108.937 137.229 107.473 136.654C105.642 135.936 106.973 125.521 106.973 122.468Z" fill="#F8F8F8" fill-opacity="0.18" style="mix-blend-mode:overlay"/>
<path d="M106.973 122.468C106.973 120.026 107.639 116.003 109.469 114.207C109.136 114.027 107.211 113.479 106.64 113.849C104.976 114.925 105.198 116.183 105.143 117.261C105.087 122.767 104.856 134.234 105.143 135.936C105.476 137.911 106.807 138.269 108.138 138.808L122.782 145.093L122.782 142.939C118.289 141.084 108.937 137.229 107.473 136.654C105.642 135.936 106.973 125.521 106.973 122.468Z" fill="#F8F8F8" fill-opacity="0.18" style="mix-blend-mode:overlay"/>
<path d="M139.258 123.67C139.258 121.228 138.092 117.26 136.262 115.464C136.595 115.284 139.684 114.376 140.255 114.746C141.92 115.823 141.033 117.385 141.088 118.463C141.144 123.97 141.375 135.436 141.088 137.138C140.755 139.113 139.424 139.347 138.093 139.886L122.782 145.093L122.783 142.759C127.276 140.904 136.295 138.665 137.759 138.09C139.59 137.372 139.258 126.723 139.258 123.67Z" fill="#F8F8F8" fill-opacity="0.18" style="mix-blend-mode:overlay"/>
<path d="M139.258 123.67C139.258 121.228 138.092 117.26 136.262 115.464C136.595 115.284 139.684 114.376 140.255 114.746C141.92 115.823 141.033 117.385 141.088 118.463C141.144 123.97 141.375 135.436 141.088 137.138C140.755 139.113 139.424 139.347 138.093 139.886L122.782 145.093L122.783 142.759C127.276 140.904 136.295 138.665 137.759 138.09C139.59 137.372 139.258 126.723 139.258 123.67Z" fill="#F8F8F8" fill-opacity="0.18" style="mix-blend-mode:overlay"/>
<defs>
<linearGradient id="paint0_linear_215_264" x1="86.6547" y1="156.548" x2="81.8375" y2="0.0210431" gradientUnits="userSpaceOnUse">
<stop stop-color="#78C0FF"/>
<stop offset="1" stop-color="#DFF0FF"/>
</linearGradient>
<linearGradient id="paint1_linear_215_264" x1="26.7275" y1="35.3186" x2="63.0009" y2="35.3186" gradientUnits="userSpaceOnUse">
<stop stop-color="#DEF5FF"/>
<stop offset="1" stop-color="#3CB8EE"/>
</linearGradient>
<linearGradient id="paint2_linear_215_264" x1="44.8642" y1="17.1819" x2="44.8642" y2="53.4553" gradientUnits="userSpaceOnUse">
<stop stop-color="#70E0FF"/>
<stop offset="1" stop-color="#02A5D2"/>
</linearGradient>
<linearGradient id="paint3_linear_215_264" x1="44.8642" y1="17.1819" x2="44.8642" y2="53.4553" gradientUnits="userSpaceOnUse">
<stop stop-color="#2D96C5"/>
<stop offset="1" stop-color="#1D7EAA"/>
</linearGradient>
<linearGradient id="paint4_linear_215_264" x1="44.8642" y1="17.1819" x2="44.8642" y2="53.4553" gradientUnits="userSpaceOnUse">
<stop stop-color="#F6F6F6"/>
<stop offset="1" stop-color="#3AC7FF"/>
</linearGradient>
<linearGradient id="paint5_linear_215_264" x1="26.7275" y1="79.2285" x2="63.0009" y2="79.2285" gradientUnits="userSpaceOnUse">
<stop stop-color="#DEF5FF"/>
<stop offset="1" stop-color="#3CB8EE"/>
</linearGradient>
<linearGradient id="paint6_linear_215_264" x1="44.8642" y1="61.0918" x2="44.8642" y2="97.3652" gradientUnits="userSpaceOnUse">
<stop stop-color="#70E0FF"/>
<stop offset="1" stop-color="#02A5D2"/>
</linearGradient>
<linearGradient id="paint7_linear_215_264" x1="44.8642" y1="61.0918" x2="44.8642" y2="97.3652" gradientUnits="userSpaceOnUse">
<stop stop-color="#2D96C5"/>
<stop offset="1" stop-color="#1D7EAA"/>
</linearGradient>
<linearGradient id="paint8_linear_215_264" x1="44.8642" y1="61.0918" x2="44.8642" y2="97.3652" gradientUnits="userSpaceOnUse">
<stop stop-color="#F6F6F6"/>
<stop offset="1" stop-color="#3AC7FF"/>
</linearGradient>
<linearGradient id="paint9_linear_215_264" x1="26.7275" y1="126.957" x2="63.0009" y2="126.957" gradientUnits="userSpaceOnUse">
<stop stop-color="#DEF5FF"/>
<stop offset="1" stop-color="#3CB8EE"/>
</linearGradient>
<linearGradient id="paint10_linear_215_264" x1="44.8642" y1="108.82" x2="44.8642" y2="145.093" gradientUnits="userSpaceOnUse">
<stop stop-color="#70E0FF"/>
<stop offset="1" stop-color="#02A5D2"/>
</linearGradient>
<linearGradient id="paint11_linear_215_264" x1="44.8642" y1="108.82" x2="44.8642" y2="145.093" gradientUnits="userSpaceOnUse">
<stop stop-color="#2D96C5"/>
<stop offset="1" stop-color="#1D7EAA"/>
</linearGradient>
<linearGradient id="paint12_linear_215_264" x1="44.8642" y1="108.82" x2="44.8642" y2="145.093" gradientUnits="userSpaceOnUse">
<stop stop-color="#F6F6F6"/>
<stop offset="1" stop-color="#3AC7FF"/>
</linearGradient>
<linearGradient id="paint13_linear_215_264" x1="105.002" y1="35.3186" x2="141.275" y2="35.3186" gradientUnits="userSpaceOnUse">
<stop stop-color="#DEF5FF"/>
<stop offset="1" stop-color="#3CB8EE"/>
</linearGradient>
<linearGradient id="paint14_linear_215_264" x1="123.139" y1="17.1819" x2="123.139" y2="53.4553" gradientUnits="userSpaceOnUse">
<stop stop-color="#70E0FF"/>
<stop offset="1" stop-color="#02A5D2"/>
</linearGradient>
<linearGradient id="paint15_linear_215_264" x1="123.139" y1="17.1819" x2="123.139" y2="53.4553" gradientUnits="userSpaceOnUse">
<stop stop-color="#2D96C5"/>
<stop offset="1" stop-color="#1D7EAA"/>
</linearGradient>
<linearGradient id="paint16_linear_215_264" x1="123.139" y1="17.1819" x2="123.139" y2="53.4553" gradientUnits="userSpaceOnUse">
<stop stop-color="#F6F6F6"/>
<stop offset="1" stop-color="#3AC7FF"/>
</linearGradient>
<linearGradient id="paint17_linear_215_264" x1="105.002" y1="79.2285" x2="141.275" y2="79.2285" gradientUnits="userSpaceOnUse">
<stop stop-color="#DEF5FF"/>
<stop offset="1" stop-color="#3CB8EE"/>
</linearGradient>
<linearGradient id="paint18_linear_215_264" x1="123.139" y1="61.0918" x2="123.139" y2="97.3652" gradientUnits="userSpaceOnUse">
<stop stop-color="#70E0FF"/>
<stop offset="1" stop-color="#02A5D2"/>
</linearGradient>
<linearGradient id="paint19_linear_215_264" x1="123.139" y1="61.0918" x2="123.139" y2="97.3652" gradientUnits="userSpaceOnUse">
<stop stop-color="#2D96C5"/>
<stop offset="1" stop-color="#1D7EAA"/>
</linearGradient>
<linearGradient id="paint20_linear_215_264" x1="123.139" y1="61.0918" x2="123.139" y2="97.3652" gradientUnits="userSpaceOnUse">
<stop stop-color="#F6F6F6"/>
<stop offset="1" stop-color="#3AC7FF"/>
</linearGradient>
<linearGradient id="paint21_linear_215_264" x1="105.002" y1="126.957" x2="141.275" y2="126.957" gradientUnits="userSpaceOnUse">
<stop stop-color="#DEF5FF"/>
<stop offset="1" stop-color="#3CB8EE"/>
</linearGradient>
<linearGradient id="paint22_linear_215_264" x1="123.139" y1="108.82" x2="123.139" y2="145.093" gradientUnits="userSpaceOnUse">
<stop stop-color="#70E0FF"/>
<stop offset="1" stop-color="#02A5D2"/>
</linearGradient>
<linearGradient id="paint23_linear_215_264" x1="123.139" y1="108.82" x2="123.139" y2="145.093" gradientUnits="userSpaceOnUse">
<stop stop-color="#2D96C5"/>
<stop offset="1" stop-color="#1D7EAA"/>
</linearGradient>
<linearGradient id="paint24_linear_215_264" x1="123.139" y1="108.82" x2="123.139" y2="145.093" gradientUnits="userSpaceOnUse">
<stop stop-color="#F6F6F6"/>
<stop offset="1" stop-color="#3AC7FF"/>
</linearGradient>
</defs>
</svg>
