<svg width="170" height="157" viewBox="0 0 170 157" fill="none" xmlns="http://www.w3.org/2000/svg">
<rect x="3" y="3" width="163.176" height="150.548" rx="9" fill="url(#paint0_linear_219_583)" stroke="#1A74BE" stroke-width="6"/>
<path d="M135.576 91.7992C135.186 91.6719 134.77 91.6703 134.38 91.7945L113.181 98.5336C111.077 99.2023 111.213 102.476 113.363 102.938L134.098 107.395C134.402 107.46 134.715 107.452 135.015 107.37L154.022 102.227C156.088 101.668 156.158 98.5176 154.119 97.8519L135.576 91.7992Z" fill="url(#paint1_linear_219_583)"/>
<path d="M156.37 101.213C156.37 98.7255 154.112 96.9742 151.935 97.7742L136.416 103.479C135.055 103.979 134.14 105.362 134.14 106.918V137.457L154.251 128.832C155.53 128.284 156.37 126.945 156.37 125.456V101.213Z" fill="url(#paint2_linear_219_583)"/>
<path d="M134.331 106.669C134.342 105.015 133.32 103.563 131.844 103.135L115.084 98.2765C112.953 97.6587 110.86 99.3968 110.86 101.785V126.848C110.86 128.433 111.81 129.835 113.207 130.312L134.136 137.457L134.331 106.669Z" fill="url(#paint3_linear_219_583)"/>
<path d="M150.288 97.733L133.93 91.8311L134.979 91.6041L154.692 97.96C153.644 97.733 154.063 100.003 153.853 99.095C153.67 98.301 152.595 98.187 151.756 98.187C150.917 98.187 136.237 103.862 135.608 104.543C134.979 105.224 134.012 135.871 134.14 129.966C134.193 127.469 133.301 104.543 132.462 104.089C131.623 103.635 117.152 99.7759 115.265 99.549C113.755 99.3674 111.839 100.381 111.07 100.911C111.21 100.381 111.657 99.2312 112.329 98.868C113 98.5048 114.845 97.96 115.684 97.733L134.769 103.635L150.288 97.733Z" fill="white" fill-opacity="0.57" style="mix-blend-mode:screen"/>
<path d="M150.288 97.733L133.93 91.8311L134.979 91.6041L154.692 97.96C153.644 97.733 154.063 100.003 153.853 99.095C153.67 98.301 152.595 98.187 151.756 98.187C150.917 98.187 136.237 103.862 135.608 104.543C134.979 105.224 134.012 135.871 134.14 129.966C134.193 127.469 133.301 104.543 132.462 104.089C131.623 103.635 117.152 99.7759 115.265 99.549C113.755 99.3674 111.839 100.381 111.07 100.911C111.21 100.381 111.657 99.2312 112.329 98.868C113 98.5048 114.845 97.96 115.684 97.733L134.769 103.635L150.288 97.733Z" fill="#2E89B6" fill-opacity="0.7" style="mix-blend-mode:color-dodge"/>
<path d="M139.173 102.954C139.655 103.152 154.273 128.831 154.273 128.831L150.498 130.42L136.866 103.862C137.802 103.334 138.691 102.755 139.173 102.954Z" fill="#92DCEE" fill-opacity="0.21"/>
<path d="M134.559 119.978C134.559 119.297 143.367 133.245 143.367 133.245L142.003 133.822L134.559 122.248V119.978Z" fill="#92DCEE" fill-opacity="0.21"/>
<path d="M122.815 95.463L144.206 100.003L145.465 99.549L127.848 93.8741L122.815 95.463Z" fill="url(#paint4_linear_219_583)"/>
<path d="M154.063 108.856C154.063 105.769 153.225 100.684 150.918 98.414C151.337 98.1863 153.763 97.4937 154.483 97.9608C156.58 99.322 156.301 100.912 156.37 102.274C156.44 109.235 156.732 123.73 156.37 125.881C155.951 128.377 154.273 128.831 152.595 129.512L134.14 137.457L134.14 134.734C139.802 132.388 151.589 127.515 153.434 126.789C155.741 125.881 154.063 112.715 154.063 108.856Z" fill="#F8F8F8" fill-opacity="0.18" style="mix-blend-mode:overlay"/>
<path d="M154.063 108.856C154.063 105.769 153.225 100.684 150.918 98.414C151.337 98.1863 153.763 97.4937 154.483 97.9608C156.58 99.322 156.301 100.912 156.37 102.274C156.44 109.235 156.732 123.73 156.37 125.881C155.951 128.377 154.273 128.831 152.595 129.512L134.14 137.457L134.14 134.734C139.802 132.388 151.589 127.515 153.434 126.789C155.741 125.881 154.063 112.715 154.063 108.856Z" fill="#F8F8F8" fill-opacity="0.18" style="mix-blend-mode:overlay"/>
<path d="M113.376 110.376C113.376 107.289 114.845 102.273 117.152 100.003C116.732 99.7751 112.838 98.6278 112.119 99.0949C110.022 100.456 111.139 102.431 111.069 103.793C110.999 110.754 110.707 125.249 111.069 127.401C111.489 129.897 113.167 130.193 114.844 130.874L134.14 137.457L134.139 134.506C128.476 132.161 117.11 129.331 115.265 128.604C112.958 127.696 113.376 114.235 113.376 110.376Z" fill="#F8F8F8" fill-opacity="0.18" style="mix-blend-mode:overlay"/>
<path d="M113.376 110.376C113.376 107.289 114.845 102.273 117.152 100.003C116.732 99.7751 112.838 98.6278 112.119 99.0949C110.022 100.456 111.139 102.431 111.069 103.793C110.999 110.754 110.707 125.249 111.069 127.401C111.489 129.897 113.167 130.193 114.844 130.874L134.14 137.457L134.139 134.506C128.476 132.161 117.11 129.331 115.265 128.604C112.958 127.696 113.376 114.235 113.376 110.376Z" fill="#F8F8F8" fill-opacity="0.18" style="mix-blend-mode:overlay"/>
<path d="M36.197 19.2864C35.807 19.1591 35.3913 19.1575 35.0005 19.2817L13.8016 26.0207C11.6979 26.6895 11.8335 29.9629 13.9841 30.4252L34.7188 34.8818C35.0225 34.9471 35.3357 34.9388 35.636 34.8575L54.6425 29.7146C56.7088 29.1554 56.7785 26.0047 54.7394 25.3391L36.197 19.2864Z" fill="url(#paint5_linear_219_583)"/>
<path d="M56.991 28.7003C56.991 26.2127 54.7326 24.4614 52.5564 25.2614L37.037 30.9662C35.6759 31.4665 34.7605 32.8495 34.7605 34.4052V64.9443L54.8715 56.3194C56.1508 55.7708 56.991 54.4323 56.991 52.9429V28.7003Z" fill="url(#paint6_linear_219_583)"/>
<path d="M34.9524 34.1558C34.9629 32.5026 33.9405 31.0503 32.4651 30.6226L15.7051 25.7637C13.574 25.1459 11.4814 26.884 11.4814 29.2719V54.3357C11.4814 55.9207 12.431 57.3226 13.8276 57.7994L34.7567 64.9443L34.9524 34.1558Z" fill="url(#paint7_linear_219_583)"/>
<path d="M50.9091 25.2202L34.5508 19.3183L35.5994 19.0913L55.3132 25.4472C54.2646 25.2202 54.6841 27.4901 54.4743 26.5821C54.2909 25.7881 53.216 25.6742 52.3771 25.6742C51.5382 25.6742 36.8577 31.349 36.2285 32.03C35.5994 32.711 34.6332 63.358 34.7605 57.4534C34.8143 54.9565 33.9216 32.03 33.0827 31.576C32.2438 31.122 17.773 27.2631 15.8855 27.0361C14.3755 26.8545 12.4601 27.8684 11.6911 28.3981C11.8309 27.8684 12.2783 26.7183 12.9494 26.3551C13.6205 25.9919 15.4661 25.4472 16.305 25.2202L35.3897 31.122L50.9091 25.2202Z" fill="white" fill-opacity="0.57" style="mix-blend-mode:screen"/>
<path d="M50.9091 25.2202L34.5508 19.3183L35.5994 19.0913L55.3132 25.4472C54.2646 25.2202 54.6841 27.4901 54.4743 26.5821C54.2909 25.7881 53.216 25.6742 52.3771 25.6742C51.5382 25.6742 36.8577 31.349 36.2285 32.03C35.5994 32.711 34.6332 63.358 34.7605 57.4534C34.8143 54.9565 33.9216 32.03 33.0827 31.576C32.2438 31.122 17.773 27.2631 15.8855 27.0361C14.3755 26.8545 12.4601 27.8684 11.6911 28.3981C11.8309 27.8684 12.2783 26.7183 12.9494 26.3551C13.6205 25.9919 15.4661 25.4472 16.305 25.2202L35.3897 31.122L50.9091 25.2202Z" fill="#2E89B6" fill-opacity="0.7" style="mix-blend-mode:color-dodge"/>
<path d="M39.7938 30.441C40.2757 30.6395 54.8938 56.3186 54.8938 56.3186L51.1188 57.9075L37.4869 31.3491C38.4225 30.8211 39.3119 30.2426 39.7938 30.441Z" fill="#92DCEE" fill-opacity="0.21"/>
<path d="M35.1799 47.4654C35.1799 46.7842 43.9883 60.7325 43.9883 60.7325L42.6238 61.3095L35.1799 49.7356V47.4654Z" fill="#92DCEE" fill-opacity="0.21"/>
<path d="M23.4355 22.9502L44.8271 27.4901L46.0855 27.0361L28.4688 21.3613L23.4355 22.9502Z" fill="url(#paint8_linear_219_583)"/>
<path d="M54.6842 36.3437C54.6842 33.2565 53.8455 28.1711 51.5386 25.9012C51.9582 25.6734 54.3842 24.9809 55.1038 25.4479C57.2011 26.8091 56.9215 28.3989 56.9913 29.7608C57.0612 36.722 57.353 51.2169 56.9913 53.3683C56.5716 55.8645 54.8942 56.3177 53.2163 56.9994L34.7605 64.9443L34.7607 62.2211C40.4232 59.8755 52.2095 55.0026 54.055 54.2763C56.3619 53.3683 54.6842 40.2026 54.6842 36.3437Z" fill="#F8F8F8" fill-opacity="0.18" style="mix-blend-mode:overlay"/>
<path d="M54.6842 36.3437C54.6842 33.2565 53.8455 28.1711 51.5386 25.9012C51.9582 25.6734 54.3842 24.9809 55.1038 25.4479C57.2011 26.8091 56.9215 28.3989 56.9913 29.7608C57.0612 36.722 57.353 51.2169 56.9913 53.3683C56.5716 55.8645 54.8942 56.3177 53.2163 56.9994L34.7605 64.9443L34.7607 62.2211C40.4232 59.8755 52.2095 55.0026 54.055 54.2763C56.3619 53.3683 54.6842 40.2026 54.6842 36.3437Z" fill="#F8F8F8" fill-opacity="0.18" style="mix-blend-mode:overlay"/>
<path d="M13.9971 37.8633C13.9971 34.7762 15.4661 29.76 17.773 27.49C17.3534 27.2623 13.4592 26.115 12.7396 26.582C10.6424 27.9432 11.7598 29.9185 11.69 31.2805C11.6201 38.2417 11.3283 52.7366 11.69 54.8879C12.1097 57.3841 13.7875 57.6797 15.4653 58.3615L34.7605 64.9443L34.7597 61.9934C29.0973 59.6478 17.7311 56.8177 15.8855 56.0913C13.5786 55.1834 13.9971 41.7222 13.9971 37.8633Z" fill="#F8F8F8" fill-opacity="0.18" style="mix-blend-mode:overlay"/>
<path d="M13.9971 37.8633C13.9971 34.7762 15.4661 29.76 17.773 27.49C17.3534 27.2623 13.4592 26.115 12.7396 26.582C10.6424 27.9432 11.7598 29.9185 11.69 31.2805C11.6201 38.2417 11.3283 52.7366 11.69 54.8879C12.1097 57.3841 13.7875 57.6797 15.4653 58.3615L34.7605 64.9443L34.7597 61.9934C29.0973 59.6478 17.7311 56.8177 15.8855 56.0913C13.5786 55.1834 13.9971 41.7222 13.9971 37.8633Z" fill="#F8F8F8" fill-opacity="0.18" style="mix-blend-mode:overlay"/>
<defs>
<linearGradient id="paint0_linear_219_583" x1="86.6547" y1="156.548" x2="81.8375" y2="0.0210431" gradientUnits="userSpaceOnUse">
<stop stop-color="#78C0FF"/>
<stop offset="1" stop-color="#DFF0FF"/>
</linearGradient>
<linearGradient id="paint1_linear_219_583" x1="156.548" y1="78.2742" x2="11.4543" y2="78.2742" gradientUnits="userSpaceOnUse">
<stop stop-color="#DEF5FF"/>
<stop offset="1" stop-color="#3CB8EE"/>
</linearGradient>
<linearGradient id="paint2_linear_219_583" x1="84.0011" y1="19.0913" x2="84.0011" y2="137.457" gradientUnits="userSpaceOnUse">
<stop stop-color="#70E0FF"/>
<stop offset="1" stop-color="#02A5D2"/>
</linearGradient>
<linearGradient id="paint3_linear_219_583" x1="84.0011" y1="19.0913" x2="84.0011" y2="137.457" gradientUnits="userSpaceOnUse">
<stop stop-color="#2D96C5"/>
<stop offset="1" stop-color="#1D7EAA"/>
</linearGradient>
<linearGradient id="paint4_linear_219_583" x1="84.0011" y1="19.0913" x2="84.0011" y2="137.457" gradientUnits="userSpaceOnUse">
<stop stop-color="#F6F6F6"/>
<stop offset="1" stop-color="#3AC7FF"/>
</linearGradient>
<linearGradient id="paint5_linear_219_583" x1="156.548" y1="78.2742" x2="11.4543" y2="78.2742" gradientUnits="userSpaceOnUse">
<stop stop-color="#DEF5FF"/>
<stop offset="1" stop-color="#3CB8EE"/>
</linearGradient>
<linearGradient id="paint6_linear_219_583" x1="84.0011" y1="19.0913" x2="84.0011" y2="137.457" gradientUnits="userSpaceOnUse">
<stop stop-color="#70E0FF"/>
<stop offset="1" stop-color="#02A5D2"/>
</linearGradient>
<linearGradient id="paint7_linear_219_583" x1="84.0011" y1="19.0913" x2="84.0011" y2="137.457" gradientUnits="userSpaceOnUse">
<stop stop-color="#2D96C5"/>
<stop offset="1" stop-color="#1D7EAA"/>
</linearGradient>
<linearGradient id="paint8_linear_219_583" x1="84.0011" y1="19.0913" x2="84.0011" y2="137.457" gradientUnits="userSpaceOnUse">
<stop stop-color="#F6F6F6"/>
<stop offset="1" stop-color="#3AC7FF"/>
</linearGradient>
</defs>
</svg>
