<svg width="1200" height="750" viewBox="0 0 1200 750" fill="none" xmlns="http://www.w3.org/2000/svg">
<path d="M435.316 67.4558C439.416 64.7365 444.944 65.8557 447.663 69.9555L482.318 122.205C485.037 126.305 483.918 131.833 479.818 134.552L427.569 169.207C423.469 171.926 417.941 170.807 415.222 166.707L380.567 114.458C377.848 110.358 378.967 104.83 383.067 102.111L435.316 67.4558Z" fill="url(#paint0_radial_246_219)" fill-opacity="0.5"/>
<path d="M509.464 425.064C512.554 423.015 516.72 423.858 518.769 426.948L544.885 466.323C546.934 469.412 546.091 473.578 543.001 475.627L503.626 501.743C500.537 503.792 496.371 502.949 494.322 499.859L468.206 460.484C466.157 457.395 467 453.229 470.09 451.18L509.464 425.064Z" fill="url(#paint1_radial_246_219)" fill-opacity="0.5"/>
<path d="M786.297 431.928C789.387 429.879 793.553 430.722 795.602 433.812L821.718 473.186C823.767 476.276 822.924 480.442 819.834 482.491L780.459 508.607C777.37 510.656 773.204 509.812 771.155 506.723L745.039 467.348C742.99 464.258 743.833 460.093 746.923 458.043L786.297 431.928Z" fill="url(#paint2_radial_246_219)" fill-opacity="0.5"/>
<path d="M354.478 595.192C358.578 592.472 364.106 593.592 366.825 597.691L401.48 649.941C404.199 654.041 403.08 659.569 398.98 662.288L346.731 696.943C342.631 699.662 337.103 698.543 334.384 694.443L299.729 642.194C297.01 638.094 298.129 632.566 302.229 629.847L354.478 595.192Z" fill="url(#paint3_radial_246_219)" fill-opacity="0.5"/>
<path d="M996.424 609.083C1000.76 611.4 1002.41 616.796 1000.09 621.136L970.57 676.45C968.254 680.79 962.858 682.431 958.518 680.115L903.204 650.596C898.864 648.279 897.223 642.883 899.539 638.543L929.058 583.229C931.374 578.889 936.77 577.248 941.111 579.564L996.424 609.083Z" fill="url(#paint4_radial_246_219)" fill-opacity="0.5"/>
<path d="M981.354 324.46C985.454 321.741 990.982 322.86 993.701 326.96L1028.36 379.209C1031.08 383.309 1029.96 388.837 1025.86 391.556L973.607 426.211C969.507 428.931 963.979 427.811 961.26 423.712L926.605 371.462C923.886 367.362 925.005 361.834 929.105 359.115L981.354 324.46Z" fill="url(#paint5_radial_246_219)" fill-opacity="0.5"/>
<path d="M971.44 53.7287C975.54 51.0095 981.068 52.1287 983.787 56.2285L1018.44 108.478C1021.16 112.578 1020.04 118.106 1015.94 120.825L963.693 155.48C959.593 158.199 954.065 157.08 951.346 152.98L916.691 100.731C913.972 96.6309 915.091 91.1029 919.191 88.3837L971.44 53.7287Z" fill="url(#paint6_radial_246_219)" fill-opacity="0.5"/>
<path d="M720.643 200.542C724.695 197.855 730.157 198.961 732.844 203.013L767.089 254.643C769.776 258.694 768.67 264.157 764.619 266.844L712.988 301.089C708.937 303.776 703.474 302.67 700.787 298.618L666.543 246.988C663.856 242.937 664.961 237.474 669.013 234.787L720.643 200.542Z" fill="url(#paint7_radial_246_219)" fill-opacity="0.5"/>
<path d="M603.431 626.148C606.598 624.048 610.867 624.912 612.967 628.078L639.732 668.432C641.832 671.598 640.968 675.867 637.801 677.968L597.448 704.732C594.282 706.832 590.012 705.968 587.912 702.802L561.147 662.448C559.047 659.282 559.912 655.013 563.078 652.912L603.431 626.148Z" fill="url(#paint8_radial_246_219)" fill-opacity="0.5"/>
<defs>
<radialGradient id="paint0_radial_246_219" cx="0" cy="0" r="1" gradientUnits="userSpaceOnUse" gradientTransform="translate(431.442 118.331) rotate(146.445) scale(40.2565)">
<stop offset="0.293269" stop-color="#73BEF2"/>
<stop offset="1" stop-color="white"/>
</radialGradient>
<radialGradient id="paint1_radial_246_219" cx="0" cy="0" r="1" gradientUnits="userSpaceOnUse" gradientTransform="translate(506.545 463.403) rotate(146.445) scale(30.337)">
<stop offset="0.293269" stop-color="#73BEF2"/>
<stop offset="1" stop-color="white"/>
</radialGradient>
<radialGradient id="paint2_radial_246_219" cx="0" cy="0" r="1" gradientUnits="userSpaceOnUse" gradientTransform="translate(783.378 470.267) rotate(146.445) scale(30.337)">
<stop offset="0.293269" stop-color="#73BEF2"/>
<stop offset="1" stop-color="white"/>
</radialGradient>
<radialGradient id="paint3_radial_246_219" cx="0" cy="0" r="1" gradientUnits="userSpaceOnUse" gradientTransform="translate(350.605 646.067) rotate(146.445) scale(40.2565)">
<stop offset="0.293269" stop-color="#73BEF2"/>
<stop offset="1" stop-color="white"/>
</radialGradient>
<radialGradient id="paint4_radial_246_219" cx="0" cy="0" r="1" gradientUnits="userSpaceOnUse" gradientTransform="translate(949.814 629.839) rotate(-151.913) scale(40.2565)">
<stop offset="0.293269" stop-color="#73BEF2"/>
<stop offset="1" stop-color="white"/>
</radialGradient>
<radialGradient id="paint5_radial_246_219" cx="0" cy="0" r="1" gradientUnits="userSpaceOnUse" gradientTransform="translate(977.48 375.336) rotate(146.445) scale(40.2565)">
<stop offset="0.293269" stop-color="#73BEF2"/>
<stop offset="1" stop-color="white"/>
</radialGradient>
<radialGradient id="paint6_radial_246_219" cx="0" cy="0" r="1" gradientUnits="userSpaceOnUse" gradientTransform="translate(967.566 104.604) rotate(146.445) scale(40.2565)">
<stop offset="0.293269" stop-color="#73BEF2"/>
<stop offset="1" stop-color="white"/>
</radialGradient>
<radialGradient id="paint7_radial_246_219" cx="0" cy="0" r="1" gradientUnits="userSpaceOnUse" gradientTransform="translate(716.816 250.815) rotate(146.445) scale(39.7798)">
<stop offset="0.293269" stop-color="#73BEF2"/>
<stop offset="1" stop-color="white"/>
</radialGradient>
<radialGradient id="paint8_radial_246_219" cx="0" cy="0" r="1" gradientUnits="userSpaceOnUse" gradientTransform="translate(600.44 665.44) rotate(146.445) scale(31.091)">
<stop offset="0.293269" stop-color="#73BEF2"/>
<stop offset="1" stop-color="white"/>
</radialGradient>
</defs>
</svg>
