<svg width="317" height="380" viewBox="0 0 317 380" fill="none" xmlns="http://www.w3.org/2000/svg">
<path d="M104.248 217.85L124.453 268.658L64 295.99L53.3772 299.389C40.6208 303.47 29.5262 290.179 36.155 278.541C48.139 257.5 63.2655 232.855 71.2493 227.349C85.7503 217.349 104.248 217.85 104.248 217.85Z" fill="#609CCC"/>
<path d="M212.273 220.85L192.068 271.658L252.521 298.99L263.144 302.389C275.901 306.47 286.995 293.179 280.367 281.541C268.382 260.5 253.256 235.855 245.272 230.349C230.771 220.349 212.273 220.85 212.273 220.85Z" fill="#609CCC"/>
<path d="M152 67.9897C202.258 67.9897 243 106.046 243 152.99C243 175.623 233.528 196.188 218.087 211.42C235.284 227.539 246 250.284 246 275.49C255.62 336.955 227.5 370.49 156 370.49C84.5003 370.49 60.0341 340.31 66 275.49C66 252.224 75.1292 231.056 90.0576 215.259C72.1826 199.739 61 177.584 61 152.99C61 106.046 101.742 67.9897 152 67.9897Z" fill="#FEF8E7"/>
<path d="M223 324.49C229.793 363.282 203.987 370.49 153.5 370.49C103.013 370.49 81.3251 360.508 85.5377 319.598C85.5377 288.751 117.099 247.99 152.197 247.99C187.295 247.99 223 293.642 223 324.49Z" fill="#A1D7F6"/>
<path d="M135.592 372.531C138.279 378.89 127.555 379.99 107.583 379.99C87.6102 379.99 79.5462 378.435 81.2127 371.729C81.2127 366.672 93.698 359.99 107.583 359.99C121.467 359.99 135.592 367.474 135.592 372.531Z" fill="#326894"/>
<path d="M231.592 372.531C234.279 378.89 223.555 379.99 203.583 379.99C183.61 379.99 175.546 378.435 177.213 371.729C177.213 366.672 189.698 359.99 203.583 359.99C217.467 359.99 231.592 367.474 231.592 372.531Z" fill="#326894"/>
<ellipse cx="113.5" cy="145.99" rx="10.5" ry="13" fill="#171717"/>
<ellipse cx="188.5" cy="145.99" rx="10.5" ry="13" fill="#171717"/>
<ellipse cx="98" cy="178.99" rx="17" ry="16" transform="rotate(90 98 178.99)" fill="#EE9E78"/>
<ellipse cx="205" cy="178.99" rx="17" ry="16" transform="rotate(90 205 178.99)" fill="#EE9E78"/>
<path d="M150.269 170.188C150.651 170.059 151.063 170.049 151.451 170.159L165.278 174.076C166.735 174.489 167.222 176.307 166.168 177.393L153.373 190.575C152.611 191.36 151.361 191.387 150.566 190.637L136.927 177.778C135.828 176.742 136.23 174.908 137.661 174.427L150.269 170.188Z" fill="#8B5663"/>
<path d="M150.164 168.27C150.61 168.089 151.106 168.074 151.562 168.23L165.672 173.045C167.15 173.549 167.505 175.477 166.304 176.475L153.082 187.469C152.364 188.066 151.33 188.087 150.588 187.52L136.779 176.959C135.55 176.019 135.808 174.099 137.242 173.517L150.164 168.27Z" fill="#FE9FB6"/>
<path d="M110 107.489C84 107.489 76.0001 133.323 61.5001 147.989C60.9963 145.49 60.996 143.489 63.0002 133.989C65.1872 123.623 79 86.4898 105.5 71.4898C122.909 61.6358 146.496 63.9897 160.5 63.9896C215.741 63.9889 244.005 121.989 242.505 149.489C239.839 145.989 229.6 134.289 220 119.489C208 100.989 189.496 107.99 177 114.989C166.957 120.615 161.5 128.489 148 127.489C134.5 126.489 121.413 107.489 110 107.489Z" fill="#609CCC"/>
<path fill-rule="evenodd" clip-rule="evenodd" d="M96.2922 9.82095C123.752 1.82708 148.594 3.44891 151.779 13.443C151.986 14.0926 152.095 14.7617 152.113 15.4469L167.687 60.3258C179.111 60.3894 187.057 62.5275 188.5 67.0553C191.685 77.0496 161.983 94.9008 127.95 104.808C93.9179 114.716 63.7468 114.644 60.5617 104.65C59.1837 100.325 63.086 94.8522 70.7131 89.2301L54.6261 45.8483C53.5287 44.8376 52.7505 43.6864 52.3381 42.3922C49.153 32.3979 68.8322 17.815 96.2922 9.82095Z" fill="#3F3F3F"/>
<path d="M72 93.7437C71.5 92.7437 71 91.2437 69 86.2437C71 86.2437 77.2 86.4437 84 85.2437C92.5 83.7437 116.5 79.2437 127 75.2437C135.4 72.0437 156.833 60.9103 166.5 55.7437L169 62.7437C163.5 69.2437 139.797 79.2352 128.5 83.2437C97.5 94.2437 72.5 94.7437 72 93.7437Z" fill="#EC1E1E"/>
<ellipse cx="100.131" cy="24.5445" rx="44.4852" ry="11.6793" transform="rotate(-17.5426 100.131 24.5445)" fill="#171717" fill-opacity="0.2" style="mix-blend-mode:multiply"/>
<path d="M64.6436 311.005L58.1401 313.595L23.7394 227.191C23.3308 226.165 23.8315 225.002 24.8577 224.593L27.645 223.483C28.6712 223.075 29.8343 223.575 30.2429 224.602L64.6436 311.005Z" fill="white"/>
<rect x="64.6436" y="311.005" width="7" height="66" transform="rotate(158.291 64.6436 311.005)" fill="#444444"/>
</svg>
