<svg width="317" height="325" viewBox="0 0 317 325" fill="none" xmlns="http://www.w3.org/2000/svg">
<g filter="url(#filter0_d_205_351)">
<path d="M104.248 154.106L124.453 204.915L64 232.246L53.3772 235.645C40.6208 239.727 29.5262 226.435 36.155 214.797C48.139 193.757 63.2655 169.112 71.2493 163.606C85.7503 153.606 104.248 154.106 104.248 154.106Z" fill="#609CCC"/>
<path d="M212.273 157.106L192.068 207.915L252.521 235.246L263.144 238.645C275.901 242.727 286.995 229.435 280.367 217.797C268.382 196.757 253.256 172.112 245.272 166.606C230.771 156.606 212.273 157.106 212.273 157.106Z" fill="#609CCC"/>
<path d="M152 4.24609C202.258 4.24609 243 42.3019 243 89.2461C243 111.879 233.528 132.445 218.087 147.677C235.284 163.795 246 186.54 246 211.746C255.62 273.211 227.5 306.746 156 306.746C84.5003 306.746 60.0341 276.566 66 211.746C66 188.481 75.1292 167.312 90.0576 151.516C72.1826 135.995 61 113.84 61 89.2461C61 42.3019 101.742 4.24609 152 4.24609Z" fill="#FEF8E7"/>
<path d="M223 260.746C229.793 299.538 203.987 306.746 153.5 306.746C103.013 306.746 81.3251 296.765 85.5377 255.855C85.5377 225.007 117.099 184.246 152.197 184.246C187.295 184.246 223 229.898 223 260.746Z" fill="#A1D7F6"/>
<path d="M135.592 308.787C138.279 315.146 127.555 316.246 107.583 316.246C87.6102 316.246 79.5462 314.692 81.2127 307.985C81.2127 302.928 93.698 296.246 107.583 296.246C121.467 296.246 135.592 303.73 135.592 308.787Z" fill="#326894"/>
<path d="M231.592 308.787C234.279 315.146 223.555 316.246 203.583 316.246C183.61 316.246 175.546 314.692 177.213 307.985C177.213 302.928 189.698 296.246 203.583 296.246C217.467 296.246 231.592 303.73 231.592 308.787Z" fill="#326894"/>
<ellipse cx="113.5" cy="82.2461" rx="10.5" ry="13" fill="#171717"/>
<ellipse cx="188.5" cy="82.2461" rx="10.5" ry="13" fill="#171717"/>
<ellipse cx="98" cy="115.246" rx="17" ry="16" transform="rotate(90 98 115.246)" fill="#EE9E78"/>
<ellipse cx="205" cy="115.246" rx="17" ry="16" transform="rotate(90 205 115.246)" fill="#EE9E78"/>
<path d="M150.27 106.444C150.652 106.316 151.064 106.306 151.452 106.416L165.279 110.332C166.736 110.745 167.223 112.564 166.169 113.65L153.374 126.832C152.612 127.616 151.362 127.644 150.567 126.894L136.928 114.034C135.829 112.998 136.231 111.165 137.662 110.683L150.27 106.444Z" fill="#8B5663"/>
<path d="M150.165 104.526C150.611 104.345 151.107 104.331 151.563 104.486L165.673 109.301C167.151 109.805 167.506 111.733 166.305 112.732L153.083 123.725C152.365 124.322 151.331 124.343 150.589 123.776L136.78 113.215C135.551 112.275 135.809 110.356 137.243 109.773L150.165 104.526Z" fill="#FE9FB6"/>
<path d="M110.001 43.7458C84.001 43.7458 76.0011 69.5791 61.5011 84.2458C60.9973 81.7463 60.997 79.7458 63.0012 70.2458C65.1882 59.8797 79.001 22.7461 105.501 7.74611C122.91 -2.10782 146.497 0.246095 160.501 0.245919C215.742 0.245225 244.006 58.2458 242.506 85.7458C239.839 82.2458 229.601 70.5458 220.001 55.7458C208.001 37.2458 189.497 44.2461 177.001 51.2458C166.958 56.8713 161.501 64.7458 148.001 63.7458C134.501 62.7458 121.414 43.7458 110.001 43.7458Z" fill="#609CCC"/>
<path d="M109 52.5C125.913 52.5 139.5 65.5508 139.5 81.5C139.5 97.4492 125.913 110.5 109 110.5C92.0866 110.5 78.5 97.4492 78.5 81.5C78.5 65.5508 92.0866 52.5 109 52.5Z" fill="#FFF2E0" fill-opacity="0.52" stroke="#1B1B1B" stroke-width="3"/>
<path d="M192 52.5C208.913 52.5 222.5 65.5508 222.5 81.5C222.5 97.4492 208.913 110.5 192 110.5C175.087 110.5 161.5 97.4492 161.5 81.5C161.5 65.5508 175.087 52.5 192 52.5Z" fill="#FFF2E0" fill-opacity="0.52" stroke="#1B1B1B" stroke-width="3"/>
<rect x="140.5" y="82" width="21" height="3.06667" fill="black" stroke="#1B1B1B"/>
<g filter="url(#filter1_di_205_351)">
<path d="M221.5 151L212 165.044L204 181V287H104V180H104.159L95 166.544L87 154.5L90 151.5L111 180H196.346L218.5 148L221.5 151Z" fill="#D68F59"/>
</g>
<path d="M179.801 250.072C179.81 251.351 179.733 252.621 179.576 253.875C181.083 254.099 182.492 254.403 183.76 254.788C187.462 255.912 189.658 257.615 189.865 259.52C190.072 261.426 188.273 263.378 184.865 264.948C181.972 266.28 178.12 267.242 173.948 267.696C173.276 268.578 172.551 269.426 171.773 270.229C166.58 275.597 159.505 278.643 152.105 278.696C144.706 278.75 137.587 275.806 132.316 270.513C127.046 265.221 124.054 258.012 124 250.474L179.801 250.072ZM179.224 256.021C178.539 259.405 177.253 262.633 175.431 265.547C177.625 265.159 179.62 264.577 181.219 263.841C183.737 262.681 185.066 261.238 184.913 259.83C184.76 258.423 183.138 257.165 180.403 256.335C180.026 256.22 179.632 256.116 179.224 256.021Z" fill="white" fill-opacity="0.57"/>
<path d="M123.995 204.032C123.995 204.992 123.68 205.765 123.051 206.352C122.421 206.939 121.477 207.232 120.219 207.232H117.963V212H116.843V200.816H120.219C121.467 200.816 122.405 201.109 123.035 201.696C123.675 202.283 123.995 203.061 123.995 204.032ZM120.219 206.272C121.968 206.272 122.843 205.525 122.843 204.032C122.843 203.285 122.635 202.72 122.219 202.336C121.803 201.952 121.136 201.76 120.219 201.76H117.963V206.272H120.219ZM133.778 207.184C133.778 207.568 133.767 207.861 133.746 208.064H126.498C126.53 208.725 126.69 209.291 126.978 209.76C127.266 210.229 127.644 210.587 128.114 210.832C128.583 211.067 129.095 211.184 129.65 211.184C130.375 211.184 130.983 211.008 131.474 210.656C131.975 210.304 132.306 209.829 132.466 209.232H133.65C133.436 210.085 132.978 210.784 132.274 211.328C131.58 211.861 130.706 212.128 129.65 212.128C128.828 212.128 128.092 211.947 127.442 211.584C126.791 211.211 126.279 210.688 125.906 210.016C125.543 209.333 125.362 208.539 125.362 207.632C125.362 206.725 125.543 205.931 125.906 205.248C126.268 204.565 126.775 204.043 127.426 203.68C128.076 203.317 128.818 203.136 129.65 203.136C130.482 203.136 131.207 203.317 131.826 203.68C132.455 204.043 132.935 204.533 133.266 205.152C133.607 205.76 133.778 206.437 133.778 207.184ZM132.642 207.152C132.652 206.501 132.519 205.947 132.242 205.488C131.975 205.029 131.607 204.683 131.138 204.448C130.668 204.213 130.156 204.096 129.602 204.096C128.77 204.096 128.06 204.363 127.474 204.896C126.887 205.429 126.562 206.181 126.498 207.152H132.642ZM139.923 203.104C140.968 203.104 141.822 203.429 142.483 204.08C143.144 204.72 143.475 205.653 143.475 206.88V212H142.371V207.008C142.371 206.059 142.131 205.333 141.651 204.832C141.182 204.331 140.536 204.08 139.715 204.08C138.872 204.08 138.2 204.347 137.699 204.88C137.198 205.413 136.947 206.197 136.947 207.232V212H135.827V203.264H136.947V204.752C137.224 204.219 137.624 203.813 138.147 203.536C138.67 203.248 139.262 203.104 139.923 203.104ZM149.616 203.136C150.437 203.136 151.152 203.328 151.76 203.712C152.368 204.096 152.805 204.581 153.072 205.168V203.264H154.192V212.224C154.192 213.024 154.016 213.733 153.664 214.352C153.323 214.971 152.843 215.445 152.224 215.776C151.605 216.117 150.901 216.288 150.112 216.288C148.992 216.288 148.059 216.021 147.312 215.488C146.576 214.955 146.117 214.229 145.936 213.312H147.04C147.232 213.92 147.595 214.405 148.128 214.768C148.672 215.131 149.333 215.312 150.112 215.312C150.677 215.312 151.184 215.189 151.632 214.944C152.08 214.709 152.432 214.357 152.688 213.888C152.944 213.419 153.072 212.864 153.072 212.224V210.064C152.795 210.661 152.352 211.157 151.744 211.552C151.147 211.936 150.437 212.128 149.616 212.128C148.816 212.128 148.096 211.941 147.456 211.568C146.827 211.195 146.331 210.667 145.968 209.984C145.616 209.301 145.44 208.512 145.44 207.616C145.44 206.72 145.616 205.936 145.968 205.264C146.331 204.581 146.827 204.059 147.456 203.696C148.096 203.323 148.816 203.136 149.616 203.136ZM153.072 207.632C153.072 206.928 152.928 206.309 152.64 205.776C152.352 205.243 151.957 204.832 151.456 204.544C150.965 204.256 150.421 204.112 149.824 204.112C149.205 204.112 148.651 204.251 148.16 204.528C147.669 204.805 147.28 205.211 146.992 205.744C146.715 206.267 146.576 206.891 146.576 207.616C146.576 208.331 146.715 208.96 146.992 209.504C147.28 210.037 147.669 210.448 148.16 210.736C148.651 211.013 149.205 211.152 149.824 211.152C150.421 211.152 150.965 211.008 151.456 210.72C151.957 210.432 152.352 210.021 152.64 209.488C152.928 208.955 153.072 208.336 153.072 207.632ZM164.317 203.264V212H163.197V210.464C162.941 211.008 162.546 211.424 162.013 211.712C161.479 212 160.882 212.144 160.221 212.144C159.175 212.144 158.322 211.824 157.661 211.184C156.999 210.533 156.669 209.595 156.669 208.368V203.264H157.773V208.24C157.773 209.189 158.007 209.915 158.477 210.416C158.957 210.917 159.607 211.168 160.429 211.168C161.271 211.168 161.943 210.901 162.445 210.368C162.946 209.835 163.197 209.051 163.197 208.016V203.264H164.317ZM167.434 201.616C167.21 201.616 167.018 201.536 166.858 201.376C166.698 201.216 166.618 201.019 166.618 200.784C166.618 200.549 166.698 200.357 166.858 200.208C167.018 200.048 167.21 199.968 167.434 199.968C167.658 199.968 167.85 200.048 168.01 200.208C168.17 200.357 168.25 200.549 168.25 200.784C168.25 201.019 168.17 201.216 168.01 201.376C167.85 201.536 167.658 201.616 167.434 201.616ZM167.994 203.264V212H166.874V203.264H167.994ZM174.626 203.104C175.671 203.104 176.525 203.429 177.186 204.08C177.847 204.72 178.178 205.653 178.178 206.88V212H177.074V207.008C177.074 206.059 176.834 205.333 176.354 204.832C175.885 204.331 175.239 204.08 174.418 204.08C173.575 204.08 172.903 204.347 172.402 204.88C171.901 205.413 171.65 206.197 171.65 207.232V212H170.53V203.264H171.65V204.752C171.927 204.219 172.327 203.813 172.85 203.536C173.373 203.248 173.965 203.104 174.626 203.104ZM181.247 211.072H185.823V212H179.967V211.072L184.463 204.192H180.047V203.264H185.743V204.192L181.247 211.072ZM125.307 230.4C125.307 229.301 125.547 228.32 126.027 227.456C126.507 226.581 127.163 225.904 127.995 225.424C128.827 224.933 129.755 224.688 130.779 224.688C132.027 224.688 133.094 224.987 133.979 225.584C134.875 226.171 135.526 227.003 135.931 228.08H134.619C134.299 227.323 133.808 226.731 133.147 226.304C132.496 225.877 131.707 225.664 130.779 225.664C129.958 225.664 129.216 225.856 128.555 226.24C127.904 226.624 127.392 227.179 127.019 227.904C126.646 228.619 126.459 229.451 126.459 230.4C126.459 231.349 126.646 232.181 127.019 232.896C127.392 233.611 127.904 234.16 128.555 234.544C129.216 234.928 129.958 235.12 130.779 235.12C131.707 235.12 132.496 234.912 133.147 234.496C133.808 234.069 134.299 233.483 134.619 232.736H135.931C135.526 233.803 134.875 234.629 133.979 235.216C133.083 235.803 132.016 236.096 130.779 236.096C129.755 236.096 128.827 235.856 127.995 235.376C127.163 234.885 126.507 234.208 126.027 233.344C125.547 232.48 125.307 231.499 125.307 230.4ZM141.987 236.128C141.165 236.128 140.424 235.947 139.763 235.584C139.112 235.211 138.595 234.688 138.211 234.016C137.837 233.333 137.651 232.539 137.651 231.632C137.651 230.725 137.843 229.936 138.227 229.264C138.611 228.581 139.133 228.059 139.795 227.696C140.456 227.323 141.197 227.136 142.019 227.136C142.84 227.136 143.581 227.323 144.243 227.696C144.915 228.059 145.437 228.581 145.811 229.264C146.195 229.936 146.387 230.725 146.387 231.632C146.387 232.528 146.195 233.317 145.811 234C145.427 234.683 144.899 235.211 144.227 235.584C143.555 235.947 142.808 236.128 141.987 236.128ZM141.987 235.152C142.563 235.152 143.096 235.024 143.587 234.768C144.077 234.501 144.472 234.107 144.771 233.584C145.08 233.051 145.235 232.4 145.235 231.632C145.235 230.864 145.085 230.219 144.787 229.696C144.488 229.163 144.093 228.768 143.603 228.512C143.112 228.245 142.579 228.112 142.003 228.112C141.427 228.112 140.893 228.245 140.403 228.512C139.912 228.768 139.517 229.163 139.219 229.696C138.931 230.219 138.787 230.864 138.787 231.632C138.787 232.4 138.931 233.051 139.219 233.584C139.517 234.107 139.907 234.501 140.387 234.768C140.877 235.024 141.411 235.152 141.987 235.152ZM151.868 228.208H149.836V236H148.716V228.208H147.5V227.264H148.716V226.656C148.716 225.707 148.956 225.008 149.436 224.56C149.927 224.112 150.716 223.888 151.804 223.888V224.848C151.079 224.848 150.567 224.987 150.268 225.264C149.98 225.541 149.836 226.005 149.836 226.656V227.264H151.868V228.208ZM157.072 228.208H155.04V236H153.92V228.208H152.704V227.264H153.92V226.656C153.92 225.707 154.16 225.008 154.64 224.56C155.13 224.112 155.92 223.888 157.008 223.888V224.848C156.282 224.848 155.77 224.987 155.472 225.264C155.184 225.541 155.04 226.005 155.04 226.656V227.264H157.072V228.208ZM166.739 231.184C166.739 231.568 166.728 231.861 166.707 232.064H159.459C159.491 232.725 159.651 233.291 159.939 233.76C160.227 234.229 160.605 234.587 161.075 234.832C161.544 235.067 162.056 235.184 162.611 235.184C163.336 235.184 163.944 235.008 164.435 234.656C164.936 234.304 165.267 233.829 165.427 233.232H166.611C166.397 234.085 165.939 234.784 165.235 235.328C164.541 235.861 163.667 236.128 162.611 236.128C161.789 236.128 161.053 235.947 160.403 235.584C159.752 235.211 159.24 234.688 158.867 234.016C158.504 233.333 158.323 232.539 158.323 231.632C158.323 230.725 158.504 229.931 158.867 229.248C159.229 228.565 159.736 228.043 160.387 227.68C161.037 227.317 161.779 227.136 162.611 227.136C163.443 227.136 164.168 227.317 164.787 227.68C165.416 228.043 165.896 228.533 166.227 229.152C166.568 229.76 166.739 230.437 166.739 231.184ZM165.603 231.152C165.613 230.501 165.48 229.947 165.203 229.488C164.936 229.029 164.568 228.683 164.099 228.448C163.629 228.213 163.117 228.096 162.563 228.096C161.731 228.096 161.021 228.363 160.435 228.896C159.848 229.429 159.523 230.181 159.459 231.152H165.603ZM176.692 231.184C176.692 231.568 176.681 231.861 176.66 232.064H169.412C169.444 232.725 169.604 233.291 169.892 233.76C170.18 234.229 170.558 234.587 171.028 234.832C171.497 235.067 172.009 235.184 172.564 235.184C173.289 235.184 173.897 235.008 174.388 234.656C174.889 234.304 175.22 233.829 175.38 233.232H176.564C176.35 234.085 175.892 234.784 175.188 235.328C174.494 235.861 173.62 236.128 172.564 236.128C171.742 236.128 171.006 235.947 170.356 235.584C169.705 235.211 169.193 234.688 168.82 234.016C168.457 233.333 168.276 232.539 168.276 231.632C168.276 230.725 168.457 229.931 168.82 229.248C169.182 228.565 169.689 228.043 170.34 227.68C170.99 227.317 171.732 227.136 172.564 227.136C173.396 227.136 174.121 227.317 174.74 227.68C175.369 228.043 175.849 228.533 176.18 229.152C176.521 229.76 176.692 230.437 176.692 231.184ZM175.556 231.152C175.566 230.501 175.433 229.947 175.156 229.488C174.889 229.029 174.521 228.683 174.052 228.448C173.582 228.213 173.07 228.096 172.516 228.096C171.684 228.096 170.974 228.363 170.388 228.896C169.801 229.429 169.476 230.181 169.412 231.152H175.556Z" fill="white"/>
</g>
<defs>
<filter id="filter0_d_205_351" x="30.1738" y="0" width="256.174" height="324.246" filterUnits="userSpaceOnUse" color-interpolation-filters="sRGB">
<feFlood flood-opacity="0" result="BackgroundImageFix"/>
<feColorMatrix in="SourceAlpha" type="matrix" values="0 0 0 0 0 0 0 0 0 0 0 0 0 0 0 0 0 0 127 0" result="hardAlpha"/>
<feOffset dy="4"/>
<feGaussianBlur stdDeviation="2"/>
<feComposite in2="hardAlpha" operator="out"/>
<feColorMatrix type="matrix" values="0 0 0 0 0 0 0 0 0 0 0 0 0 0 0 0 0 0 0.25 0"/>
<feBlend mode="normal" in2="BackgroundImageFix" result="effect1_dropShadow_205_351"/>
<feBlend mode="normal" in="SourceGraphic" in2="effect1_dropShadow_205_351" result="shape"/>
</filter>
<filter id="filter1_di_205_351" x="83" y="148" width="142.5" height="147" filterUnits="userSpaceOnUse" color-interpolation-filters="sRGB">
<feFlood flood-opacity="0" result="BackgroundImageFix"/>
<feColorMatrix in="SourceAlpha" type="matrix" values="0 0 0 0 0 0 0 0 0 0 0 0 0 0 0 0 0 0 127 0" result="hardAlpha"/>
<feOffset dy="4"/>
<feGaussianBlur stdDeviation="2"/>
<feComposite in2="hardAlpha" operator="out"/>
<feColorMatrix type="matrix" values="0 0 0 0 0 0 0 0 0 0 0 0 0 0 0 0 0 0 0.1 0"/>
<feBlend mode="normal" in2="BackgroundImageFix" result="effect1_dropShadow_205_351"/>
<feBlend mode="normal" in="SourceGraphic" in2="effect1_dropShadow_205_351" result="shape"/>
<feColorMatrix in="SourceAlpha" type="matrix" values="0 0 0 0 0 0 0 0 0 0 0 0 0 0 0 0 0 0 127 0" result="hardAlpha"/>
<feOffset dy="4"/>
<feGaussianBlur stdDeviation="2"/>
<feComposite in2="hardAlpha" operator="arithmetic" k2="-1" k3="1"/>
<feColorMatrix type="matrix" values="0 0 0 0 0.567321 0 0 0 0 0.217137 0 0 0 0 0.217137 0 0 0 0.18 0"/>
<feBlend mode="normal" in2="shape" result="effect2_innerShadow_205_351"/>
</filter>
</defs>
</svg>
