<svg width="170" height="157" viewBox="0 0 170 157" fill="none" xmlns="http://www.w3.org/2000/svg">
<rect x="3" y="3" width="163.176" height="150.548" rx="9" fill="url(#paint0_linear_215_251)" stroke="#1A74BE" stroke-width="6"/>
<path d="M132.431 90.6514C132.065 90.5331 131.675 90.5316 131.309 90.647L111.439 96.9098C109.467 97.5313 109.594 100.573 111.61 101.003L131.045 105.145C131.33 105.205 131.623 105.198 131.905 105.122L149.72 100.343C151.657 99.8229 151.722 96.8949 149.811 96.2763L132.431 90.6514Z" fill="url(#paint1_linear_215_251)"/>
<path d="M151.921 99.4C151.921 97.0882 149.804 95.4606 147.765 96.2041L133.218 101.506C131.942 101.971 131.084 103.256 131.084 104.702V133.082L149.935 125.067C151.134 124.557 151.921 123.313 151.921 121.929V99.4Z" fill="url(#paint2_linear_215_251)"/>
<path d="M131.264 104.47C131.274 102.934 130.315 101.584 128.933 101.186L113.223 96.6709C111.225 96.0967 109.264 97.712 109.264 99.9312V123.223C109.264 124.696 110.154 125.999 111.463 126.442L131.08 133.082L131.264 104.47Z" fill="url(#paint3_linear_215_251)"/>
<path d="M146.221 96.1658L130.887 90.681L131.87 90.4701L150.349 96.3767C149.366 96.1658 149.759 98.2753 149.562 97.4315C149.39 96.6936 148.383 96.5877 147.597 96.5877C146.81 96.5877 133.05 101.861 132.46 102.494C131.87 103.127 130.965 131.608 131.084 126.121C131.135 123.8 130.298 102.494 129.511 102.072C128.725 101.651 115.161 98.0643 113.392 97.8534C111.977 97.6846 110.181 98.6269 109.46 99.1191C109.592 98.6269 110.011 97.5581 110.64 97.2205C111.269 96.883 112.999 96.3767 113.785 96.1658L131.674 101.651L146.221 96.1658Z" fill="white" fill-opacity="0.57" style="mix-blend-mode:screen"/>
<path d="M146.221 96.1658L130.887 90.681L131.87 90.4701L150.349 96.3767C149.366 96.1658 149.759 98.2753 149.562 97.4315C149.39 96.6936 148.383 96.5877 147.597 96.5877C146.81 96.5877 133.05 101.861 132.46 102.494C131.87 103.127 130.965 131.608 131.084 126.121C131.135 123.8 130.298 102.494 129.511 102.072C128.725 101.651 115.161 98.0643 113.392 97.8534C111.977 97.6846 110.181 98.6269 109.46 99.1191C109.592 98.6269 110.011 97.5581 110.64 97.2205C111.269 96.883 112.999 96.3767 113.785 96.1658L131.674 101.651L146.221 96.1658Z" fill="#2E89B6" fill-opacity="0.7" style="mix-blend-mode:color-dodge"/>
<path d="M135.802 101.018C136.254 101.202 149.956 125.066 149.956 125.066L146.417 126.543L133.64 101.862C134.517 101.371 135.35 100.833 135.802 101.018Z" fill="#92DCEE" fill-opacity="0.21"/>
<path d="M131.477 116.839C131.477 116.206 139.733 129.168 139.733 129.168L138.455 129.704L131.477 118.949V116.839Z" fill="#92DCEE" fill-opacity="0.21"/>
<path d="M120.469 94.0563L140.52 98.2753L141.699 97.8534L125.187 92.5796L120.469 94.0563Z" fill="url(#paint4_linear_215_251)"/>
<path d="M149.759 106.503C149.759 103.634 148.973 98.9082 146.811 96.7986C147.204 96.587 149.478 95.9434 150.152 96.3774C152.118 97.6425 151.856 99.1198 151.922 100.386C151.987 106.855 152.261 120.325 151.922 122.324C151.528 124.644 149.956 125.065 148.383 125.699L131.084 133.082L131.084 130.552C136.392 128.372 147.439 123.843 149.169 123.168C151.332 122.324 149.759 110.089 149.759 106.503Z" fill="#F8F8F8" fill-opacity="0.18" style="mix-blend-mode:overlay"/>
<path d="M149.759 106.503C149.759 103.634 148.973 98.9082 146.811 96.7986C147.204 96.587 149.478 95.9434 150.152 96.3774C152.118 97.6425 151.856 99.1198 151.922 100.386C151.987 106.855 152.261 120.325 151.922 122.324C151.528 124.644 149.956 125.065 148.383 125.699L131.084 133.082L131.084 130.552C136.392 128.372 147.439 123.843 149.169 123.168C151.332 122.324 149.759 110.089 149.759 106.503Z" fill="#F8F8F8" fill-opacity="0.18" style="mix-blend-mode:overlay"/>
<path d="M111.622 107.915C111.622 105.046 112.999 100.385 115.161 98.2752C114.768 98.0636 111.118 96.9973 110.443 97.4314C108.478 98.6964 109.525 100.532 109.459 101.798C109.394 108.267 109.12 121.737 109.459 123.737C109.853 126.056 111.425 126.331 112.998 126.965L131.084 133.082L131.083 130.34C125.776 128.16 115.122 125.53 113.392 124.855C111.23 124.011 111.622 111.502 111.622 107.915Z" fill="#F8F8F8" fill-opacity="0.18" style="mix-blend-mode:overlay"/>
<path d="M111.622 107.915C111.622 105.046 112.999 100.385 115.161 98.2752C114.768 98.0636 111.118 96.9973 110.443 97.4314C108.478 98.6964 109.525 100.532 109.459 101.798C109.394 108.267 109.12 121.737 109.459 123.737C109.853 126.056 111.425 126.331 112.998 126.965L131.084 133.082L131.083 130.34C125.776 128.16 115.122 125.53 113.392 124.855C111.23 124.011 111.622 111.502 111.622 107.915Z" fill="#F8F8F8" fill-opacity="0.18" style="mix-blend-mode:overlay"/>
<path d="M39.2799 23.2636C38.9143 23.1453 38.5246 23.1438 38.1583 23.2592L18.288 29.522C16.3162 30.1435 16.4433 33.1855 18.4591 33.6151L37.8943 37.7568C38.1789 37.8174 38.4725 37.8097 38.754 37.7342L56.5693 32.9547C58.5061 32.4351 58.5715 29.5071 56.6601 28.8885L39.2799 23.2636Z" fill="url(#paint5_linear_215_251)"/>
<path d="M58.7706 32.0122C58.7706 29.7004 56.6538 28.0728 54.6139 28.8162L40.0672 34.1179C38.7915 34.5828 37.9334 35.868 37.9334 37.3138V65.6945L56.784 57.6792C57.9831 57.1693 58.7706 55.9255 58.7706 54.5413V32.0122Z" fill="url(#paint6_linear_215_251)"/>
<path d="M38.1132 37.082C38.1231 35.5457 37.1648 34.196 35.7818 33.7985L20.0723 29.2831C18.0747 28.7089 16.1132 30.3242 16.1132 32.5434V55.8357C16.1132 57.3086 17.0034 58.6115 18.3124 59.0546L37.9298 65.6945L38.1132 37.082Z" fill="url(#paint7_linear_215_251)"/>
<path d="M53.0699 28.778L37.7368 23.2932L38.7197 23.0823L57.198 28.9889C56.2151 28.778 56.6083 30.8875 56.4117 30.0437C56.2398 29.3058 55.2322 29.1999 54.4459 29.1999C53.6596 29.1999 39.8991 34.4737 39.3094 35.1065C38.7197 35.7394 37.814 64.2204 37.9334 58.7331C37.9838 56.4126 37.1471 35.1065 36.3608 34.6846C35.5744 34.2627 22.0106 30.6765 20.2414 30.4656C18.826 30.2968 17.0306 31.2391 16.3098 31.7313C16.4409 31.2391 16.8602 30.1702 17.4893 29.8327C18.1183 29.4952 19.8482 28.9889 20.6345 28.778L38.5231 34.2627L53.0699 28.778Z" fill="white" fill-opacity="0.57" style="mix-blend-mode:screen"/>
<path d="M53.0699 28.778L37.7368 23.2932L38.7197 23.0823L57.198 28.9889C56.2151 28.778 56.6083 30.8875 56.4117 30.0437C56.2398 29.3058 55.2322 29.1999 54.4459 29.1999C53.6596 29.1999 39.8991 34.4737 39.3094 35.1065C38.7197 35.7394 37.814 64.2204 37.9334 58.7331C37.9838 56.4126 37.1471 35.1065 36.3608 34.6846C35.5744 34.2627 22.0106 30.6765 20.2414 30.4656C18.826 30.2968 17.0306 31.2391 16.3098 31.7313C16.4409 31.2391 16.8602 30.1702 17.4893 29.8327C18.1183 29.4952 19.8482 28.9889 20.6345 28.778L38.5231 34.2627L53.0699 28.778Z" fill="#2E89B6" fill-opacity="0.7" style="mix-blend-mode:color-dodge"/>
<path d="M42.6512 33.6298C43.1029 33.8143 56.8048 57.6784 56.8048 57.6784L53.2664 59.1551L40.4889 34.4737C41.3659 33.983 42.1996 33.4454 42.6512 33.6298Z" fill="#92DCEE" fill-opacity="0.21"/>
<path d="M38.3265 49.451C38.3265 48.8179 46.5828 61.7804 46.5828 61.7804L45.3039 62.3166L38.3265 51.5607V49.451Z" fill="#92DCEE" fill-opacity="0.21"/>
<path d="M27.3182 26.6684L47.3691 30.8875L48.5486 30.4656L32.036 25.1918L27.3182 26.6684Z" fill="url(#paint8_linear_215_251)"/>
<path d="M56.6084 39.1153C56.6084 36.2463 55.8223 31.5203 53.6599 29.4108C54.0533 29.1992 56.3272 28.5556 57.0017 28.9896C58.9675 30.2546 58.7054 31.732 58.7709 32.9977C58.8364 39.4669 59.1099 52.9373 58.7709 54.9366C58.3775 57.2564 56.8052 57.6776 55.2325 58.3112L37.9334 65.6945L37.9336 63.1637C43.2412 60.9839 54.2887 56.4555 56.0186 55.7805C58.181 54.9366 56.6084 42.7015 56.6084 39.1153Z" fill="#F8F8F8" fill-opacity="0.18" style="mix-blend-mode:overlay"/>
<path d="M56.6084 39.1153C56.6084 36.2463 55.8223 31.5203 53.6599 29.4108C54.0533 29.1992 56.3272 28.5556 57.0017 28.9896C58.9675 30.2546 58.7054 31.732 58.7709 32.9977C58.8364 39.4669 59.1099 52.9373 58.7709 54.9366C58.3775 57.2564 56.8052 57.6776 55.2325 58.3112L37.9334 65.6945L37.9336 63.1637C43.2412 60.9839 54.2887 56.4555 56.0186 55.7805C58.181 54.9366 56.6084 42.7015 56.6084 39.1153Z" fill="#F8F8F8" fill-opacity="0.18" style="mix-blend-mode:overlay"/>
<path d="M18.4713 40.5275C18.4713 37.6586 19.8482 32.9969 22.0106 30.8874C21.6172 30.6757 17.9671 29.6095 17.2926 30.0436C15.3269 31.3086 16.3742 33.1442 16.3088 34.41C16.2433 40.8791 15.9697 54.3496 16.3088 56.3489C16.7022 58.6687 18.2748 58.9434 19.8475 59.5769L37.9334 65.6945L37.9326 62.9522C32.6251 60.7723 21.9712 58.1423 20.2414 57.4672C18.079 56.6234 18.4713 44.1137 18.4713 40.5275Z" fill="#F8F8F8" fill-opacity="0.18" style="mix-blend-mode:overlay"/>
<path d="M18.4713 40.5275C18.4713 37.6586 19.8482 32.9969 22.0106 30.8874C21.6172 30.6757 17.9671 29.6095 17.2926 30.0436C15.3269 31.3086 16.3742 33.1442 16.3088 34.41C16.2433 40.8791 15.9697 54.3496 16.3088 56.3489C16.7022 58.6687 18.2748 58.9434 19.8475 59.5769L37.9334 65.6945L37.9326 62.9522C32.6251 60.7723 21.9712 58.1423 20.2414 57.4672C18.079 56.6234 18.4713 44.1137 18.4713 40.5275Z" fill="#F8F8F8" fill-opacity="0.18" style="mix-blend-mode:overlay"/>
<path d="M35.7452 90.6514C36.1108 90.5331 36.5005 90.5316 36.8668 90.647L56.7371 96.9098C58.7089 97.5313 58.5818 100.573 56.566 101.003L37.1308 105.145C36.8462 105.205 36.5526 105.198 36.2711 105.122L18.4558 100.343C16.519 99.8229 16.4536 96.8949 18.3649 96.2763L35.7452 90.6514Z" fill="url(#paint9_linear_215_251)"/>
<path d="M16.2545 99.4C16.2545 97.0882 18.3713 95.4606 20.4112 96.2041L34.9579 101.506C36.2336 101.971 37.0917 103.256 37.0917 104.702V133.082L18.2411 125.067C17.042 124.557 16.2545 123.313 16.2545 121.929V99.4Z" fill="url(#paint10_linear_215_251)"/>
<path d="M36.9119 104.47C36.902 102.934 37.8603 101.584 39.2433 101.186L54.9528 96.6709C56.9504 96.0967 58.9119 97.712 58.9119 99.9312V123.223C58.9119 124.696 58.0217 125.999 56.7127 126.442L37.0953 133.082L36.9119 104.47Z" fill="url(#paint11_linear_215_251)"/>
<path d="M21.9552 96.1658L37.2883 90.681L36.3054 90.4701L17.8271 96.3767C18.81 96.1658 18.4168 98.2753 18.6134 97.4315C18.7853 96.6936 19.7929 96.5877 20.5792 96.5877C21.3655 96.5877 35.1259 101.861 35.7157 102.494C36.3054 103.127 37.211 131.608 37.0917 126.121C37.0413 123.8 37.878 102.494 38.6643 102.072C39.4507 101.651 53.0145 98.0643 54.7837 97.8534C56.1991 97.6846 57.9945 98.6269 58.7153 99.1191C58.5842 98.6269 58.1649 97.5581 57.5358 97.2205C56.9068 96.883 55.1769 96.3767 54.3906 96.1658L36.502 101.651L21.9552 96.1658Z" fill="white" fill-opacity="0.57" style="mix-blend-mode:screen"/>
<path d="M21.9552 96.1658L37.2883 90.681L36.3054 90.4701L17.8271 96.3767C18.81 96.1658 18.4168 98.2753 18.6134 97.4315C18.7853 96.6936 19.7929 96.5877 20.5792 96.5877C21.3655 96.5877 35.1259 101.861 35.7157 102.494C36.3054 103.127 37.211 131.608 37.0917 126.121C37.0413 123.8 37.878 102.494 38.6643 102.072C39.4507 101.651 53.0145 98.0643 54.7837 97.8534C56.1991 97.6846 57.9945 98.6269 58.7153 99.1191C58.5842 98.6269 58.1649 97.5581 57.5358 97.2205C56.9068 96.883 55.1769 96.3767 54.3906 96.1658L36.502 101.651L21.9552 96.1658Z" fill="#2E89B6" fill-opacity="0.7" style="mix-blend-mode:color-dodge"/>
<path d="M32.3739 101.018C31.9222 101.202 18.2203 125.066 18.2203 125.066L21.7587 126.543L34.5362 101.862C33.6592 101.371 32.8255 100.833 32.3739 101.018Z" fill="#92DCEE" fill-opacity="0.21"/>
<path d="M36.6986 116.839C36.6986 116.206 28.4423 129.168 28.4423 129.168L29.7212 129.704L36.6986 118.949V116.839Z" fill="#92DCEE" fill-opacity="0.21"/>
<path d="M47.7069 94.0563L27.656 98.2753L26.4765 97.8534L42.9891 92.5796L47.7069 94.0563Z" fill="url(#paint12_linear_215_251)"/>
<path d="M18.4167 106.503C18.4167 103.634 19.2028 98.9082 21.3652 96.7986C20.9718 96.587 18.6979 95.9434 18.0234 96.3774C16.0576 97.6425 16.3197 99.1198 16.2542 100.386C16.1887 106.855 15.9152 120.325 16.2542 122.324C16.6476 124.644 18.2199 125.065 19.7926 125.699L37.0917 133.082L37.0915 130.552C31.7839 128.372 20.7363 123.843 19.0065 123.168C16.8441 122.324 18.4167 110.089 18.4167 106.503Z" fill="#F8F8F8" fill-opacity="0.18" style="mix-blend-mode:overlay"/>
<path d="M18.4167 106.503C18.4167 103.634 19.2028 98.9082 21.3652 96.7986C20.9718 96.587 18.6979 95.9434 18.0234 96.3774C16.0576 97.6425 16.3197 99.1198 16.2542 100.386C16.1887 106.855 15.9152 120.325 16.2542 122.324C16.6476 124.644 18.2199 125.065 19.7926 125.699L37.0917 133.082L37.0915 130.552C31.7839 128.372 20.7363 123.843 19.0065 123.168C16.8441 122.324 18.4167 110.089 18.4167 106.503Z" fill="#F8F8F8" fill-opacity="0.18" style="mix-blend-mode:overlay"/>
<path d="M56.5538 107.915C56.5538 105.046 55.1769 100.385 53.0145 98.2752C53.4079 98.0636 57.058 96.9973 57.7324 97.4314C59.6982 98.6964 58.6509 100.532 58.7163 101.798C58.7818 108.267 59.0554 121.737 58.7163 123.737C58.3229 126.056 56.7503 126.331 55.1776 126.965L37.0917 133.082L37.0925 130.34C42.4 128.16 53.0538 125.53 54.7837 124.855C56.9461 124.011 56.5538 111.502 56.5538 107.915Z" fill="#F8F8F8" fill-opacity="0.18" style="mix-blend-mode:overlay"/>
<path d="M56.5538 107.915C56.5538 105.046 55.1769 100.385 53.0145 98.2752C53.4079 98.0636 57.058 96.9973 57.7324 97.4314C59.6982 98.6964 58.6509 100.532 58.7163 101.798C58.7818 108.267 59.0554 121.737 58.7163 123.737C58.3229 126.056 56.7503 126.331 55.1776 126.965L37.0917 133.082L37.0925 130.34C42.4 128.16 53.0538 125.53 54.7837 124.855C56.9461 124.011 56.5538 111.502 56.5538 107.915Z" fill="#F8F8F8" fill-opacity="0.18" style="mix-blend-mode:overlay"/>
<path d="M128.896 23.2636C129.261 23.1453 129.651 23.1438 130.017 23.2592L149.888 29.522C151.86 30.1435 151.732 33.1855 149.717 33.6151L130.281 37.7568C129.997 37.8174 129.703 37.8097 129.422 37.7342L111.606 32.9547C109.67 32.4351 109.604 29.5071 111.516 28.8885L128.896 23.2636Z" fill="url(#paint13_linear_215_251)"/>
<path d="M109.405 32.0122C109.405 29.7004 111.522 28.0728 113.562 28.8162L128.109 34.1179C129.384 34.5828 130.242 35.868 130.242 37.3138V65.6945L111.392 57.6792C110.193 57.1693 109.405 55.9255 109.405 54.5413V32.0122Z" fill="url(#paint14_linear_215_251)"/>
<path d="M130.063 37.082C130.053 35.5457 131.011 34.196 132.394 33.7985L148.104 29.2831C150.101 28.7089 152.063 30.3242 152.063 32.5434V55.8357C152.063 57.3086 151.172 58.6115 149.863 59.0546L130.246 65.6945L130.063 37.082Z" fill="url(#paint15_linear_215_251)"/>
<path d="M115.106 28.778L130.439 23.2932L129.456 23.0823L110.978 28.9889C111.961 28.778 111.568 30.8875 111.764 30.0437C111.936 29.3058 112.944 29.1999 113.73 29.1999C114.516 29.1999 128.277 34.4737 128.866 35.1065C129.456 35.7394 130.362 64.2204 130.242 58.7331C130.192 56.4126 131.029 35.1065 131.815 34.6846C132.601 34.2627 146.165 30.6765 147.934 30.4656C149.35 30.2968 151.145 31.2391 151.866 31.7313C151.735 31.2391 151.316 30.1702 150.687 29.8327C150.057 29.4952 148.328 28.9889 147.541 28.778L129.653 34.2627L115.106 28.778Z" fill="white" fill-opacity="0.57" style="mix-blend-mode:screen"/>
<path d="M115.106 28.778L130.439 23.2932L129.456 23.0823L110.978 28.9889C111.961 28.778 111.568 30.8875 111.764 30.0437C111.936 29.3058 112.944 29.1999 113.73 29.1999C114.516 29.1999 128.277 34.4737 128.866 35.1065C129.456 35.7394 130.362 64.2204 130.242 58.7331C130.192 56.4126 131.029 35.1065 131.815 34.6846C132.601 34.2627 146.165 30.6765 147.934 30.4656C149.35 30.2968 151.145 31.2391 151.866 31.7313C151.735 31.2391 151.316 30.1702 150.687 29.8327C150.057 29.4952 148.328 28.9889 147.541 28.778L129.653 34.2627L115.106 28.778Z" fill="#2E89B6" fill-opacity="0.7" style="mix-blend-mode:color-dodge"/>
<path d="M125.525 33.6298C125.073 33.8143 111.371 57.6784 111.371 57.6784L114.909 59.1551L127.687 34.4737C126.81 33.983 125.976 33.4454 125.525 33.6298Z" fill="#92DCEE" fill-opacity="0.21"/>
<path d="M129.849 49.451C129.849 48.8179 121.593 61.7804 121.593 61.7804L122.872 62.3166L129.849 51.5607V49.451Z" fill="#92DCEE" fill-opacity="0.21"/>
<path d="M140.858 26.6684L120.807 30.8875L119.627 30.4656L136.14 25.1918L140.858 26.6684Z" fill="url(#paint16_linear_215_251)"/>
<path d="M111.567 39.1153C111.567 36.2463 112.354 31.5203 114.516 29.4108C114.123 29.1992 111.849 28.5556 111.174 28.9896C109.208 30.2546 109.47 31.732 109.405 32.9977C109.339 39.4669 109.066 52.9373 109.405 54.9366C109.798 57.2564 111.371 57.6776 112.943 58.3112L130.242 65.6945L130.242 63.1637C124.935 60.9839 113.887 56.4555 112.157 55.7805C109.995 54.9366 111.567 42.7015 111.567 39.1153Z" fill="#F8F8F8" fill-opacity="0.18" style="mix-blend-mode:overlay"/>
<path d="M111.567 39.1153C111.567 36.2463 112.354 31.5203 114.516 29.4108C114.123 29.1992 111.849 28.5556 111.174 28.9896C109.208 30.2546 109.47 31.732 109.405 32.9977C109.339 39.4669 109.066 52.9373 109.405 54.9366C109.798 57.2564 111.371 57.6776 112.943 58.3112L130.242 65.6945L130.242 63.1637C124.935 60.9839 113.887 56.4555 112.157 55.7805C109.995 54.9366 111.567 42.7015 111.567 39.1153Z" fill="#F8F8F8" fill-opacity="0.18" style="mix-blend-mode:overlay"/>
<path d="M149.705 40.5275C149.705 37.6586 148.328 32.9969 146.165 30.8874C146.559 30.6757 150.209 29.6095 150.883 30.0436C152.849 31.3086 151.802 33.1442 151.867 34.41C151.933 40.8791 152.206 54.3496 151.867 56.3489C151.474 58.6687 149.901 58.9434 148.328 59.5769L130.242 65.6945L130.243 62.9522C135.551 60.7723 146.205 58.1423 147.934 57.4672C150.097 56.6234 149.705 44.1137 149.705 40.5275Z" fill="#F8F8F8" fill-opacity="0.18" style="mix-blend-mode:overlay"/>
<path d="M149.705 40.5275C149.705 37.6586 148.328 32.9969 146.165 30.8874C146.559 30.6757 150.209 29.6095 150.883 30.0436C152.849 31.3086 151.802 33.1442 151.867 34.41C151.933 40.8791 152.206 54.3496 151.867 56.3489C151.474 58.6687 149.901 58.9434 148.328 59.5769L130.242 65.6945L130.243 62.9522C135.551 60.7723 146.205 58.1423 147.934 57.4672C150.097 56.6234 149.705 44.1137 149.705 40.5275Z" fill="#F8F8F8" fill-opacity="0.18" style="mix-blend-mode:overlay"/>
<path d="M80.8144 57.2652C81.1812 57.1458 81.5723 57.1443 81.9399 57.2608L101.88 63.5806C103.859 64.2077 103.731 67.2775 101.708 67.711L82.2048 71.8903C81.9192 71.9515 81.6246 71.9437 81.3421 71.8675L63.4641 67.0446C61.5205 66.5202 61.4549 63.5656 63.373 62.9414L80.8144 57.2652Z" fill="url(#paint17_linear_215_251)"/>
<path d="M61.2551 66.0934C61.2551 63.7606 63.3793 62.1182 65.4264 62.8684L80.0243 68.2183C81.3045 68.6875 82.1656 69.9844 82.1656 71.4433V100.082L63.2487 91.9941C62.0453 91.4796 61.2551 90.2244 61.2551 88.8277V66.0934Z" fill="url(#paint18_linear_215_251)"/>
<path d="M81.9851 71.2095C81.9752 69.6591 82.9369 68.2972 84.3247 67.8961L100.09 63.3395C102.094 62.7601 104.062 64.3901 104.062 66.6295V90.1338C104.062 91.6201 103.169 92.9348 101.856 93.382L82.1692 100.082L81.9851 71.2095Z" fill="url(#paint19_linear_215_251)"/>
<path d="M66.9759 62.8298L82.3629 57.2951L81.3765 57.0823L62.8332 63.0427C63.8196 62.8298 63.425 64.9585 63.6223 64.107C63.7948 63.3624 64.8059 63.2555 65.595 63.2555C66.3841 63.2555 80.1929 68.5773 80.7847 69.2159C81.3765 69.8546 82.2853 98.5948 82.1656 93.0575C82.1149 90.7159 82.9547 69.2159 83.7437 68.7902C84.5328 68.3645 98.1444 64.7456 99.9198 64.5328C101.34 64.3625 103.142 65.3133 103.865 65.81C103.734 65.3133 103.313 64.2347 102.682 63.8942C102.05 63.5536 100.314 63.0427 99.5253 62.8298L81.5738 68.3645L66.9759 62.8298Z" fill="white" fill-opacity="0.57" style="mix-blend-mode:screen"/>
<path d="M66.9759 62.8298L82.3629 57.2951L81.3765 57.0823L62.8332 63.0427C63.8196 62.8298 63.425 64.9585 63.6223 64.107C63.7948 63.3624 64.8059 63.2555 65.595 63.2555C66.3841 63.2555 80.1929 68.5773 80.7847 69.2159C81.3765 69.8546 82.2853 98.5948 82.1656 93.0575C82.1149 90.7159 82.9547 69.2159 83.7437 68.7902C84.5328 68.3645 98.1444 64.7456 99.9198 64.5328C101.34 64.3625 103.142 65.3133 103.865 65.81C103.734 65.3133 103.313 64.2347 102.682 63.8942C102.05 63.5536 100.314 63.0427 99.5253 62.8298L81.5738 68.3645L66.9759 62.8298Z" fill="#2E89B6" fill-opacity="0.7" style="mix-blend-mode:color-dodge"/>
<path d="M77.4311 67.7258C76.9778 67.9119 63.2277 91.9933 63.2277 91.9933L66.7786 93.4834L79.6011 68.5774C78.721 68.0822 77.8844 67.5397 77.4311 67.7258Z" fill="#92DCEE" fill-opacity="0.21"/>
<path d="M81.771 83.691C81.771 83.0522 73.4857 96.1326 73.4857 96.1326L74.7692 96.6736L81.771 85.8199V83.691Z" fill="#92DCEE" fill-opacity="0.21"/>
<path d="M92.8181 60.7011L72.6967 64.9585L71.5131 64.5328L88.0837 59.211L92.8181 60.7011Z" fill="url(#paint20_linear_215_251)"/>
<path d="M63.4249 73.2612C63.4249 70.3662 64.2138 65.5971 66.3837 63.4684C65.989 63.2549 63.707 62.6054 63.0302 63.0434C61.0575 64.3199 61.3205 65.8107 61.2548 67.0879C61.1891 73.616 60.9146 87.209 61.2548 89.2266C61.6496 91.5674 63.2274 91.9925 64.8056 92.6318L82.1656 100.082L82.1653 97.5285C76.8391 95.3289 65.7527 90.7592 64.0167 90.078C61.8468 89.2266 63.4249 76.88 63.4249 73.2612Z" fill="#F8F8F8" fill-opacity="0.18" style="mix-blend-mode:overlay"/>
<path d="M63.4249 73.2612C63.4249 70.3662 64.2138 65.5971 66.3837 63.4684C65.989 63.2549 63.707 62.6054 63.0302 63.0434C61.0575 64.3199 61.3205 65.8107 61.2548 67.0879C61.1891 73.616 60.9146 87.209 61.2548 89.2266C61.6496 91.5674 63.2274 91.9925 64.8056 92.6318L82.1656 100.082L82.1653 97.5285C76.8391 95.3289 65.7527 90.7592 64.0167 90.078C61.8468 89.2266 63.4249 76.88 63.4249 73.2612Z" fill="#F8F8F8" fill-opacity="0.18" style="mix-blend-mode:overlay"/>
<path d="M101.696 74.6863C101.696 71.7913 100.314 67.0871 98.1444 64.9584C98.5391 64.7449 102.202 63.6689 102.879 64.1069C104.852 65.3834 103.801 67.2358 103.866 68.513C103.932 75.0411 104.206 88.6341 103.866 90.6517C103.471 92.9925 101.893 93.2698 100.315 93.9091L82.1656 100.082L82.1663 97.315C87.4925 95.1154 98.1838 92.4614 99.9198 91.7802C102.09 90.9287 101.696 78.3051 101.696 74.6863Z" fill="#F8F8F8" fill-opacity="0.18" style="mix-blend-mode:overlay"/>
<path d="M101.696 74.6863C101.696 71.7913 100.314 67.0871 98.1444 64.9584C98.5391 64.7449 102.202 63.6689 102.879 64.1069C104.852 65.3834 103.801 67.2358 103.866 68.513C103.932 75.0411 104.206 88.6341 103.866 90.6517C103.471 92.9925 101.893 93.2698 100.315 93.9091L82.1656 100.082L82.1663 97.315C87.4925 95.1154 98.1838 92.4614 99.9198 91.7802C102.09 90.9287 101.696 78.3051 101.696 74.6863Z" fill="#F8F8F8" fill-opacity="0.18" style="mix-blend-mode:overlay"/>
<defs>
<linearGradient id="paint0_linear_215_251" x1="86.6547" y1="156.548" x2="81.8375" y2="0.0210431" gradientUnits="userSpaceOnUse">
<stop stop-color="#78C0FF"/>
<stop offset="1" stop-color="#DFF0FF"/>
</linearGradient>
<linearGradient id="paint1_linear_215_251" x1="152.088" y1="78.0823" x2="16.0879" y2="78.0823" gradientUnits="userSpaceOnUse">
<stop stop-color="#DEF5FF"/>
<stop offset="1" stop-color="#3CB8EE"/>
</linearGradient>
<linearGradient id="paint2_linear_215_251" x1="84.0879" y1="23.0823" x2="84.0879" y2="133.082" gradientUnits="userSpaceOnUse">
<stop stop-color="#70E0FF"/>
<stop offset="1" stop-color="#02A5D2"/>
</linearGradient>
<linearGradient id="paint3_linear_215_251" x1="84.0879" y1="23.0823" x2="84.0879" y2="133.082" gradientUnits="userSpaceOnUse">
<stop stop-color="#2D96C5"/>
<stop offset="1" stop-color="#1D7EAA"/>
</linearGradient>
<linearGradient id="paint4_linear_215_251" x1="84.0879" y1="23.0823" x2="84.0879" y2="133.082" gradientUnits="userSpaceOnUse">
<stop stop-color="#F6F6F6"/>
<stop offset="1" stop-color="#3AC7FF"/>
</linearGradient>
<linearGradient id="paint5_linear_215_251" x1="152.088" y1="78.0823" x2="16.0879" y2="78.0823" gradientUnits="userSpaceOnUse">
<stop stop-color="#DEF5FF"/>
<stop offset="1" stop-color="#3CB8EE"/>
</linearGradient>
<linearGradient id="paint6_linear_215_251" x1="84.0879" y1="23.0823" x2="84.0879" y2="133.082" gradientUnits="userSpaceOnUse">
<stop stop-color="#70E0FF"/>
<stop offset="1" stop-color="#02A5D2"/>
</linearGradient>
<linearGradient id="paint7_linear_215_251" x1="84.0879" y1="23.0823" x2="84.0879" y2="133.082" gradientUnits="userSpaceOnUse">
<stop stop-color="#2D96C5"/>
<stop offset="1" stop-color="#1D7EAA"/>
</linearGradient>
<linearGradient id="paint8_linear_215_251" x1="84.0879" y1="23.0823" x2="84.0879" y2="133.082" gradientUnits="userSpaceOnUse">
<stop stop-color="#F6F6F6"/>
<stop offset="1" stop-color="#3AC7FF"/>
</linearGradient>
<linearGradient id="paint9_linear_215_251" x1="16.0879" y1="78.0823" x2="152.088" y2="78.0823" gradientUnits="userSpaceOnUse">
<stop stop-color="#DEF5FF"/>
<stop offset="1" stop-color="#3CB8EE"/>
</linearGradient>
<linearGradient id="paint10_linear_215_251" x1="84.0879" y1="23.0823" x2="84.0879" y2="133.082" gradientUnits="userSpaceOnUse">
<stop stop-color="#70E0FF"/>
<stop offset="1" stop-color="#02A5D2"/>
</linearGradient>
<linearGradient id="paint11_linear_215_251" x1="84.0879" y1="23.0823" x2="84.0879" y2="133.082" gradientUnits="userSpaceOnUse">
<stop stop-color="#2D96C5"/>
<stop offset="1" stop-color="#1D7EAA"/>
</linearGradient>
<linearGradient id="paint12_linear_215_251" x1="84.0879" y1="23.0823" x2="84.0879" y2="133.082" gradientUnits="userSpaceOnUse">
<stop stop-color="#F6F6F6"/>
<stop offset="1" stop-color="#3AC7FF"/>
</linearGradient>
<linearGradient id="paint13_linear_215_251" x1="16.0879" y1="78.0823" x2="152.088" y2="78.0823" gradientUnits="userSpaceOnUse">
<stop stop-color="#DEF5FF"/>
<stop offset="1" stop-color="#3CB8EE"/>
</linearGradient>
<linearGradient id="paint14_linear_215_251" x1="84.0879" y1="23.0823" x2="84.0879" y2="133.082" gradientUnits="userSpaceOnUse">
<stop stop-color="#70E0FF"/>
<stop offset="1" stop-color="#02A5D2"/>
</linearGradient>
<linearGradient id="paint15_linear_215_251" x1="84.0879" y1="23.0823" x2="84.0879" y2="133.082" gradientUnits="userSpaceOnUse">
<stop stop-color="#2D96C5"/>
<stop offset="1" stop-color="#1D7EAA"/>
</linearGradient>
<linearGradient id="paint16_linear_215_251" x1="84.0879" y1="23.0823" x2="84.0879" y2="133.082" gradientUnits="userSpaceOnUse">
<stop stop-color="#F6F6F6"/>
<stop offset="1" stop-color="#3AC7FF"/>
</linearGradient>
<linearGradient id="paint17_linear_215_251" x1="61.0879" y1="78.5823" x2="104.088" y2="78.5823" gradientUnits="userSpaceOnUse">
<stop stop-color="#DEF5FF"/>
<stop offset="1" stop-color="#3CB8EE"/>
</linearGradient>
<linearGradient id="paint18_linear_215_251" x1="82.5879" y1="57.0823" x2="82.5879" y2="100.082" gradientUnits="userSpaceOnUse">
<stop stop-color="#70E0FF"/>
<stop offset="1" stop-color="#02A5D2"/>
</linearGradient>
<linearGradient id="paint19_linear_215_251" x1="82.5879" y1="57.0823" x2="82.5879" y2="100.082" gradientUnits="userSpaceOnUse">
<stop stop-color="#2D96C5"/>
<stop offset="1" stop-color="#1D7EAA"/>
</linearGradient>
<linearGradient id="paint20_linear_215_251" x1="82.5879" y1="57.0823" x2="82.5879" y2="100.082" gradientUnits="userSpaceOnUse">
<stop stop-color="#F6F6F6"/>
<stop offset="1" stop-color="#3AC7FF"/>
</linearGradient>
</defs>
</svg>
