<svg width="170" height="157" viewBox="0 0 170 157" fill="none" xmlns="http://www.w3.org/2000/svg">
<rect x="3" y="3" width="163.176" height="150.548" rx="9" fill="url(#paint0_linear_215_236)" stroke="#1A74BE" stroke-width="6"/>
<path d="M34.9777 90.4312C35.3459 90.3107 35.7385 90.3092 36.1075 90.4267L56.1238 96.8034C58.1102 97.4362 57.9821 100.534 55.9515 100.971L36.3734 105.188C36.0867 105.25 35.7909 105.242 35.5074 105.165L17.5611 100.299C15.6101 99.7695 15.5442 96.7882 17.4696 96.1584L34.9777 90.4312Z" fill="url(#paint1_linear_215_236)"/>
<path d="M15.3436 99.3388C15.3436 96.985 17.476 95.3279 19.5309 96.0848L34.1846 101.483C35.4697 101.956 36.3341 103.265 36.3341 104.737V133.634L17.3448 125.473C16.1369 124.953 15.3436 123.687 15.3436 122.278V99.3388Z" fill="url(#paint2_linear_215_236)"/>
<path d="M36.1529 104.501C36.143 102.937 37.1083 101.562 38.5014 101.158L54.3265 96.5601C56.3387 95.9755 58.3146 97.6202 58.3146 99.8797V123.596C58.3146 125.095 57.418 126.422 56.0993 126.873L36.3377 133.634L36.1529 104.501Z" fill="url(#paint3_linear_215_236)"/>
<path d="M21.0863 96.0458L36.5321 90.4614L35.542 90.2466L16.9278 96.2606C17.9179 96.0458 17.5218 98.1937 17.7199 97.3346C17.893 96.5833 18.908 96.4754 19.7001 96.4754C20.4922 96.4754 34.3538 101.845 34.9479 102.489C35.542 103.134 36.4543 132.133 36.3341 126.546C36.2832 124.183 37.1261 102.489 37.9182 102.06C38.7103 101.63 52.3739 97.9789 54.1561 97.7641C55.5819 97.5923 57.3905 98.5517 58.1166 99.0529C57.9846 98.5517 57.5621 97.4634 56.9285 97.1198C56.2948 96.7761 54.5522 96.2606 53.7601 96.0458L35.74 101.63L21.0863 96.0458Z" fill="white" fill-opacity="0.57" style="mix-blend-mode:screen"/>
<path d="M21.0863 96.0458L36.5321 90.4614L35.542 90.2466L16.9278 96.2606C17.9179 96.0458 17.5218 98.1937 17.7199 97.3346C17.893 96.5833 18.908 96.4754 19.7001 96.4754C20.4922 96.4754 34.3538 101.845 34.9479 102.489C35.542 103.134 36.4543 132.133 36.3341 126.546C36.2832 124.183 37.1261 102.489 37.9182 102.06C38.7103 101.63 52.3739 97.9789 54.1561 97.7641C55.5819 97.5923 57.3905 98.5517 58.1166 99.0529C57.9846 98.5517 57.5621 97.4634 56.9285 97.1198C56.2948 96.7761 54.5522 96.2606 53.7601 96.0458L35.74 101.63L21.0863 96.0458Z" fill="#2E89B6" fill-opacity="0.7" style="mix-blend-mode:color-dodge"/>
<path d="M31.5815 100.986C31.1265 101.174 17.3238 125.472 17.3238 125.472L20.8882 126.975L33.7597 101.845C32.8763 101.346 32.0365 100.798 31.5815 100.986Z" fill="#92DCEE" fill-opacity="0.21"/>
<path d="M35.938 117.095C35.938 116.45 27.621 129.648 27.621 129.648L28.9094 130.194L35.938 119.243V117.095Z" fill="#92DCEE" fill-opacity="0.21"/>
<path d="M47.0273 93.898L26.8289 98.1937L25.6408 97.7641L42.2748 92.3945L47.0273 93.898Z" fill="url(#paint4_linear_215_236)"/>
<path d="M17.5217 106.571C17.5217 103.65 18.3136 98.8381 20.4919 96.6902C20.0956 96.4747 17.8049 95.8194 17.1255 96.2614C15.1453 97.5494 15.4093 99.0536 15.3433 100.342C15.2773 106.929 15.0018 120.644 15.3433 122.68C15.7396 125.042 17.3235 125.471 18.9077 126.116L36.3341 133.634L36.3338 131.057C30.9872 128.837 19.8584 124.227 18.1158 123.539C15.9376 122.68 17.5217 110.222 17.5217 106.571Z" fill="#F8F8F8" fill-opacity="0.18" style="mix-blend-mode:overlay"/>
<path d="M17.5217 106.571C17.5217 103.65 18.3136 98.8381 20.4919 96.6902C20.0956 96.4747 17.8049 95.8194 17.1255 96.2614C15.1453 97.5494 15.4093 99.0536 15.3433 100.342C15.2773 106.929 15.0018 120.644 15.3433 122.68C15.7396 125.042 17.3235 125.471 18.9077 126.116L36.3341 133.634L36.3338 131.057C30.9872 128.837 19.8584 124.227 18.1158 123.539C15.9376 122.68 17.5217 110.222 17.5217 106.571Z" fill="#F8F8F8" fill-opacity="0.18" style="mix-blend-mode:overlay"/>
<path d="M55.9392 108.009C55.9392 105.088 54.5522 100.341 52.3739 98.1936C52.7702 97.9781 56.4471 96.8925 57.1265 97.3345C59.1068 98.6225 58.0517 100.492 58.1176 101.78C58.1837 108.367 58.4592 122.082 58.1176 124.118C57.7214 126.48 56.1372 126.76 54.5529 127.405L36.3341 133.634L36.3348 130.841C41.6814 128.622 52.4135 125.944 54.1561 125.257C56.3344 124.398 55.9392 111.66 55.9392 108.009Z" fill="#F8F8F8" fill-opacity="0.18" style="mix-blend-mode:overlay"/>
<path d="M55.9392 108.009C55.9392 105.088 54.5522 100.341 52.3739 98.1936C52.7702 97.9781 56.4471 96.8925 57.1265 97.3345C59.1068 98.6225 58.0517 100.492 58.1176 101.78C58.1837 108.367 58.4592 122.082 58.1176 124.118C57.7214 126.48 56.1372 126.76 54.5529 127.405L36.3341 133.634L36.3348 130.841C41.6814 128.622 52.4135 125.944 54.1561 125.257C56.3344 124.398 55.9392 111.66 55.9392 108.009Z" fill="#F8F8F8" fill-opacity="0.18" style="mix-blend-mode:overlay"/>
<path d="M81.8955 57.1337C82.2637 57.0132 82.6563 57.0117 83.0253 57.1292L103.042 63.5059C105.028 64.1387 104.9 67.236 102.869 67.6734L83.2912 71.8904C83.0045 71.9521 82.7088 71.9443 82.4252 71.8674L64.4789 67.001C62.5279 66.472 62.462 63.4907 64.3874 62.8609L81.8955 57.1337Z" fill="url(#paint5_linear_215_236)"/>
<path d="M62.2614 66.0413C62.2614 63.6875 64.3938 62.0303 66.4487 62.7873L81.1024 68.1853C82.3875 68.6587 83.2519 69.9673 83.2519 71.4394V100.336L64.2626 92.1751C63.0547 91.6559 62.2614 90.3895 62.2614 88.9801V66.0413Z" fill="url(#paint6_linear_215_236)"/>
<path d="M83.0707 71.2034C83.0608 69.6391 84.0261 68.2649 85.4192 67.8602L101.244 63.2626C103.257 62.678 105.232 64.3227 105.232 66.5822V90.298C105.232 91.7977 104.336 93.1243 103.017 93.5754L83.2555 100.336L83.0707 71.2034Z" fill="url(#paint7_linear_215_236)"/>
<path d="M68.0041 62.7483L83.4499 57.1639L82.4598 56.9491L63.8456 62.9631C64.8357 62.7483 64.4397 64.8962 64.6377 64.0371C64.8108 63.2858 65.8258 63.1779 66.6179 63.1779C67.41 63.1779 81.2716 68.5476 81.8657 69.1919C82.4598 69.8363 83.3721 98.8351 83.2519 93.2481C83.201 90.8854 84.044 69.1919 84.836 68.7624C85.6281 68.3328 99.2917 64.6814 101.074 64.4666C102.5 64.2948 104.308 65.2542 105.034 65.7553C104.902 65.2542 104.48 64.1659 103.846 63.8223C103.213 63.4786 101.47 62.9631 100.678 62.7483L82.6578 68.3328L68.0041 62.7483Z" fill="white" fill-opacity="0.57" style="mix-blend-mode:screen"/>
<path d="M68.0041 62.7483L83.4499 57.1639L82.4598 56.9491L63.8456 62.9631C64.8357 62.7483 64.4397 64.8962 64.6377 64.0371C64.8108 63.2858 65.8258 63.1779 66.6179 63.1779C67.41 63.1779 81.2716 68.5476 81.8657 69.1919C82.4598 69.8363 83.3721 98.8351 83.2519 93.2481C83.201 90.8854 84.044 69.1919 84.836 68.7624C85.6281 68.3328 99.2917 64.6814 101.074 64.4666C102.5 64.2948 104.308 65.2542 105.034 65.7553C104.902 65.2542 104.48 64.1659 103.846 63.8223C103.213 63.4786 101.47 62.9631 100.678 62.7483L82.6578 68.3328L68.0041 62.7483Z" fill="#2E89B6" fill-opacity="0.7" style="mix-blend-mode:color-dodge"/>
<path d="M78.4993 67.6884C78.0443 67.8762 64.2416 92.1742 64.2416 92.1742L67.806 93.6777L80.6776 68.5477C79.7941 68.048 78.9543 67.5007 78.4993 67.6884Z" fill="#92DCEE" fill-opacity="0.21"/>
<path d="M82.8558 83.7972C82.8558 83.1527 74.5388 96.3508 74.5388 96.3508L75.8272 96.8967L82.8558 85.9453V83.7972Z" fill="#92DCEE" fill-opacity="0.21"/>
<path d="M93.9451 60.6005L73.7467 64.8962L72.5586 64.4666L89.1926 59.097L93.9451 60.6005Z" fill="url(#paint8_linear_215_236)"/>
<path d="M64.4395 73.2736C64.4395 70.3525 65.2314 65.5406 67.4097 63.3927C67.0134 63.1772 64.7227 62.5219 64.0433 62.9638C62.0631 64.2518 62.3271 65.7561 62.2612 67.0448C62.1951 73.6316 61.9196 87.347 62.2612 89.3826C62.6574 91.7446 64.2413 92.1734 65.8255 92.8185L83.2519 100.336L83.2516 97.7593C77.905 95.5398 66.7762 90.9291 65.0336 90.2418C62.8554 89.3826 64.4395 76.925 64.4395 73.2736Z" fill="#F8F8F8" fill-opacity="0.18" style="mix-blend-mode:overlay"/>
<path d="M64.4395 73.2736C64.4395 70.3525 65.2314 65.5406 67.4097 63.3927C67.0134 63.1772 64.7227 62.5219 64.0433 62.9638C62.0631 64.2518 62.3271 65.7561 62.2612 67.0448C62.1951 73.6316 61.9196 87.347 62.2612 89.3826C62.6574 91.7446 64.2413 92.1734 65.8255 92.8185L83.2519 100.336L83.2516 97.7593C77.905 95.5398 66.7762 90.9291 65.0336 90.2418C62.8554 89.3826 64.4395 76.925 64.4395 73.2736Z" fill="#F8F8F8" fill-opacity="0.18" style="mix-blend-mode:overlay"/>
<path d="M102.857 74.7115C102.857 71.7904 101.47 67.044 99.2917 64.8961C99.688 64.6806 103.365 63.595 104.044 64.0369C106.025 65.325 104.97 67.194 105.035 68.4827C105.101 75.0695 105.377 88.7849 105.035 90.8206C104.639 93.1825 103.055 93.4622 101.471 94.1073L83.2519 100.336L83.2526 97.5439C88.5992 95.3244 99.3313 92.6466 101.074 91.9592C103.252 91.1001 102.857 78.3629 102.857 74.7115Z" fill="#F8F8F8" fill-opacity="0.18" style="mix-blend-mode:overlay"/>
<path d="M102.857 74.7115C102.857 71.7904 101.47 67.044 99.2917 64.8961C99.688 64.6806 103.365 63.595 104.044 64.0369C106.025 65.325 104.97 67.194 105.035 68.4827C105.101 75.0695 105.377 88.7849 105.035 90.8206C104.639 93.1825 103.055 93.4622 101.471 94.1073L83.2519 100.336L83.2526 97.5439C88.5992 95.3244 99.3313 92.6466 101.074 91.9592C103.252 91.1001 102.857 78.3629 102.857 74.7115Z" fill="#F8F8F8" fill-opacity="0.18" style="mix-blend-mode:overlay"/>
<path d="M128.813 21.8181C129.181 21.6977 129.574 21.6961 129.943 21.8137L149.959 28.1903C151.946 28.8231 151.818 31.9205 149.787 32.3579L130.209 36.5749C129.922 36.6366 129.627 36.6287 129.343 36.5519L111.397 31.6855C109.446 31.1564 109.38 28.1752 111.305 27.5453L128.813 21.8181Z" fill="url(#paint9_linear_215_236)"/>
<path d="M109.179 30.7258C109.179 28.372 111.312 26.7148 113.366 27.4718L128.02 32.8698C129.305 33.3432 130.17 34.6518 130.17 36.1238V65.0205L111.18 56.8595C109.972 56.3404 109.179 55.0739 109.179 53.6646V30.7258Z" fill="url(#paint10_linear_215_236)"/>
<path d="M129.988 35.8879C129.979 34.3236 130.944 32.9494 132.337 32.5446L148.162 27.9471C150.174 27.3625 152.15 29.0071 152.15 31.2666V54.9824C152.15 56.4822 151.254 57.8088 149.935 58.2599L130.173 65.0205L129.988 35.8879Z" fill="url(#paint11_linear_215_236)"/>
<path d="M114.922 27.4328L130.368 21.8483L129.378 21.6335L110.763 27.6476C111.754 27.4328 111.357 29.5807 111.555 28.7215C111.729 27.9702 112.744 27.8624 113.536 27.8624C114.328 27.8624 128.189 33.232 128.784 33.8764C129.378 34.5208 130.29 63.5196 130.17 57.9325C130.119 55.5699 130.962 33.8764 131.754 33.4468C132.546 33.0172 146.21 29.3659 147.992 29.1511C149.418 28.9793 151.226 29.9386 151.952 30.4398C151.82 29.9386 151.398 28.8504 150.764 28.5067C150.13 28.1631 148.388 27.6476 147.596 27.4328L129.576 33.0172L114.922 27.4328Z" fill="white" fill-opacity="0.57" style="mix-blend-mode:screen"/>
<path d="M114.922 27.4328L130.368 21.8483L129.378 21.6335L110.763 27.6476C111.754 27.4328 111.357 29.5807 111.555 28.7215C111.729 27.9702 112.744 27.8624 113.536 27.8624C114.328 27.8624 128.189 33.232 128.784 33.8764C129.378 34.5208 130.29 63.5196 130.17 57.9325C130.119 55.5699 130.962 33.8764 131.754 33.4468C132.546 33.0172 146.21 29.3659 147.992 29.1511C149.418 28.9793 151.226 29.9386 151.952 30.4398C151.82 29.9386 151.398 28.8504 150.764 28.5067C150.13 28.1631 148.388 27.6476 147.596 27.4328L129.576 33.0172L114.922 27.4328Z" fill="#2E89B6" fill-opacity="0.7" style="mix-blend-mode:color-dodge"/>
<path d="M125.417 32.3729C124.962 32.5607 111.159 56.8587 111.159 56.8587L114.724 58.3622L127.595 33.2321C126.712 32.7325 125.872 32.1851 125.417 32.3729Z" fill="#92DCEE" fill-opacity="0.21"/>
<path d="M129.774 48.4817C129.774 47.8371 121.457 61.0353 121.457 61.0353L122.745 61.5812L129.774 50.6298V48.4817Z" fill="#92DCEE" fill-opacity="0.21"/>
<path d="M140.863 25.2849L120.665 29.5807L119.476 29.1511L136.11 23.7814L140.863 25.2849Z" fill="url(#paint12_linear_215_236)"/>
<path d="M111.357 37.9581C111.357 35.037 112.149 30.225 114.327 28.0772C113.931 27.8617 111.641 27.2064 110.961 27.6483C108.981 28.9363 109.245 30.4405 109.179 31.7292C109.113 38.316 108.837 52.0314 109.179 54.0671C109.575 56.429 111.159 56.8579 112.743 57.503L130.17 65.0205L130.169 62.4438C124.823 60.2243 113.694 55.6135 111.951 54.9262C109.773 54.0671 111.357 41.6094 111.357 37.9581Z" fill="#F8F8F8" fill-opacity="0.18" style="mix-blend-mode:overlay"/>
<path d="M111.357 37.9581C111.357 35.037 112.149 30.225 114.327 28.0772C113.931 27.8617 111.641 27.2064 110.961 27.6483C108.981 28.9363 109.245 30.4405 109.179 31.7292C109.113 38.316 108.837 52.0314 109.179 54.0671C109.575 56.429 111.159 56.8579 112.743 57.503L130.17 65.0205L130.169 62.4438C124.823 60.2243 113.694 55.6135 111.951 54.9262C109.773 54.0671 111.357 41.6094 111.357 37.9581Z" fill="#F8F8F8" fill-opacity="0.18" style="mix-blend-mode:overlay"/>
<path d="M149.775 39.396C149.775 36.4749 148.388 31.7284 146.21 29.5806C146.606 29.3651 150.283 28.2795 150.962 28.7214C152.942 30.0094 151.887 31.8785 151.953 33.1672C152.019 39.754 152.295 53.4694 151.953 55.505C151.557 57.867 149.973 58.1467 148.389 58.7917L130.17 65.0205L130.17 62.2283C135.517 60.0089 146.249 57.331 147.992 56.6437C150.17 55.7846 149.775 43.0474 149.775 39.396Z" fill="#F8F8F8" fill-opacity="0.18" style="mix-blend-mode:overlay"/>
<path d="M149.775 39.396C149.775 36.4749 148.388 31.7284 146.21 29.5806C146.606 29.3651 150.283 28.2795 150.962 28.7214C152.942 30.0094 151.887 31.8785 151.953 33.1672C152.019 39.754 152.295 53.4694 151.953 55.505C151.557 57.867 149.973 58.1467 148.389 58.7917L130.17 65.0205L130.17 62.2283C135.517 60.0089 146.249 57.331 147.992 56.6437C150.17 55.7846 149.775 43.0474 149.775 39.396Z" fill="#F8F8F8" fill-opacity="0.18" style="mix-blend-mode:overlay"/>
<defs>
<linearGradient id="paint0_linear_215_236" x1="86.6547" y1="156.548" x2="81.8375" y2="0.0210431" gradientUnits="userSpaceOnUse">
<stop stop-color="#78C0FF"/>
<stop offset="1" stop-color="#DFF0FF"/>
</linearGradient>
<linearGradient id="paint1_linear_215_236" x1="15.1758" y1="77.6335" x2="152.176" y2="77.6335" gradientUnits="userSpaceOnUse">
<stop stop-color="#DEF5FF"/>
<stop offset="1" stop-color="#3CB8EE"/>
</linearGradient>
<linearGradient id="paint2_linear_215_236" x1="83.6758" y1="21.6335" x2="83.6758" y2="133.634" gradientUnits="userSpaceOnUse">
<stop stop-color="#70E0FF"/>
<stop offset="1" stop-color="#02A5D2"/>
</linearGradient>
<linearGradient id="paint3_linear_215_236" x1="83.6758" y1="21.6335" x2="83.6758" y2="133.634" gradientUnits="userSpaceOnUse">
<stop stop-color="#2D96C5"/>
<stop offset="1" stop-color="#1D7EAA"/>
</linearGradient>
<linearGradient id="paint4_linear_215_236" x1="83.6758" y1="21.6335" x2="83.6758" y2="133.634" gradientUnits="userSpaceOnUse">
<stop stop-color="#F6F6F6"/>
<stop offset="1" stop-color="#3AC7FF"/>
</linearGradient>
<linearGradient id="paint5_linear_215_236" x1="15.1758" y1="77.6335" x2="152.176" y2="77.6335" gradientUnits="userSpaceOnUse">
<stop stop-color="#DEF5FF"/>
<stop offset="1" stop-color="#3CB8EE"/>
</linearGradient>
<linearGradient id="paint6_linear_215_236" x1="83.6758" y1="21.6335" x2="83.6758" y2="133.634" gradientUnits="userSpaceOnUse">
<stop stop-color="#70E0FF"/>
<stop offset="1" stop-color="#02A5D2"/>
</linearGradient>
<linearGradient id="paint7_linear_215_236" x1="83.6758" y1="21.6335" x2="83.6758" y2="133.634" gradientUnits="userSpaceOnUse">
<stop stop-color="#2D96C5"/>
<stop offset="1" stop-color="#1D7EAA"/>
</linearGradient>
<linearGradient id="paint8_linear_215_236" x1="83.6758" y1="21.6335" x2="83.6758" y2="133.634" gradientUnits="userSpaceOnUse">
<stop stop-color="#F6F6F6"/>
<stop offset="1" stop-color="#3AC7FF"/>
</linearGradient>
<linearGradient id="paint9_linear_215_236" x1="15.1758" y1="77.6335" x2="152.176" y2="77.6335" gradientUnits="userSpaceOnUse">
<stop stop-color="#DEF5FF"/>
<stop offset="1" stop-color="#3CB8EE"/>
</linearGradient>
<linearGradient id="paint10_linear_215_236" x1="83.6758" y1="21.6335" x2="83.6758" y2="133.634" gradientUnits="userSpaceOnUse">
<stop stop-color="#70E0FF"/>
<stop offset="1" stop-color="#02A5D2"/>
</linearGradient>
<linearGradient id="paint11_linear_215_236" x1="83.6758" y1="21.6335" x2="83.6758" y2="133.634" gradientUnits="userSpaceOnUse">
<stop stop-color="#2D96C5"/>
<stop offset="1" stop-color="#1D7EAA"/>
</linearGradient>
<linearGradient id="paint12_linear_215_236" x1="83.6758" y1="21.6335" x2="83.6758" y2="133.634" gradientUnits="userSpaceOnUse">
<stop stop-color="#F6F6F6"/>
<stop offset="1" stop-color="#3AC7FF"/>
</linearGradient>
</defs>
</svg>
