<svg width="170" height="157" viewBox="0 0 170 157" fill="none" xmlns="http://www.w3.org/2000/svg">
<rect x="3" y="3" width="163.176" height="150.548" rx="9" fill="url(#paint0_linear_215_237)" stroke="#1A74BE" stroke-width="6"/>
<path d="M81.2086 53.6593C81.6181 53.5263 82.0548 53.5246 82.4653 53.6544L104.73 60.6909C106.939 61.3892 106.797 64.8071 104.538 65.2897L82.761 69.9431C82.4421 70.0113 82.1132 70.0026 81.7978 69.9178L61.8358 64.5478C59.6657 63.964 59.5924 60.6742 61.734 59.9792L81.2086 53.6593Z" fill="url(#paint1_linear_215_237)"/>
<path d="M59.3693 63.4888C59.3693 60.8913 61.7412 59.0627 64.0268 59.898L80.3264 65.8546C81.7558 66.377 82.7173 67.821 82.7173 69.4454V101.333L61.5953 92.327C60.2517 91.7542 59.3693 90.3566 59.3693 88.8015V63.4888Z" fill="url(#paint2_linear_215_237)"/>
<path d="M82.5158 69.185C82.5047 67.4589 83.5785 65.9425 85.1281 65.4958L102.731 60.4225C104.969 59.7774 107.167 61.5922 107.167 64.0856V90.2557C107.167 91.9107 106.169 93.3745 104.703 93.8723L82.7213 101.333L82.5158 69.185Z" fill="url(#paint3_linear_215_237)"/>
<path d="M65.7569 59.855L82.9376 53.6926L81.8362 53.4556L61.1314 60.092C62.2327 59.855 61.7922 62.2251 62.0124 61.2771C62.2051 60.448 63.334 60.329 64.2151 60.329C65.0961 60.329 80.5147 66.2544 81.1754 66.9654C81.8362 67.6765 82.851 99.6764 82.7173 93.5111C82.6608 90.9039 83.5984 66.9654 84.4794 66.4914C85.3605 66.0174 100.559 61.9881 102.541 61.7511C104.127 61.5615 106.139 62.6201 106.946 63.1732C106.8 62.6201 106.33 61.4193 105.625 61.04C104.92 60.6608 102.982 60.092 102.101 59.855L82.0565 66.0174L65.7569 59.855Z" fill="white" fill-opacity="0.57" style="mix-blend-mode:screen"/>
<path d="M65.7569 59.855L82.9376 53.6926L81.8362 53.4556L61.1314 60.092C62.2327 59.855 61.7922 62.2251 62.0124 61.2771C62.2051 60.448 63.334 60.329 64.2151 60.329C65.0961 60.329 80.5147 66.2544 81.1754 66.9654C81.8362 67.6765 82.851 99.6764 82.7173 93.5111C82.6608 90.9039 83.5984 66.9654 84.4794 66.4914C85.3605 66.0174 100.559 61.9881 102.541 61.7511C104.127 61.5615 106.139 62.6201 106.946 63.1732C106.8 62.6201 106.33 61.4193 105.625 61.04C104.92 60.6608 102.982 60.092 102.101 59.855L82.0565 66.0174L65.7569 59.855Z" fill="#2E89B6" fill-opacity="0.7" style="mix-blend-mode:color-dodge"/>
<path d="M77.4309 65.3063C76.9248 65.5135 61.5719 92.3261 61.5719 92.3261L65.5367 93.9852L79.8539 66.2545C78.8712 65.7031 77.9371 65.0991 77.4309 65.3063Z" fill="#92DCEE" fill-opacity="0.21"/>
<path d="M82.2768 83.0822C82.2768 82.3709 73.0257 96.9349 73.0257 96.9349L74.4587 97.5373L82.2768 85.4526V83.0822Z" fill="#92DCEE" fill-opacity="0.21"/>
<path d="M94.6116 57.4848L72.1446 62.2251L70.823 61.7511L89.3252 55.8257L94.6116 57.4848Z" fill="url(#paint4_linear_215_237)"/>
<path d="M61.7921 71.4695C61.7921 68.2461 62.6729 62.9362 65.0958 60.566C64.655 60.3282 62.1071 59.6051 61.3513 60.0928C59.1487 61.5141 59.4423 63.174 59.369 64.5961C59.2956 71.8645 58.9891 86.9993 59.369 89.2456C59.8098 91.852 61.5715 92.3252 63.3337 93.0371L82.7173 101.333L82.717 98.4892C76.7699 96.04 64.3912 90.9521 62.4529 90.1937C60.0299 89.2456 61.7921 75.4987 61.7921 71.4695Z" fill="#F8F8F8" fill-opacity="0.18" style="mix-blend-mode:overlay"/>
<path d="M61.7921 71.4695C61.7921 68.2461 62.6729 62.9362 65.0958 60.566C64.655 60.3282 62.1071 59.6051 61.3513 60.0928C59.1487 61.5141 59.4423 63.174 59.369 64.5961C59.2956 71.8645 58.9891 86.9993 59.369 89.2456C59.8098 91.852 61.5715 92.3252 63.3337 93.0371L82.7173 101.333L82.717 98.4892C76.7699 96.04 64.3912 90.9521 62.4529 90.1937C60.0299 89.2456 61.7921 75.4987 61.7921 71.4695Z" fill="#F8F8F8" fill-opacity="0.18" style="mix-blend-mode:overlay"/>
<path d="M104.524 73.0562C104.524 69.8328 102.982 64.5952 100.559 62.225C100.999 61.9872 105.089 60.7893 105.845 61.2769C108.048 62.6982 106.874 64.7607 106.948 66.1828C107.021 73.4513 107.327 88.586 106.948 90.8324C106.507 93.4387 104.745 93.7474 102.982 94.4592L82.7173 101.333L82.7181 98.2515C88.6652 95.8023 100.603 92.8473 102.541 92.0889C104.964 91.1408 104.524 77.0855 104.524 73.0562Z" fill="#F8F8F8" fill-opacity="0.18" style="mix-blend-mode:overlay"/>
<path d="M104.524 73.0562C104.524 69.8328 102.982 64.5952 100.559 62.225C100.999 61.9872 105.089 60.7893 105.845 61.2769C108.048 62.6982 106.874 64.7607 106.948 66.1828C107.021 73.4513 107.327 88.586 106.948 90.8324C106.507 93.4387 104.745 93.7474 102.982 94.4592L82.7173 101.333L82.7181 98.2515C88.6652 95.8023 100.603 92.8473 102.541 92.0889C104.964 91.1408 104.524 77.0855 104.524 73.0562Z" fill="#F8F8F8" fill-opacity="0.18" style="mix-blend-mode:overlay"/>
<defs>
<linearGradient id="paint0_linear_215_237" x1="86.6547" y1="156.548" x2="81.8375" y2="0.0210431" gradientUnits="userSpaceOnUse">
<stop stop-color="#78C0FF"/>
<stop offset="1" stop-color="#DFF0FF"/>
</linearGradient>
<linearGradient id="paint1_linear_215_237" x1="59.1826" y1="77.3941" x2="107.195" y2="77.3941" gradientUnits="userSpaceOnUse">
<stop stop-color="#DEF5FF"/>
<stop offset="1" stop-color="#3CB8EE"/>
</linearGradient>
<linearGradient id="paint2_linear_215_237" x1="83.1888" y1="53.4556" x2="83.1888" y2="101.333" gradientUnits="userSpaceOnUse">
<stop stop-color="#70E0FF"/>
<stop offset="1" stop-color="#02A5D2"/>
</linearGradient>
<linearGradient id="paint3_linear_215_237" x1="83.1888" y1="53.4556" x2="83.1888" y2="101.333" gradientUnits="userSpaceOnUse">
<stop stop-color="#2D96C5"/>
<stop offset="1" stop-color="#1D7EAA"/>
</linearGradient>
<linearGradient id="paint4_linear_215_237" x1="83.1888" y1="53.4556" x2="83.1888" y2="101.333" gradientUnits="userSpaceOnUse">
<stop stop-color="#F6F6F6"/>
<stop offset="1" stop-color="#3AC7FF"/>
</linearGradient>
</defs>
</svg>
