<svg width="89" height="82" viewBox="0 0 89 82" fill="none" xmlns="http://www.w3.org/2000/svg">
<rect width="88.6143" height="82" rx="12" fill="url(#paint0_linear_215_264)"/>
<path d="M22.7163 9.08084C22.8784 9.02809 23.0512 9.02741 23.2137 9.07889L32.0244 11.8713C32.8988 12.1485 32.8424 13.5049 31.9486 13.6964L23.3307 15.5431C23.2045 15.5701 23.0743 15.5667 22.9495 15.533L15.05 13.4019C14.1912 13.1703 14.1622 11.8647 15.0097 11.5889L22.7163 9.08084Z" fill="url(#paint1_linear_215_264)"/>
<path d="M14.0739 12.9817C14.0739 11.9509 15.0125 11.2252 15.917 11.5567L22.3672 13.9206C22.9329 14.1279 23.3134 14.7009 23.3134 15.3456V28L14.9548 24.4262C14.4231 24.1988 14.0739 23.6442 14.0739 23.027V12.9817Z" fill="url(#paint2_linear_215_264)"/>
<path d="M23.2337 15.2422C23.2293 14.5572 23.6542 13.9554 24.2674 13.7782L31.2333 11.7648C32.119 11.5088 32.9888 12.229 32.9888 13.2185V23.6041C32.9888 24.2609 32.5941 24.8418 32.0136 25.0394L23.315 28L23.2337 15.2422Z" fill="url(#paint3_linear_215_264)"/>
<path d="M16.6017 11.5396L23.4006 9.09406L22.9647 9L14.7712 11.6337C15.207 11.5396 15.0327 12.4802 15.1199 12.104C15.1961 11.775 15.6428 11.7277 15.9915 11.7277C16.3402 11.7277 22.4417 14.0792 22.7032 14.3614C22.9647 14.6436 23.3663 27.3427 23.3134 24.896C23.291 23.8614 23.6621 14.3614 24.0107 14.1733C24.3594 13.9851 30.3738 12.3861 31.1583 12.2921C31.7859 12.2168 32.582 12.637 32.9016 12.8564C32.8435 12.637 32.6575 12.1604 32.3786 12.0099C32.0997 11.8594 31.3326 11.6337 30.984 11.5396L23.0519 13.9851L16.6017 11.5396Z" fill="white" fill-opacity="0.57" style="mix-blend-mode:screen"/>
<path d="M16.6017 11.5396L23.4006 9.09406L22.9647 9L14.7712 11.6337C15.207 11.5396 15.0327 12.4802 15.1199 12.104C15.1961 11.775 15.6428 11.7277 15.9915 11.7277C16.3402 11.7277 22.4417 14.0792 22.7032 14.3614C22.9647 14.6436 23.3663 27.3427 23.3134 24.896C23.291 23.8614 23.6621 14.3614 24.0107 14.1733C24.3594 13.9851 30.3738 12.3861 31.1583 12.2921C31.7859 12.2168 32.582 12.637 32.9016 12.8564C32.8435 12.637 32.6575 12.1604 32.3786 12.0099C32.0997 11.8594 31.3326 11.6337 30.984 11.5396L23.0519 13.9851L16.6017 11.5396Z" fill="#2E89B6" fill-opacity="0.7" style="mix-blend-mode:color-dodge"/>
<path d="M21.2214 13.703C21.0211 13.7852 14.9455 24.4258 14.9455 24.4258L16.5145 25.0842L22.1803 14.0793C21.7914 13.8604 21.4217 13.6207 21.2214 13.703Z" fill="#92DCEE" fill-opacity="0.21"/>
<path d="M23.1391 20.7573C23.1391 20.4751 19.4781 26.2548 19.4781 26.2548L20.0452 26.4939L23.1391 21.698V20.7573Z" fill="#92DCEE" fill-opacity="0.21"/>
<path d="M28.0203 10.599L19.1295 12.4802L18.6065 12.2921L25.9284 9.9406L28.0203 10.599Z" fill="url(#paint4_linear_215_264)"/>
<path d="M15.0326 16.1488C15.0326 14.8696 15.3812 12.7624 16.34 11.8218C16.1656 11.7274 15.1573 11.4404 14.8582 11.634C13.9866 12.198 14.1028 12.8568 14.0738 13.4211C14.0447 16.3056 13.9234 22.3118 14.0738 23.2033C14.2482 24.2376 14.9454 24.4254 15.6427 24.7079L23.3134 28L23.3133 26.8716C20.9598 25.8997 16.0612 23.8805 15.2941 23.5795C14.3353 23.2033 15.0326 17.7478 15.0326 16.1488Z" fill="#F8F8F8" fill-opacity="0.18" style="mix-blend-mode:overlay"/>
<path d="M15.0326 16.1488C15.0326 14.8696 15.3812 12.7624 16.34 11.8218C16.1656 11.7274 15.1573 11.4404 14.8582 11.634C13.9866 12.198 14.1028 12.8568 14.0738 13.4211C14.0447 16.3056 13.9234 22.3118 14.0738 23.2033C14.2482 24.2376 14.9454 24.4254 15.6427 24.7079L23.3134 28L23.3133 26.8716C20.9598 25.8997 16.0612 23.8805 15.2941 23.5795C14.3353 23.2033 15.0326 17.7478 15.0326 16.1488Z" fill="#F8F8F8" fill-opacity="0.18" style="mix-blend-mode:overlay"/>
<path d="M31.9432 16.7785C31.9432 15.4993 31.3326 13.4207 30.3738 12.4802C30.5482 12.3858 32.1667 11.9104 32.4658 12.1039C33.3374 12.668 32.873 13.4865 32.9021 14.0508C32.9311 16.9353 33.0524 22.9415 32.9021 23.833C32.7276 24.8673 32.0303 24.9898 31.3329 25.2723L23.3134 28L23.3137 26.7773C25.6672 25.8053 30.3912 24.6326 31.1583 24.3316C32.1171 23.9554 31.9432 18.3775 31.9432 16.7785Z" fill="#F8F8F8" fill-opacity="0.18" style="mix-blend-mode:overlay"/>
<path d="M31.9432 16.7785C31.9432 15.4993 31.3326 13.4207 30.3738 12.4802C30.5482 12.3858 32.1667 11.9104 32.4658 12.1039C33.3374 12.668 32.873 13.4865 32.9021 14.0508C32.9311 16.9353 33.0524 22.9415 32.9021 23.833C32.7276 24.8673 32.0303 24.9898 31.3329 25.2723L23.3134 28L23.3137 26.7773C25.6672 25.8053 30.3912 24.6326 31.1583 24.3316C32.1171 23.9554 31.9432 18.3775 31.9432 16.7785Z" fill="#F8F8F8" fill-opacity="0.18" style="mix-blend-mode:overlay"/>
<path d="M22.7163 32.0808C22.8784 32.0281 23.0512 32.0274 23.2137 32.0789L32.0244 34.8713C32.8988 35.1485 32.8424 36.5049 31.9486 36.6964L23.3307 38.5431C23.2045 38.5701 23.0743 38.5667 22.9495 38.533L15.05 36.4019C14.1912 36.1703 14.1622 34.8647 15.0097 34.5889L22.7163 32.0808Z" fill="url(#paint5_linear_215_264)"/>
<path d="M14.0739 35.9817C14.0739 34.9509 15.0125 34.2252 15.917 34.5567L22.3672 36.9206C22.9329 37.1279 23.3134 37.7009 23.3134 38.3456V51L14.9548 47.4262C14.4231 47.1988 14.0739 46.6442 14.0739 46.027V35.9817Z" fill="url(#paint6_linear_215_264)"/>
<path d="M23.2337 38.2422C23.2293 37.5572 23.6542 36.9554 24.2674 36.7782L31.2333 34.7648C32.119 34.5088 32.9888 35.229 32.9888 36.2185V46.6041C32.9888 47.2609 32.5941 47.8418 32.0136 48.0394L23.315 51L23.2337 38.2422Z" fill="url(#paint7_linear_215_264)"/>
<path d="M16.6017 34.5396L23.4006 32.0941L22.9647 32L14.7712 34.6337C15.207 34.5396 15.0327 35.4802 15.1199 35.104C15.1961 34.775 15.6428 34.7277 15.9915 34.7277C16.3402 34.7277 22.4417 37.0792 22.7032 37.3614C22.9647 37.6436 23.3663 50.3427 23.3134 47.896C23.291 46.8614 23.6621 37.3614 24.0107 37.1733C24.3594 36.9851 30.3738 35.3861 31.1583 35.2921C31.7859 35.2168 32.582 35.637 32.9016 35.8564C32.8435 35.637 32.6575 35.1604 32.3786 35.0099C32.0997 34.8594 31.3326 34.6337 30.984 34.5396L23.0519 36.9851L16.6017 34.5396Z" fill="white" fill-opacity="0.57" style="mix-blend-mode:screen"/>
<path d="M16.6017 34.5396L23.4006 32.0941L22.9647 32L14.7712 34.6337C15.207 34.5396 15.0327 35.4802 15.1199 35.104C15.1961 34.775 15.6428 34.7277 15.9915 34.7277C16.3402 34.7277 22.4417 37.0792 22.7032 37.3614C22.9647 37.6436 23.3663 50.3427 23.3134 47.896C23.291 46.8614 23.6621 37.3614 24.0107 37.1733C24.3594 36.9851 30.3738 35.3861 31.1583 35.2921C31.7859 35.2168 32.582 35.637 32.9016 35.8564C32.8435 35.637 32.6575 35.1604 32.3786 35.0099C32.0997 34.8594 31.3326 34.6337 30.984 34.5396L23.0519 36.9851L16.6017 34.5396Z" fill="#2E89B6" fill-opacity="0.7" style="mix-blend-mode:color-dodge"/>
<path d="M21.2214 36.703C21.0211 36.7852 14.9455 47.4258 14.9455 47.4258L16.5145 48.0842L22.1803 37.0793C21.7914 36.8604 21.4217 36.6207 21.2214 36.703Z" fill="#92DCEE" fill-opacity="0.21"/>
<path d="M23.1391 43.7573C23.1391 43.4751 19.4781 49.2548 19.4781 49.2548L20.0452 49.4939L23.1391 44.698V43.7573Z" fill="#92DCEE" fill-opacity="0.21"/>
<path d="M28.0203 33.599L19.1295 35.4802L18.6065 35.2921L25.9284 32.9406L28.0203 33.599Z" fill="url(#paint8_linear_215_264)"/>
<path d="M15.0326 39.1488C15.0326 37.8696 15.3812 35.7624 16.34 34.8218C16.1656 34.7274 15.1573 34.4404 14.8582 34.634C13.9866 35.198 14.1028 35.8568 14.0738 36.4211C14.0447 39.3056 13.9234 45.3118 14.0738 46.2033C14.2482 47.2376 14.9454 47.4254 15.6427 47.7079L23.3134 51L23.3133 49.8716C20.9598 48.8997 16.0612 46.8805 15.2941 46.5795C14.3353 46.2033 15.0326 40.7478 15.0326 39.1488Z" fill="#F8F8F8" fill-opacity="0.18" style="mix-blend-mode:overlay"/>
<path d="M15.0326 39.1488C15.0326 37.8696 15.3812 35.7624 16.34 34.8218C16.1656 34.7274 15.1573 34.4404 14.8582 34.634C13.9866 35.198 14.1028 35.8568 14.0738 36.4211C14.0447 39.3056 13.9234 45.3118 14.0738 46.2033C14.2482 47.2376 14.9454 47.4254 15.6427 47.7079L23.3134 51L23.3133 49.8716C20.9598 48.8997 16.0612 46.8805 15.2941 46.5795C14.3353 46.2033 15.0326 40.7478 15.0326 39.1488Z" fill="#F8F8F8" fill-opacity="0.18" style="mix-blend-mode:overlay"/>
<path d="M31.9432 39.7785C31.9432 38.4993 31.3326 36.4207 30.3738 35.4802C30.5482 35.3858 32.1667 34.9104 32.4658 35.1039C33.3374 35.668 32.873 36.4865 32.9021 37.0508C32.9311 39.9353 33.0524 45.9415 32.9021 46.833C32.7276 47.8673 32.0303 47.9898 31.3329 48.2723L23.3134 51L23.3137 49.7773C25.6672 48.8053 30.3912 47.6326 31.1583 47.3316C32.1171 46.9554 31.9432 41.3775 31.9432 39.7785Z" fill="#F8F8F8" fill-opacity="0.18" style="mix-blend-mode:overlay"/>
<path d="M31.9432 39.7785C31.9432 38.4993 31.3326 36.4207 30.3738 35.4802C30.5482 35.3858 32.1667 34.9104 32.4658 35.1039C33.3374 35.668 32.873 36.4865 32.9021 37.0508C32.9311 39.9353 33.0524 45.9415 32.9021 46.833C32.7276 47.8673 32.0303 47.9898 31.3329 48.2723L23.3134 51L23.3137 49.7773C25.6672 48.8053 30.3912 47.6326 31.1583 47.3316C32.1171 46.9554 31.9432 41.3775 31.9432 39.7785Z" fill="#F8F8F8" fill-opacity="0.18" style="mix-blend-mode:overlay"/>
<path d="M22.7163 57.0808C22.8784 57.0281 23.0512 57.0274 23.2137 57.0789L32.0244 59.8713C32.8988 60.1485 32.8424 61.5049 31.9486 61.6964L23.3307 63.5431C23.2045 63.5701 23.0743 63.5667 22.9495 63.533L15.05 61.4019C14.1912 61.1703 14.1622 59.8647 15.0097 59.5889L22.7163 57.0808Z" fill="url(#paint9_linear_215_264)"/>
<path d="M14.0739 60.9817C14.0739 59.9509 15.0125 59.2252 15.917 59.5567L22.3672 61.9206C22.9329 62.1279 23.3134 62.7009 23.3134 63.3456V76L14.9548 72.4262C14.4231 72.1988 14.0739 71.6442 14.0739 71.027V60.9817Z" fill="url(#paint10_linear_215_264)"/>
<path d="M23.2337 63.2422C23.2293 62.5572 23.6542 61.9554 24.2674 61.7782L31.2333 59.7648C32.119 59.5088 32.9888 60.229 32.9888 61.2185V71.6041C32.9888 72.2609 32.5941 72.8418 32.0136 73.0394L23.315 76L23.2337 63.2422Z" fill="url(#paint11_linear_215_264)"/>
<path d="M16.6017 59.5396L23.4006 57.0941L22.9647 57L14.7712 59.6337C15.207 59.5396 15.0327 60.4802 15.1199 60.104C15.1961 59.775 15.6428 59.7277 15.9915 59.7277C16.3402 59.7277 22.4417 62.0792 22.7032 62.3614C22.9647 62.6436 23.3663 75.3427 23.3134 72.896C23.291 71.8614 23.6621 62.3614 24.0107 62.1733C24.3594 61.9851 30.3738 60.3861 31.1583 60.2921C31.7859 60.2168 32.582 60.637 32.9016 60.8564C32.8435 60.637 32.6575 60.1604 32.3786 60.0099C32.0997 59.8594 31.3326 59.6337 30.984 59.5396L23.0519 61.9851L16.6017 59.5396Z" fill="white" fill-opacity="0.57" style="mix-blend-mode:screen"/>
<path d="M16.6017 59.5396L23.4006 57.0941L22.9647 57L14.7712 59.6337C15.207 59.5396 15.0327 60.4802 15.1199 60.104C15.1961 59.775 15.6428 59.7277 15.9915 59.7277C16.3402 59.7277 22.4417 62.0792 22.7032 62.3614C22.9647 62.6436 23.3663 75.3427 23.3134 72.896C23.291 71.8614 23.6621 62.3614 24.0107 62.1733C24.3594 61.9851 30.3738 60.3861 31.1583 60.2921C31.7859 60.2168 32.582 60.637 32.9016 60.8564C32.8435 60.637 32.6575 60.1604 32.3786 60.0099C32.0997 59.8594 31.3326 59.6337 30.984 59.5396L23.0519 61.9851L16.6017 59.5396Z" fill="#2E89B6" fill-opacity="0.7" style="mix-blend-mode:color-dodge"/>
<path d="M21.2214 61.703C21.0211 61.7852 14.9455 72.4258 14.9455 72.4258L16.5145 73.0842L22.1803 62.0793C21.7914 61.8604 21.4217 61.6207 21.2214 61.703Z" fill="#92DCEE" fill-opacity="0.21"/>
<path d="M23.1391 68.7573C23.1391 68.4751 19.4781 74.2548 19.4781 74.2548L20.0452 74.4939L23.1391 69.698V68.7573Z" fill="#92DCEE" fill-opacity="0.21"/>
<path d="M28.0203 58.599L19.1295 60.4802L18.6065 60.2921L25.9284 57.9406L28.0203 58.599Z" fill="url(#paint12_linear_215_264)"/>
<path d="M15.0326 64.1488C15.0326 62.8696 15.3812 60.7624 16.34 59.8218C16.1656 59.7274 15.1573 59.4404 14.8582 59.634C13.9866 60.198 14.1028 60.8568 14.0738 61.4211C14.0447 64.3056 13.9234 70.3118 14.0738 71.2033C14.2482 72.2376 14.9454 72.4254 15.6427 72.7079L23.3134 76L23.3133 74.8716C20.9598 73.8997 16.0612 71.8805 15.2941 71.5795C14.3353 71.2033 15.0326 65.7478 15.0326 64.1488Z" fill="#F8F8F8" fill-opacity="0.18" style="mix-blend-mode:overlay"/>
<path d="M15.0326 64.1488C15.0326 62.8696 15.3812 60.7624 16.34 59.8218C16.1656 59.7274 15.1573 59.4404 14.8582 59.634C13.9866 60.198 14.1028 60.8568 14.0738 61.4211C14.0447 64.3056 13.9234 70.3118 14.0738 71.2033C14.2482 72.2376 14.9454 72.4254 15.6427 72.7079L23.3134 76L23.3133 74.8716C20.9598 73.8997 16.0612 71.8805 15.2941 71.5795C14.3353 71.2033 15.0326 65.7478 15.0326 64.1488Z" fill="#F8F8F8" fill-opacity="0.18" style="mix-blend-mode:overlay"/>
<path d="M31.9432 64.7785C31.9432 63.4993 31.3326 61.4207 30.3738 60.4802C30.5482 60.3858 32.1667 59.9104 32.4658 60.1039C33.3374 60.668 32.873 61.4865 32.9021 62.0508C32.9311 64.9353 33.0524 70.9415 32.9021 71.833C32.7276 72.8673 32.0303 72.9898 31.3329 73.2723L23.3134 76L23.3137 74.7773C25.6672 73.8053 30.3912 72.6326 31.1583 72.3316C32.1171 71.9554 31.9432 66.3775 31.9432 64.7785Z" fill="#F8F8F8" fill-opacity="0.18" style="mix-blend-mode:overlay"/>
<path d="M31.9432 64.7785C31.9432 63.4993 31.3326 61.4207 30.3738 60.4802C30.5482 60.3858 32.1667 59.9104 32.4658 60.1039C33.3374 60.668 32.873 61.4865 32.9021 62.0508C32.9311 64.9353 33.0524 70.9415 32.9021 71.833C32.7276 72.8673 32.0303 72.9898 31.3329 73.2723L23.3134 76L23.3137 74.7773C25.6672 73.8053 30.3912 72.6326 31.1583 72.3316C32.1171 71.9554 31.9432 66.3775 31.9432 64.7785Z" fill="#F8F8F8" fill-opacity="0.18" style="mix-blend-mode:overlay"/>
<path d="M63.7163 9.08084C63.8784 9.02809 64.0512 9.02741 64.2137 9.07889L73.0244 11.8713C73.8988 12.1485 73.8424 13.5049 72.9486 13.6964L64.3307 15.5431C64.2045 15.5701 64.0743 15.5667 63.9495 15.533L56.05 13.4019C55.1912 13.1703 55.1622 11.8647 56.0097 11.5889L63.7163 9.08084Z" fill="url(#paint13_linear_215_264)"/>
<path d="M55.0739 12.9817C55.0739 11.9509 56.0125 11.2252 56.917 11.5567L63.3672 13.9206C63.9329 14.1279 64.3134 14.7009 64.3134 15.3456V28L55.9548 24.4262C55.4231 24.1988 55.0739 23.6442 55.0739 23.027V12.9817Z" fill="url(#paint14_linear_215_264)"/>
<path d="M64.2337 15.2422C64.2293 14.5572 64.6542 13.9554 65.2674 13.7782L72.2333 11.7648C73.119 11.5088 73.9888 12.229 73.9888 13.2185V23.6041C73.9888 24.2609 73.5941 24.8418 73.0136 25.0394L64.315 28L64.2337 15.2422Z" fill="url(#paint15_linear_215_264)"/>
<path d="M57.6017 11.5396L64.4006 9.09406L63.9647 9L55.7712 11.6337C56.207 11.5396 56.0327 12.4802 56.1199 12.104C56.1961 11.775 56.6428 11.7277 56.9915 11.7277C57.3402 11.7277 63.4417 14.0792 63.7032 14.3614C63.9647 14.6436 64.3663 27.3427 64.3134 24.896C64.291 23.8614 64.6621 14.3614 65.0107 14.1733C65.3594 13.9851 71.3738 12.3861 72.1583 12.2921C72.7859 12.2168 73.582 12.637 73.9016 12.8564C73.8435 12.637 73.6575 12.1604 73.3786 12.0099C73.0997 11.8594 72.3326 11.6337 71.984 11.5396L64.0519 13.9851L57.6017 11.5396Z" fill="white" fill-opacity="0.57" style="mix-blend-mode:screen"/>
<path d="M57.6017 11.5396L64.4006 9.09406L63.9647 9L55.7712 11.6337C56.207 11.5396 56.0327 12.4802 56.1199 12.104C56.1961 11.775 56.6428 11.7277 56.9915 11.7277C57.3402 11.7277 63.4417 14.0792 63.7032 14.3614C63.9647 14.6436 64.3663 27.3427 64.3134 24.896C64.291 23.8614 64.6621 14.3614 65.0107 14.1733C65.3594 13.9851 71.3738 12.3861 72.1583 12.2921C72.7859 12.2168 73.582 12.637 73.9016 12.8564C73.8435 12.637 73.6575 12.1604 73.3786 12.0099C73.0997 11.8594 72.3326 11.6337 71.984 11.5396L64.0519 13.9851L57.6017 11.5396Z" fill="#2E89B6" fill-opacity="0.7" style="mix-blend-mode:color-dodge"/>
<path d="M62.2214 13.703C62.0211 13.7852 55.9455 24.4258 55.9455 24.4258L57.5145 25.0842L63.1803 14.0793C62.7914 13.8604 62.4217 13.6207 62.2214 13.703Z" fill="#92DCEE" fill-opacity="0.21"/>
<path d="M64.1391 20.7573C64.1391 20.4751 60.4781 26.2548 60.4781 26.2548L61.0452 26.4939L64.1391 21.698V20.7573Z" fill="#92DCEE" fill-opacity="0.21"/>
<path d="M69.0203 10.599L60.1295 12.4802L59.6065 12.2921L66.9284 9.9406L69.0203 10.599Z" fill="url(#paint16_linear_215_264)"/>
<path d="M56.0326 16.1488C56.0326 14.8696 56.3812 12.7624 57.34 11.8218C57.1656 11.7274 56.1573 11.4404 55.8582 11.634C54.9866 12.198 55.1028 12.8568 55.0738 13.4211C55.0447 16.3056 54.9234 22.3118 55.0738 23.2033C55.2482 24.2376 55.9454 24.4254 56.6427 24.7079L64.3134 28L64.3133 26.8716C61.9598 25.8997 57.0612 23.8805 56.2941 23.5795C55.3353 23.2033 56.0326 17.7478 56.0326 16.1488Z" fill="#F8F8F8" fill-opacity="0.18" style="mix-blend-mode:overlay"/>
<path d="M56.0326 16.1488C56.0326 14.8696 56.3812 12.7624 57.34 11.8218C57.1656 11.7274 56.1573 11.4404 55.8582 11.634C54.9866 12.198 55.1028 12.8568 55.0738 13.4211C55.0447 16.3056 54.9234 22.3118 55.0738 23.2033C55.2482 24.2376 55.9454 24.4254 56.6427 24.7079L64.3134 28L64.3133 26.8716C61.9598 25.8997 57.0612 23.8805 56.2941 23.5795C55.3353 23.2033 56.0326 17.7478 56.0326 16.1488Z" fill="#F8F8F8" fill-opacity="0.18" style="mix-blend-mode:overlay"/>
<path d="M72.9432 16.7785C72.9432 15.4993 72.3326 13.4207 71.3738 12.4802C71.5482 12.3858 73.1667 11.9104 73.4658 12.1039C74.3374 12.668 73.873 13.4865 73.9021 14.0508C73.9311 16.9353 74.0524 22.9415 73.9021 23.833C73.7276 24.8673 73.0303 24.9898 72.3329 25.2723L64.3134 28L64.3137 26.7773C66.6672 25.8053 71.3912 24.6326 72.1583 24.3316C73.1171 23.9554 72.9432 18.3775 72.9432 16.7785Z" fill="#F8F8F8" fill-opacity="0.18" style="mix-blend-mode:overlay"/>
<path d="M72.9432 16.7785C72.9432 15.4993 72.3326 13.4207 71.3738 12.4802C71.5482 12.3858 73.1667 11.9104 73.4658 12.1039C74.3374 12.668 73.873 13.4865 73.9021 14.0508C73.9311 16.9353 74.0524 22.9415 73.9021 23.833C73.7276 24.8673 73.0303 24.9898 72.3329 25.2723L64.3134 28L64.3137 26.7773C66.6672 25.8053 71.3912 24.6326 72.1583 24.3316C73.1171 23.9554 72.9432 18.3775 72.9432 16.7785Z" fill="#F8F8F8" fill-opacity="0.18" style="mix-blend-mode:overlay"/>
<path d="M63.7163 32.0808C63.8784 32.0281 64.0512 32.0274 64.2137 32.0789L73.0244 34.8713C73.8988 35.1485 73.8424 36.5049 72.9486 36.6964L64.3307 38.5431C64.2045 38.5701 64.0743 38.5667 63.9495 38.533L56.05 36.4019C55.1912 36.1703 55.1622 34.8647 56.0097 34.5889L63.7163 32.0808Z" fill="url(#paint17_linear_215_264)"/>
<path d="M55.0739 35.9817C55.0739 34.9509 56.0125 34.2252 56.917 34.5567L63.3672 36.9206C63.9329 37.1279 64.3134 37.7009 64.3134 38.3456V51L55.9548 47.4262C55.4231 47.1988 55.0739 46.6442 55.0739 46.027V35.9817Z" fill="url(#paint18_linear_215_264)"/>
<path d="M64.2337 38.2422C64.2293 37.5572 64.6542 36.9554 65.2674 36.7782L72.2333 34.7648C73.119 34.5088 73.9888 35.229 73.9888 36.2185V46.6041C73.9888 47.2609 73.5941 47.8418 73.0136 48.0394L64.315 51L64.2337 38.2422Z" fill="url(#paint19_linear_215_264)"/>
<path d="M57.6017 34.5396L64.4006 32.0941L63.9647 32L55.7712 34.6337C56.207 34.5396 56.0327 35.4802 56.1199 35.104C56.1961 34.775 56.6428 34.7277 56.9915 34.7277C57.3402 34.7277 63.4417 37.0792 63.7032 37.3614C63.9647 37.6436 64.3663 50.3427 64.3134 47.896C64.291 46.8614 64.6621 37.3614 65.0107 37.1733C65.3594 36.9851 71.3738 35.3861 72.1583 35.2921C72.7859 35.2168 73.582 35.637 73.9016 35.8564C73.8435 35.637 73.6575 35.1604 73.3786 35.0099C73.0997 34.8594 72.3326 34.6337 71.984 34.5396L64.0519 36.9851L57.6017 34.5396Z" fill="white" fill-opacity="0.57" style="mix-blend-mode:screen"/>
<path d="M57.6017 34.5396L64.4006 32.0941L63.9647 32L55.7712 34.6337C56.207 34.5396 56.0327 35.4802 56.1199 35.104C56.1961 34.775 56.6428 34.7277 56.9915 34.7277C57.3402 34.7277 63.4417 37.0792 63.7032 37.3614C63.9647 37.6436 64.3663 50.3427 64.3134 47.896C64.291 46.8614 64.6621 37.3614 65.0107 37.1733C65.3594 36.9851 71.3738 35.3861 72.1583 35.2921C72.7859 35.2168 73.582 35.637 73.9016 35.8564C73.8435 35.637 73.6575 35.1604 73.3786 35.0099C73.0997 34.8594 72.3326 34.6337 71.984 34.5396L64.0519 36.9851L57.6017 34.5396Z" fill="#2E89B6" fill-opacity="0.7" style="mix-blend-mode:color-dodge"/>
<path d="M62.2214 36.703C62.0211 36.7852 55.9455 47.4258 55.9455 47.4258L57.5145 48.0842L63.1803 37.0793C62.7914 36.8604 62.4217 36.6207 62.2214 36.703Z" fill="#92DCEE" fill-opacity="0.21"/>
<path d="M64.1391 43.7573C64.1391 43.4751 60.4781 49.2548 60.4781 49.2548L61.0452 49.4939L64.1391 44.698V43.7573Z" fill="#92DCEE" fill-opacity="0.21"/>
<path d="M69.0203 33.599L60.1295 35.4802L59.6065 35.2921L66.9284 32.9406L69.0203 33.599Z" fill="url(#paint20_linear_215_264)"/>
<path d="M56.0326 39.1488C56.0326 37.8696 56.3812 35.7624 57.34 34.8218C57.1656 34.7274 56.1573 34.4404 55.8582 34.634C54.9866 35.198 55.1028 35.8568 55.0738 36.4211C55.0447 39.3056 54.9234 45.3118 55.0738 46.2033C55.2482 47.2376 55.9454 47.4254 56.6427 47.7079L64.3134 51L64.3133 49.8716C61.9598 48.8997 57.0612 46.8805 56.2941 46.5795C55.3353 46.2033 56.0326 40.7478 56.0326 39.1488Z" fill="#F8F8F8" fill-opacity="0.18" style="mix-blend-mode:overlay"/>
<path d="M56.0326 39.1488C56.0326 37.8696 56.3812 35.7624 57.34 34.8218C57.1656 34.7274 56.1573 34.4404 55.8582 34.634C54.9866 35.198 55.1028 35.8568 55.0738 36.4211C55.0447 39.3056 54.9234 45.3118 55.0738 46.2033C55.2482 47.2376 55.9454 47.4254 56.6427 47.7079L64.3134 51L64.3133 49.8716C61.9598 48.8997 57.0612 46.8805 56.2941 46.5795C55.3353 46.2033 56.0326 40.7478 56.0326 39.1488Z" fill="#F8F8F8" fill-opacity="0.18" style="mix-blend-mode:overlay"/>
<path d="M72.9432 39.7785C72.9432 38.4993 72.3326 36.4207 71.3738 35.4802C71.5482 35.3858 73.1667 34.9104 73.4658 35.1039C74.3374 35.668 73.873 36.4865 73.9021 37.0508C73.9311 39.9353 74.0524 45.9415 73.9021 46.833C73.7276 47.8673 73.0303 47.9898 72.3329 48.2723L64.3134 51L64.3137 49.7773C66.6672 48.8053 71.3912 47.6326 72.1583 47.3316C73.1171 46.9554 72.9432 41.3775 72.9432 39.7785Z" fill="#F8F8F8" fill-opacity="0.18" style="mix-blend-mode:overlay"/>
<path d="M72.9432 39.7785C72.9432 38.4993 72.3326 36.4207 71.3738 35.4802C71.5482 35.3858 73.1667 34.9104 73.4658 35.1039C74.3374 35.668 73.873 36.4865 73.9021 37.0508C73.9311 39.9353 74.0524 45.9415 73.9021 46.833C73.7276 47.8673 73.0303 47.9898 72.3329 48.2723L64.3134 51L64.3137 49.7773C66.6672 48.8053 71.3912 47.6326 72.1583 47.3316C73.1171 46.9554 72.9432 41.3775 72.9432 39.7785Z" fill="#F8F8F8" fill-opacity="0.18" style="mix-blend-mode:overlay"/>
<path d="M63.7163 57.0808C63.8784 57.0281 64.0512 57.0274 64.2137 57.0789L73.0244 59.8713C73.8988 60.1485 73.8424 61.5049 72.9486 61.6964L64.3307 63.5431C64.2045 63.5701 64.0743 63.5667 63.9495 63.533L56.05 61.4019C55.1912 61.1703 55.1622 59.8647 56.0097 59.5889L63.7163 57.0808Z" fill="url(#paint21_linear_215_264)"/>
<path d="M55.0739 60.9817C55.0739 59.9509 56.0125 59.2252 56.917 59.5567L63.3672 61.9206C63.9329 62.1279 64.3134 62.7009 64.3134 63.3456V76L55.9548 72.4262C55.4231 72.1988 55.0739 71.6442 55.0739 71.027V60.9817Z" fill="url(#paint22_linear_215_264)"/>
<path d="M64.2337 63.2422C64.2293 62.5572 64.6542 61.9554 65.2674 61.7782L72.2333 59.7648C73.119 59.5088 73.9888 60.229 73.9888 61.2185V71.6041C73.9888 72.2609 73.5941 72.8418 73.0136 73.0394L64.315 76L64.2337 63.2422Z" fill="url(#paint23_linear_215_264)"/>
<path d="M57.6017 59.5396L64.4006 57.0941L63.9647 57L55.7712 59.6337C56.207 59.5396 56.0327 60.4802 56.1199 60.104C56.1961 59.775 56.6428 59.7277 56.9915 59.7277C57.3402 59.7277 63.4417 62.0792 63.7032 62.3614C63.9647 62.6436 64.3663 75.3427 64.3134 72.896C64.291 71.8614 64.6621 62.3614 65.0107 62.1733C65.3594 61.9851 71.3738 60.3861 72.1583 60.2921C72.7859 60.2168 73.582 60.637 73.9016 60.8564C73.8435 60.637 73.6575 60.1604 73.3786 60.0099C73.0997 59.8594 72.3326 59.6337 71.984 59.5396L64.0519 61.9851L57.6017 59.5396Z" fill="white" fill-opacity="0.57" style="mix-blend-mode:screen"/>
<path d="M57.6017 59.5396L64.4006 57.0941L63.9647 57L55.7712 59.6337C56.207 59.5396 56.0327 60.4802 56.1199 60.104C56.1961 59.775 56.6428 59.7277 56.9915 59.7277C57.3402 59.7277 63.4417 62.0792 63.7032 62.3614C63.9647 62.6436 64.3663 75.3427 64.3134 72.896C64.291 71.8614 64.6621 62.3614 65.0107 62.1733C65.3594 61.9851 71.3738 60.3861 72.1583 60.2921C72.7859 60.2168 73.582 60.637 73.9016 60.8564C73.8435 60.637 73.6575 60.1604 73.3786 60.0099C73.0997 59.8594 72.3326 59.6337 71.984 59.5396L64.0519 61.9851L57.6017 59.5396Z" fill="#2E89B6" fill-opacity="0.7" style="mix-blend-mode:color-dodge"/>
<path d="M62.2214 61.703C62.0211 61.7852 55.9455 72.4258 55.9455 72.4258L57.5145 73.0842L63.1803 62.0793C62.7914 61.8604 62.4217 61.6207 62.2214 61.703Z" fill="#92DCEE" fill-opacity="0.21"/>
<path d="M64.1391 68.7573C64.1391 68.4751 60.4781 74.2548 60.4781 74.2548L61.0452 74.4939L64.1391 69.698V68.7573Z" fill="#92DCEE" fill-opacity="0.21"/>
<path d="M69.0203 58.599L60.1295 60.4802L59.6065 60.2921L66.9284 57.9406L69.0203 58.599Z" fill="url(#paint24_linear_215_264)"/>
<path d="M56.0326 64.1488C56.0326 62.8696 56.3812 60.7624 57.34 59.8218C57.1656 59.7274 56.1573 59.4404 55.8582 59.634C54.9866 60.198 55.1028 60.8568 55.0738 61.4211C55.0447 64.3056 54.9234 70.3118 55.0738 71.2033C55.2482 72.2376 55.9454 72.4254 56.6427 72.7079L64.3134 76L64.3133 74.8716C61.9598 73.8997 57.0612 71.8805 56.2941 71.5795C55.3353 71.2033 56.0326 65.7478 56.0326 64.1488Z" fill="#F8F8F8" fill-opacity="0.18" style="mix-blend-mode:overlay"/>
<path d="M56.0326 64.1488C56.0326 62.8696 56.3812 60.7624 57.34 59.8218C57.1656 59.7274 56.1573 59.4404 55.8582 59.634C54.9866 60.198 55.1028 60.8568 55.0738 61.4211C55.0447 64.3056 54.9234 70.3118 55.0738 71.2033C55.2482 72.2376 55.9454 72.4254 56.6427 72.7079L64.3134 76L64.3133 74.8716C61.9598 73.8997 57.0612 71.8805 56.2941 71.5795C55.3353 71.2033 56.0326 65.7478 56.0326 64.1488Z" fill="#F8F8F8" fill-opacity="0.18" style="mix-blend-mode:overlay"/>
<path d="M72.9432 64.7785C72.9432 63.4993 72.3326 61.4207 71.3738 60.4802C71.5482 60.3858 73.1667 59.9104 73.4658 60.1039C74.3374 60.668 73.873 61.4865 73.9021 62.0508C73.9311 64.9353 74.0524 70.9415 73.9021 71.833C73.7276 72.8673 73.0303 72.9898 72.3329 73.2723L64.3134 76L64.3137 74.7773C66.6672 73.8053 71.3912 72.6326 72.1583 72.3316C73.1171 71.9554 72.9432 66.3775 72.9432 64.7785Z" fill="#F8F8F8" fill-opacity="0.18" style="mix-blend-mode:overlay"/>
<path d="M72.9432 64.7785C72.9432 63.4993 72.3326 61.4207 71.3738 60.4802C71.5482 60.3858 73.1667 59.9104 73.4658 60.1039C74.3374 60.668 73.873 61.4865 73.9021 62.0508C73.9311 64.9353 74.0524 70.9415 73.9021 71.833C73.7276 72.8673 73.0303 72.9898 72.3329 73.2723L64.3134 76L64.3137 74.7773C66.6672 73.8053 71.3912 72.6326 72.1583 72.3316C73.1171 71.9554 72.9432 66.3775 72.9432 64.7785Z" fill="#F8F8F8" fill-opacity="0.18" style="mix-blend-mode:overlay"/>
<defs>
<linearGradient id="paint0_linear_215_264" x1="45.3897" y1="82" x2="42.8665" y2="0.0110224" gradientUnits="userSpaceOnUse">
<stop stop-color="#78C0FF"/>
<stop offset="1" stop-color="#DFF0FF"/>
</linearGradient>
<linearGradient id="paint1_linear_215_264" x1="14" y1="18.5" x2="33" y2="18.5" gradientUnits="userSpaceOnUse">
<stop stop-color="#DEF5FF"/>
<stop offset="1" stop-color="#3CB8EE"/>
</linearGradient>
<linearGradient id="paint2_linear_215_264" x1="23.5" y1="9" x2="23.5" y2="28" gradientUnits="userSpaceOnUse">
<stop stop-color="#70E0FF"/>
<stop offset="1" stop-color="#02A5D2"/>
</linearGradient>
<linearGradient id="paint3_linear_215_264" x1="23.5" y1="9" x2="23.5" y2="28" gradientUnits="userSpaceOnUse">
<stop stop-color="#2D96C5"/>
<stop offset="1" stop-color="#1D7EAA"/>
</linearGradient>
<linearGradient id="paint4_linear_215_264" x1="23.5" y1="9" x2="23.5" y2="28" gradientUnits="userSpaceOnUse">
<stop stop-color="#F6F6F6"/>
<stop offset="1" stop-color="#3AC7FF"/>
</linearGradient>
<linearGradient id="paint5_linear_215_264" x1="14" y1="41.5" x2="33" y2="41.5" gradientUnits="userSpaceOnUse">
<stop stop-color="#DEF5FF"/>
<stop offset="1" stop-color="#3CB8EE"/>
</linearGradient>
<linearGradient id="paint6_linear_215_264" x1="23.5" y1="32" x2="23.5" y2="51" gradientUnits="userSpaceOnUse">
<stop stop-color="#70E0FF"/>
<stop offset="1" stop-color="#02A5D2"/>
</linearGradient>
<linearGradient id="paint7_linear_215_264" x1="23.5" y1="32" x2="23.5" y2="51" gradientUnits="userSpaceOnUse">
<stop stop-color="#2D96C5"/>
<stop offset="1" stop-color="#1D7EAA"/>
</linearGradient>
<linearGradient id="paint8_linear_215_264" x1="23.5" y1="32" x2="23.5" y2="51" gradientUnits="userSpaceOnUse">
<stop stop-color="#F6F6F6"/>
<stop offset="1" stop-color="#3AC7FF"/>
</linearGradient>
<linearGradient id="paint9_linear_215_264" x1="14" y1="66.5" x2="33" y2="66.5" gradientUnits="userSpaceOnUse">
<stop stop-color="#DEF5FF"/>
<stop offset="1" stop-color="#3CB8EE"/>
</linearGradient>
<linearGradient id="paint10_linear_215_264" x1="23.5" y1="57" x2="23.5" y2="76" gradientUnits="userSpaceOnUse">
<stop stop-color="#70E0FF"/>
<stop offset="1" stop-color="#02A5D2"/>
</linearGradient>
<linearGradient id="paint11_linear_215_264" x1="23.5" y1="57" x2="23.5" y2="76" gradientUnits="userSpaceOnUse">
<stop stop-color="#2D96C5"/>
<stop offset="1" stop-color="#1D7EAA"/>
</linearGradient>
<linearGradient id="paint12_linear_215_264" x1="23.5" y1="57" x2="23.5" y2="76" gradientUnits="userSpaceOnUse">
<stop stop-color="#F6F6F6"/>
<stop offset="1" stop-color="#3AC7FF"/>
</linearGradient>
<linearGradient id="paint13_linear_215_264" x1="55" y1="18.5" x2="74" y2="18.5" gradientUnits="userSpaceOnUse">
<stop stop-color="#DEF5FF"/>
<stop offset="1" stop-color="#3CB8EE"/>
</linearGradient>
<linearGradient id="paint14_linear_215_264" x1="64.5" y1="9" x2="64.5" y2="28" gradientUnits="userSpaceOnUse">
<stop stop-color="#70E0FF"/>
<stop offset="1" stop-color="#02A5D2"/>
</linearGradient>
<linearGradient id="paint15_linear_215_264" x1="64.5" y1="9" x2="64.5" y2="28" gradientUnits="userSpaceOnUse">
<stop stop-color="#2D96C5"/>
<stop offset="1" stop-color="#1D7EAA"/>
</linearGradient>
<linearGradient id="paint16_linear_215_264" x1="64.5" y1="9" x2="64.5" y2="28" gradientUnits="userSpaceOnUse">
<stop stop-color="#F6F6F6"/>
<stop offset="1" stop-color="#3AC7FF"/>
</linearGradient>
<linearGradient id="paint17_linear_215_264" x1="55" y1="41.5" x2="74" y2="41.5" gradientUnits="userSpaceOnUse">
<stop stop-color="#DEF5FF"/>
<stop offset="1" stop-color="#3CB8EE"/>
</linearGradient>
<linearGradient id="paint18_linear_215_264" x1="64.5" y1="32" x2="64.5" y2="51" gradientUnits="userSpaceOnUse">
<stop stop-color="#70E0FF"/>
<stop offset="1" stop-color="#02A5D2"/>
</linearGradient>
<linearGradient id="paint19_linear_215_264" x1="64.5" y1="32" x2="64.5" y2="51" gradientUnits="userSpaceOnUse">
<stop stop-color="#2D96C5"/>
<stop offset="1" stop-color="#1D7EAA"/>
</linearGradient>
<linearGradient id="paint20_linear_215_264" x1="64.5" y1="32" x2="64.5" y2="51" gradientUnits="userSpaceOnUse">
<stop stop-color="#F6F6F6"/>
<stop offset="1" stop-color="#3AC7FF"/>
</linearGradient>
<linearGradient id="paint21_linear_215_264" x1="55" y1="66.5" x2="74" y2="66.5" gradientUnits="userSpaceOnUse">
<stop stop-color="#DEF5FF"/>
<stop offset="1" stop-color="#3CB8EE"/>
</linearGradient>
<linearGradient id="paint22_linear_215_264" x1="64.5" y1="57" x2="64.5" y2="76" gradientUnits="userSpaceOnUse">
<stop stop-color="#70E0FF"/>
<stop offset="1" stop-color="#02A5D2"/>
</linearGradient>
<linearGradient id="paint23_linear_215_264" x1="64.5" y1="57" x2="64.5" y2="76" gradientUnits="userSpaceOnUse">
<stop stop-color="#2D96C5"/>
<stop offset="1" stop-color="#1D7EAA"/>
</linearGradient>
<linearGradient id="paint24_linear_215_264" x1="64.5" y1="57" x2="64.5" y2="76" gradientUnits="userSpaceOnUse">
<stop stop-color="#F6F6F6"/>
<stop offset="1" stop-color="#3AC7FF"/>
</linearGradient>
</defs>
</svg>
