<svg width="89" height="82" viewBox="0 0 89 82" fill="none" xmlns="http://www.w3.org/2000/svg">
<rect width="88.6143" height="82" rx="12" fill="url(#paint0_linear_215_241)"/>
<path d="M71.015 48.0844C70.8107 48.0177 70.593 48.0169 70.3883 48.082L59.2843 51.6119C58.1824 51.9622 58.2534 53.6768 59.3799 53.9189L70.2408 56.2533C70.3998 56.2875 70.5638 56.2831 70.7212 56.2406L80.6768 53.5467C81.7591 53.2538 81.7956 51.6035 80.7275 51.2548L71.015 48.0844Z" fill="url(#paint1_linear_215_241)"/>
<path d="M81.9069 53.0154C81.9069 51.7124 80.724 50.7951 79.584 51.2141L71.455 54.2023C70.7421 54.4643 70.2626 55.1887 70.2626 56.0036V72L80.7967 67.4823C81.4668 67.1949 81.9069 66.4939 81.9069 65.7137V53.0154Z" fill="url(#paint2_linear_215_241)"/>
<path d="M70.3631 55.873C70.3686 55.0071 69.8331 54.2463 69.0602 54.0223L60.2813 51.4772C59.1651 51.1536 58.069 52.064 58.069 53.3148V66.4432C58.069 67.2734 58.5664 68.0078 59.2979 68.2575L70.2606 72L70.3631 55.873Z" fill="url(#paint3_linear_215_241)"/>
<path d="M78.7212 51.1925L70.1527 48.1011L70.702 47.9822L81.0281 51.3114C80.4788 51.1925 80.6985 52.3815 80.5887 51.9059C80.4926 51.49 79.9296 51.4303 79.4902 51.4303C79.0508 51.4303 71.3611 54.4028 71.0315 54.7595C70.702 55.1162 70.1959 71.1691 70.2626 68.0763C70.2908 66.7684 69.8232 54.7595 69.3837 54.5217C68.9443 54.2839 61.3645 52.2626 60.3759 52.1437C59.5849 52.0486 58.5816 52.5797 58.1788 52.8571C58.252 52.5797 58.4864 51.9773 58.8379 51.787C59.1894 51.5968 60.1561 51.3114 60.5956 51.1925L70.5921 54.2839L78.7212 51.1925Z" fill="white" fill-opacity="0.57" style="mix-blend-mode:screen"/>
<path d="M78.7212 51.1925L70.1527 48.1011L70.702 47.9822L81.0281 51.3114C80.4788 51.1925 80.6985 52.3815 80.5887 51.9059C80.4926 51.49 79.9296 51.4303 79.4902 51.4303C79.0508 51.4303 71.3611 54.4028 71.0315 54.7595C70.702 55.1162 70.1959 71.1691 70.2626 68.0763C70.2908 66.7684 69.8232 54.7595 69.3837 54.5217C68.9443 54.2839 61.3645 52.2626 60.3759 52.1437C59.5849 52.0486 58.5816 52.5797 58.1788 52.8571C58.252 52.5797 58.4864 51.9773 58.8379 51.787C59.1894 51.5968 60.1561 51.3114 60.5956 51.1925L70.5921 54.2839L78.7212 51.1925Z" fill="#2E89B6" fill-opacity="0.7" style="mix-blend-mode:color-dodge"/>
<path d="M72.899 53.9272C73.1514 54.0312 80.8084 67.4819 80.8084 67.4819L78.831 68.3142L71.6906 54.4029C72.1807 54.1263 72.6466 53.8233 72.899 53.9272Z" fill="#92DCEE" fill-opacity="0.21"/>
<path d="M70.4823 62.8446C70.4823 62.4878 75.0961 69.7939 75.0961 69.7939L74.3814 70.0961L70.4823 64.0337V62.8446Z" fill="#92DCEE" fill-opacity="0.21"/>
<path d="M64.3305 50.0035L75.5355 52.3815L76.1946 52.1437L66.967 49.1712L64.3305 50.0035Z" fill="url(#paint4_linear_215_241)"/>
<path d="M80.6986 57.019C80.6986 55.402 80.2593 52.7382 79.0509 51.5492C79.2707 51.4299 80.5415 51.0672 80.9184 51.3118C82.0169 52.0248 81.8705 52.8575 81.907 53.5709C81.9437 57.2172 82.0965 64.8096 81.907 65.9365C81.6872 67.244 80.8086 67.4814 79.9297 67.8385L70.2626 72L70.2627 70.5736C73.2287 69.345 79.4023 66.7926 80.369 66.4121C81.5774 65.9365 80.6986 59.0403 80.6986 57.019Z" fill="#F8F8F8" fill-opacity="0.18" style="mix-blend-mode:overlay"/>
<path d="M80.6986 57.019C80.6986 55.402 80.2593 52.7382 79.0509 51.5492C79.2707 51.4299 80.5415 51.0672 80.9184 51.3118C82.0169 52.0248 81.8705 52.8575 81.907 53.5709C81.9437 57.2172 82.0965 64.8096 81.907 65.9365C81.6872 67.244 80.8086 67.4814 79.9297 67.8385L70.2626 72L70.2627 70.5736C73.2287 69.345 79.4023 66.7926 80.369 66.4121C81.5774 65.9365 80.6986 59.0403 80.6986 57.019Z" fill="#F8F8F8" fill-opacity="0.18" style="mix-blend-mode:overlay"/>
<path d="M59.3867 57.815C59.3867 56.198 60.1561 53.5705 61.3645 52.3815C61.1447 52.2622 59.105 51.6612 58.728 51.9059C57.6295 52.6189 58.2148 53.6535 58.1782 54.3669C58.1416 58.0132 57.9888 65.6056 58.1782 66.7325C58.3981 68.04 59.2769 68.1949 60.1557 68.5519L70.2626 72L70.2622 70.4543C67.2962 69.2257 61.3426 67.7433 60.3759 67.3629C59.1675 66.8872 59.3867 59.8363 59.3867 57.815Z" fill="#F8F8F8" fill-opacity="0.18" style="mix-blend-mode:overlay"/>
<path d="M59.3867 57.815C59.3867 56.198 60.1561 53.5705 61.3645 52.3815C61.1447 52.2622 59.105 51.6612 58.728 51.9059C57.6295 52.6189 58.2148 53.6535 58.1782 54.3669C58.1416 58.0132 57.9888 65.6056 58.1782 66.7325C58.3981 68.04 59.2769 68.1949 60.1557 68.5519L70.2626 72L70.2622 70.4543C67.2962 69.2257 61.3426 67.7433 60.3759 67.3629C59.1675 66.8872 59.3867 59.8363 59.3867 57.815Z" fill="#F8F8F8" fill-opacity="0.18" style="mix-blend-mode:overlay"/>
<path d="M18.9602 10.1022C18.756 10.0355 18.5382 10.0347 18.3335 10.0997L7.22949 13.6296C6.12756 13.9799 6.19861 15.6946 7.32509 15.9367L18.186 18.2711C18.345 18.3053 18.5091 18.3009 18.6664 18.2584L28.622 15.5645C29.7043 15.2716 29.7408 13.6213 28.6727 13.2726L18.9602 10.1022Z" fill="url(#paint5_linear_215_241)"/>
<path d="M29.8521 15.0332C29.8521 13.7302 28.6692 12.8128 27.5293 13.2319L19.4002 16.2201C18.6873 16.4821 18.2078 17.2065 18.2078 18.0214V34.0178L28.7419 29.5001C29.412 29.2127 29.8521 28.5116 29.8521 27.7315V15.0332Z" fill="url(#paint6_linear_215_241)"/>
<path d="M18.3083 17.8908C18.3138 17.0248 17.7783 16.2641 17.0054 16.0401L8.22655 13.495C7.11028 13.1714 6.01417 14.0818 6.01417 15.3326V28.461C6.01417 29.2912 6.51158 30.0256 7.2431 30.2753L18.2058 34.0178L18.3083 17.8908Z" fill="url(#paint7_linear_215_241)"/>
<path d="M26.6664 13.2103L18.0979 10.1189L18.6472 10L28.9733 13.3292C28.424 13.2103 28.6437 14.3993 28.5339 13.9237C28.4378 13.5078 27.8748 13.4481 27.4354 13.4481C26.996 13.4481 19.3063 16.4206 18.9767 16.7773C18.6472 17.134 18.1411 33.1869 18.2078 30.0941C18.236 28.7862 17.7684 16.7773 17.3289 16.5395C16.8895 16.3017 9.30973 14.2804 8.32106 14.1615C7.53012 14.0664 6.52681 14.5975 6.12402 14.8749C6.19725 14.5975 6.4316 13.995 6.78313 13.8048C7.13465 13.6146 8.10136 13.3292 8.54076 13.2103L18.5373 16.3017L26.6664 13.2103Z" fill="white" fill-opacity="0.57" style="mix-blend-mode:screen"/>
<path d="M26.6664 13.2103L18.0979 10.1189L18.6472 10L28.9733 13.3292C28.424 13.2103 28.6437 14.3993 28.5339 13.9237C28.4378 13.5078 27.8748 13.4481 27.4354 13.4481C26.996 13.4481 19.3063 16.4206 18.9767 16.7773C18.6472 17.134 18.1411 33.1869 18.2078 30.0941C18.236 28.7862 17.7684 16.7773 17.3289 16.5395C16.8895 16.3017 9.30973 14.2804 8.32106 14.1615C7.53012 14.0664 6.52681 14.5975 6.12402 14.8749C6.19725 14.5975 6.4316 13.995 6.78313 13.8048C7.13465 13.6146 8.10136 13.3292 8.54076 13.2103L18.5373 16.3017L26.6664 13.2103Z" fill="#2E89B6" fill-opacity="0.7" style="mix-blend-mode:color-dodge"/>
<path d="M20.8442 15.945C21.0966 16.0489 28.7536 29.4996 28.7536 29.4996L26.7762 30.3319L19.6358 16.4206C20.1259 16.144 20.5918 15.8411 20.8442 15.945Z" fill="#92DCEE" fill-opacity="0.21"/>
<path d="M18.4275 24.8624C18.4275 24.5056 23.0413 31.8117 23.0413 31.8117L22.3266 32.1139L18.4275 26.0515V24.8624Z" fill="#92DCEE" fill-opacity="0.21"/>
<path d="M12.2757 12.0213L23.4807 14.3993L24.1398 14.1615L14.9122 11.189L12.2757 12.0213Z" fill="url(#paint8_linear_215_241)"/>
<path d="M28.6438 19.0368C28.6438 17.4197 28.2045 14.756 26.9961 13.567C27.2159 13.4477 28.4867 13.0849 28.8636 13.3296C29.9621 14.0426 29.8157 14.8753 29.8523 15.5887C29.8889 19.235 30.0417 26.8274 29.8523 27.9543C29.6324 29.2618 28.7538 29.4992 27.8749 29.8563L18.2078 34.0178L18.2079 32.5914C21.1739 31.3627 27.3475 28.8104 28.3142 28.4299C29.5226 27.9543 28.6438 21.0581 28.6438 19.0368Z" fill="#F8F8F8" fill-opacity="0.18" style="mix-blend-mode:overlay"/>
<path d="M28.6438 19.0368C28.6438 17.4197 28.2045 14.756 26.9961 13.567C27.2159 13.4477 28.4867 13.0849 28.8636 13.3296C29.9621 14.0426 29.8157 14.8753 29.8523 15.5887C29.8889 19.235 30.0417 26.8274 29.8523 27.9543C29.6324 29.2618 28.7538 29.4992 27.8749 29.8563L18.2078 34.0178L18.2079 32.5914C21.1739 31.3627 27.3475 28.8104 28.3142 28.4299C29.5226 27.9543 28.6438 21.0581 28.6438 19.0368Z" fill="#F8F8F8" fill-opacity="0.18" style="mix-blend-mode:overlay"/>
<path d="M7.33189 19.8328C7.33189 18.2157 8.10136 15.5882 9.30973 14.3992C9.08991 14.28 7.05016 13.679 6.67324 13.9236C5.57471 14.6366 6.16001 15.6713 6.12344 16.3847C6.08682 20.031 5.93397 27.6234 6.12344 28.7503C6.34328 30.0578 7.22209 30.2126 8.10094 30.5697L18.2078 34.0178L18.2074 32.4721C15.2414 31.2435 9.28776 29.7611 8.32106 29.3806C7.11269 28.905 7.33189 21.8541 7.33189 19.8328Z" fill="#F8F8F8" fill-opacity="0.18" style="mix-blend-mode:overlay"/>
<path d="M7.33189 19.8328C7.33189 18.2157 8.10136 15.5882 9.30973 14.3992C9.08991 14.28 7.05016 13.679 6.67324 13.9236C5.57471 14.6366 6.16001 15.6713 6.12344 16.3847C6.08682 20.031 5.93397 27.6234 6.12344 28.7503C6.34328 30.0578 7.22209 30.2126 8.10094 30.5697L18.2078 34.0178L18.2074 32.4721C15.2414 31.2435 9.28776 29.7611 8.32106 29.3806C7.11269 28.905 7.33189 21.8541 7.33189 19.8328Z" fill="#F8F8F8" fill-opacity="0.18" style="mix-blend-mode:overlay"/>
<defs>
<linearGradient id="paint0_linear_215_241" x1="45.3897" y1="82" x2="42.8665" y2="0.0110224" gradientUnits="userSpaceOnUse">
<stop stop-color="#78C0FF"/>
<stop offset="1" stop-color="#DFF0FF"/>
</linearGradient>
<linearGradient id="paint1_linear_215_241" x1="82" y1="41" x2="6" y2="41" gradientUnits="userSpaceOnUse">
<stop stop-color="#DEF5FF"/>
<stop offset="1" stop-color="#3CB8EE"/>
</linearGradient>
<linearGradient id="paint2_linear_215_241" x1="44" y1="10" x2="44" y2="72" gradientUnits="userSpaceOnUse">
<stop stop-color="#70E0FF"/>
<stop offset="1" stop-color="#02A5D2"/>
</linearGradient>
<linearGradient id="paint3_linear_215_241" x1="44" y1="10" x2="44" y2="72" gradientUnits="userSpaceOnUse">
<stop stop-color="#2D96C5"/>
<stop offset="1" stop-color="#1D7EAA"/>
</linearGradient>
<linearGradient id="paint4_linear_215_241" x1="44" y1="10" x2="44" y2="72" gradientUnits="userSpaceOnUse">
<stop stop-color="#F6F6F6"/>
<stop offset="1" stop-color="#3AC7FF"/>
</linearGradient>
<linearGradient id="paint5_linear_215_241" x1="82" y1="41" x2="6" y2="41" gradientUnits="userSpaceOnUse">
<stop stop-color="#DEF5FF"/>
<stop offset="1" stop-color="#3CB8EE"/>
</linearGradient>
<linearGradient id="paint6_linear_215_241" x1="44" y1="10" x2="44" y2="72" gradientUnits="userSpaceOnUse">
<stop stop-color="#70E0FF"/>
<stop offset="1" stop-color="#02A5D2"/>
</linearGradient>
<linearGradient id="paint7_linear_215_241" x1="44" y1="10" x2="44" y2="72" gradientUnits="userSpaceOnUse">
<stop stop-color="#2D96C5"/>
<stop offset="1" stop-color="#1D7EAA"/>
</linearGradient>
<linearGradient id="paint8_linear_215_241" x1="44" y1="10" x2="44" y2="72" gradientUnits="userSpaceOnUse">
<stop stop-color="#F6F6F6"/>
<stop offset="1" stop-color="#3AC7FF"/>
</linearGradient>
</defs>
</svg>
