<svg width="89" height="82" viewBox="0 0 89 82" fill="none" xmlns="http://www.w3.org/2000/svg">
<rect width="88.6143" height="82" rx="12" fill="url(#paint0_linear_215_236)"/>
<path d="M16.9493 46.9584C17.1638 46.8888 17.3926 46.8879 17.6076 46.9559L29.2697 50.6416C30.427 51.0074 30.3524 52.7977 29.1693 53.0505L17.7625 55.4879C17.5955 55.5236 17.4232 55.5191 17.2579 55.4746L6.80186 52.6618C5.66515 52.356 5.62676 50.6328 6.74855 50.2688L16.9493 46.9584Z" fill="url(#paint1_linear_215_236)"/>
<path d="M5.50988 52.1071C5.50988 50.7466 6.75229 49.7887 7.94951 50.2263L16.4872 53.3464C17.236 53.62 17.7396 54.3764 17.7396 55.2272V71.9297L6.67587 67.2126C5.97208 66.9125 5.50988 66.1805 5.50988 65.3659V52.1071Z" fill="url(#paint2_linear_215_236)"/>
<path d="M17.634 55.0908C17.6282 54.1867 18.1907 53.3924 19.0024 53.1584L28.2225 50.501C29.3949 50.1631 30.5462 51.1137 30.5462 52.4197V66.1276C30.5462 66.9945 30.0237 67.7613 29.2554 68.022L17.7417 71.9297L17.634 55.0908Z" fill="url(#paint3_linear_215_236)"/>
<path d="M8.85574 50.2037L17.855 46.9759L17.2781 46.8517L6.43287 50.3279C7.00975 50.2037 6.779 51.4452 6.89437 50.9486C6.99526 50.5144 7.58662 50.452 8.04812 50.452C8.50962 50.452 16.5858 53.5557 16.932 53.9282C17.2781 54.3006 17.8096 71.0622 17.7396 67.8328C17.71 66.4672 18.2011 53.9282 18.6626 53.6799C19.1241 53.4316 27.0849 51.3211 28.1233 51.1969C28.954 51.0976 30.0077 51.6521 30.4308 51.9418C30.3539 51.6521 30.1077 51.0231 29.7385 50.8245C29.3693 50.6258 28.354 50.3279 27.8925 50.2037L17.3935 53.4316L8.85574 50.2037Z" fill="white" fill-opacity="0.57" style="mix-blend-mode:screen"/>
<path d="M8.85574 50.2037L17.855 46.9759L17.2781 46.8517L6.43287 50.3279C7.00975 50.2037 6.779 51.4452 6.89437 50.9486C6.99526 50.5144 7.58662 50.452 8.04812 50.452C8.50962 50.452 16.5858 53.5557 16.932 53.9282C17.2781 54.3006 17.8096 71.0622 17.7396 67.8328C17.71 66.4672 18.2011 53.9282 18.6626 53.6799C19.1241 53.4316 27.0849 51.3211 28.1233 51.1969C28.954 51.0976 30.0077 51.6521 30.4308 51.9418C30.3539 51.6521 30.1077 51.0231 29.7385 50.8245C29.3693 50.6258 28.354 50.3279 27.8925 50.2037L17.3935 53.4316L8.85574 50.2037Z" fill="#2E89B6" fill-opacity="0.7" style="mix-blend-mode:color-dodge"/>
<path d="M14.9706 53.0592C14.7055 53.1677 6.66362 67.2121 6.66362 67.2121L8.74037 68.0812L16.2397 53.5558C15.725 53.267 15.2357 52.9506 14.9706 53.0592Z" fill="#92DCEE" fill-opacity="0.21"/>
<path d="M17.5088 62.3702C17.5088 61.9976 12.6631 69.6262 12.6631 69.6262L13.4137 69.9418L17.5088 63.6118V62.3702Z" fill="#92DCEE" fill-opacity="0.21"/>
<path d="M23.9698 48.9623L12.2016 51.4452L11.5094 51.1969L21.2008 48.0932L23.9698 48.9623Z" fill="url(#paint4_linear_215_236)"/>
<path d="M6.77894 56.2874C6.77894 54.599 7.24032 51.8177 8.50944 50.5762C8.27857 50.4516 6.94394 50.0729 6.54807 50.3283C5.39432 51.0728 5.54814 51.9422 5.50974 52.6871C5.47128 56.4943 5.31074 64.4219 5.50974 65.5986C5.74063 66.9638 6.66341 67.2117 7.58644 67.5845L17.7396 71.9297L17.7394 70.4403C14.6244 69.1575 8.14036 66.4924 7.12506 66.0951C5.85594 65.5986 6.77894 58.3979 6.77894 56.2874Z" fill="#F8F8F8" fill-opacity="0.18" style="mix-blend-mode:overlay"/>
<path d="M6.77894 56.2874C6.77894 54.599 7.24032 51.8177 8.50944 50.5762C8.27857 50.4516 6.94394 50.0729 6.54807 50.3283C5.39432 51.0728 5.54814 51.9422 5.50974 52.6871C5.47128 56.4943 5.31074 64.4219 5.50974 65.5986C5.74063 66.9638 6.66341 67.2117 7.58644 67.5845L17.7396 71.9297L17.7394 70.4403C14.6244 69.1575 8.14036 66.4924 7.12506 66.0951C5.85594 65.5986 6.77894 58.3979 6.77894 56.2874Z" fill="#F8F8F8" fill-opacity="0.18" style="mix-blend-mode:overlay"/>
<path d="M29.1622 57.1186C29.1622 55.4301 28.354 52.6866 27.0849 51.4452C27.3158 51.3206 29.4581 50.6931 29.8539 50.9486C31.0077 51.693 30.393 52.7734 30.4314 53.5183C30.4698 57.3255 30.6304 65.2531 30.4314 66.4297C30.2005 67.7949 29.2775 67.9566 28.3545 68.3294L17.7396 71.9297L17.74 70.3158C20.8551 69.033 27.108 67.4851 28.1233 67.0879C29.3924 66.5913 29.1622 59.2291 29.1622 57.1186Z" fill="#F8F8F8" fill-opacity="0.18" style="mix-blend-mode:overlay"/>
<path d="M29.1622 57.1186C29.1622 55.4301 28.354 52.6866 27.0849 51.4452C27.3158 51.3206 29.4581 50.6931 29.8539 50.9486C31.0077 51.693 30.393 52.7734 30.4314 53.5183C30.4698 57.3255 30.6304 65.2531 30.4314 66.4297C30.2005 67.7949 29.2775 67.9566 28.3545 68.3294L17.7396 71.9297L17.74 70.3158C20.8551 69.033 27.108 67.4851 28.1233 67.0879C29.3924 66.5913 29.1622 59.2291 29.1622 57.1186Z" fill="#F8F8F8" fill-opacity="0.18" style="mix-blend-mode:overlay"/>
<path d="M44.2851 27.7122C44.4996 27.6426 44.7283 27.6417 44.9433 27.7097L56.6055 31.3954C57.7628 31.7611 57.6882 33.5514 56.5051 33.8043L45.0983 36.2417C44.9312 36.2774 44.7589 36.2729 44.5937 36.2284L34.1376 33.4156C33.0009 33.1098 32.9625 31.3866 34.0843 31.0226L44.2851 27.7122Z" fill="url(#paint5_linear_215_236)"/>
<path d="M32.8457 32.8609C32.8457 31.5004 34.0881 30.5425 35.2853 30.98L43.823 34.1002C44.5717 34.3738 45.0754 35.1302 45.0754 35.981V52.6835L34.0117 47.9664C33.3079 47.6663 32.8457 46.9343 32.8457 46.1197V32.8609Z" fill="url(#paint6_linear_215_236)"/>
<path d="M44.9698 35.8446C44.964 34.9404 45.5265 34.1462 46.3381 33.9122L55.5583 31.2548C56.7307 30.9169 57.8819 31.8675 57.8819 33.1735V46.8814C57.8819 47.7483 57.3595 48.5151 56.5912 48.7758L45.0775 52.6835L44.9698 35.8446Z" fill="url(#paint7_linear_215_236)"/>
<path d="M36.1915 30.9575L45.1907 27.7297L44.6139 27.6055L33.7687 31.0817C34.3455 30.9575 34.1148 32.199 34.2302 31.7024C34.331 31.2682 34.9224 31.2058 35.3839 31.2058C35.8454 31.2058 43.9216 34.3095 44.2677 34.682C44.6139 35.0544 45.1454 51.816 45.0754 48.5866C45.0457 47.221 45.5369 34.682 45.9984 34.4337C46.4599 34.1854 54.4207 32.0749 55.4591 31.9507C56.2898 31.8514 57.3435 32.4059 57.7666 32.6956C57.6896 32.4059 57.4435 31.7769 57.0743 31.5783C56.7051 31.3796 55.6898 31.0817 55.2283 30.9575L44.7292 34.1854L36.1915 30.9575Z" fill="white" fill-opacity="0.57" style="mix-blend-mode:screen"/>
<path d="M36.1915 30.9575L45.1907 27.7297L44.6139 27.6055L33.7687 31.0817C34.3455 30.9575 34.1148 32.199 34.2302 31.7024C34.331 31.2682 34.9224 31.2058 35.3839 31.2058C35.8454 31.2058 43.9216 34.3095 44.2677 34.682C44.6139 35.0544 45.1454 51.816 45.0754 48.5866C45.0457 47.221 45.5369 34.682 45.9984 34.4337C46.4599 34.1854 54.4207 32.0749 55.4591 31.9507C56.2898 31.8514 57.3435 32.4059 57.7666 32.6956C57.6896 32.4059 57.4435 31.7769 57.0743 31.5783C56.7051 31.3796 55.6898 31.0817 55.2283 30.9575L44.7292 34.1854L36.1915 30.9575Z" fill="#2E89B6" fill-opacity="0.7" style="mix-blend-mode:color-dodge"/>
<path d="M42.3064 33.8129C42.0413 33.9215 33.9994 47.9659 33.9994 47.9659L36.0761 48.835L43.5755 34.3096C43.0608 34.0208 42.5715 33.7044 42.3064 33.8129Z" fill="#92DCEE" fill-opacity="0.21"/>
<path d="M44.8446 43.124C44.8446 42.7514 39.9989 50.38 39.9989 50.38L40.7495 50.6956L44.8446 44.3656V43.124Z" fill="#92DCEE" fill-opacity="0.21"/>
<path d="M51.3056 29.716L39.5374 32.199L38.8451 31.9507L48.5366 28.847L51.3056 29.716Z" fill="url(#paint8_linear_215_236)"/>
<path d="M34.1147 37.0412C34.1147 35.3528 34.5761 32.5715 35.8452 31.33C35.6143 31.2054 34.2797 30.8266 33.8838 31.0821C32.7301 31.8266 32.8839 32.696 32.8455 33.4409C32.8071 37.2481 32.6465 45.1757 32.8455 46.3523C33.0764 47.7176 33.9992 47.9654 34.9222 48.3383L45.0754 52.6835L45.0752 51.1941C41.9601 49.9113 35.4761 47.2462 34.4608 46.8489C33.1917 46.3523 34.1147 39.1517 34.1147 37.0412Z" fill="#F8F8F8" fill-opacity="0.18" style="mix-blend-mode:overlay"/>
<path d="M34.1147 37.0412C34.1147 35.3528 34.5761 32.5715 35.8452 31.33C35.6143 31.2054 34.2797 30.8266 33.8838 31.0821C32.7301 31.8266 32.8839 32.696 32.8455 33.4409C32.8071 37.2481 32.6465 45.1757 32.8455 46.3523C33.0764 47.7176 33.9992 47.9654 34.9222 48.3383L45.0754 52.6835L45.0752 51.1941C41.9601 49.9113 35.4761 47.2462 34.4608 46.8489C33.1917 46.3523 34.1147 39.1517 34.1147 37.0412Z" fill="#F8F8F8" fill-opacity="0.18" style="mix-blend-mode:overlay"/>
<path d="M56.498 37.8723C56.498 36.1839 55.6898 33.4404 54.4207 32.1989C54.6516 32.0744 56.7938 31.4469 57.1897 31.7024C58.3435 32.4468 57.7287 33.5272 57.7672 34.272C57.8056 38.0793 57.9662 46.0069 57.7672 47.1835C57.5363 48.5487 56.6133 48.7104 55.6902 49.0832L45.0754 52.6835L45.0758 51.0696C48.1909 49.7868 54.4438 48.2389 55.4591 47.8417C56.7282 47.3451 56.498 39.9829 56.498 37.8723Z" fill="#F8F8F8" fill-opacity="0.18" style="mix-blend-mode:overlay"/>
<path d="M56.498 37.8723C56.498 36.1839 55.6898 33.4404 54.4207 32.1989C54.6516 32.0744 56.7938 31.4469 57.1897 31.7024C58.3435 32.4468 57.7287 33.5272 57.7672 34.272C57.8056 38.0793 57.9662 46.0069 57.7672 47.1835C57.5363 48.5487 56.6133 48.7104 55.6902 49.0832L45.0754 52.6835L45.0758 51.0696C48.1909 49.7868 54.4438 48.2389 55.4591 47.8417C56.7282 47.3451 56.498 39.9829 56.498 37.8723Z" fill="#F8F8F8" fill-opacity="0.18" style="mix-blend-mode:overlay"/>
<path d="M71.6209 7.29957C71.8354 7.22995 72.0641 7.22905 72.2791 7.297L83.9413 10.9827C85.0986 11.3485 85.024 13.1388 83.8409 13.3916L72.434 15.8291C72.267 15.8648 72.0947 15.8602 71.9295 15.8158L61.4734 13.003C60.3367 12.6972 60.2983 10.974 61.4201 10.6099L71.6209 7.29957Z" fill="url(#paint9_linear_215_236)"/>
<path d="M60.1814 12.4483C60.1814 11.0877 61.4238 10.1299 62.6211 10.5674L71.1588 13.6875C71.9075 13.9611 72.4111 14.7175 72.4111 15.5684V32.2709L61.3474 27.5538C60.6436 27.2537 60.1814 26.5217 60.1814 25.7071V12.4483Z" fill="url(#paint10_linear_215_236)"/>
<path d="M72.3056 15.432C72.2998 14.5278 72.8622 13.7335 73.6739 13.4996L82.8941 10.8421C84.0665 10.5042 85.2177 11.4549 85.2177 12.7609V26.4688C85.2177 27.3357 84.6953 28.1024 83.927 28.3632L72.4132 32.2709L72.3056 15.432Z" fill="url(#paint11_linear_215_236)"/>
<path d="M63.5273 10.5449L72.5265 7.31702L71.9496 7.19287L61.1044 10.669C61.6813 10.5449 61.4506 11.7864 61.5659 11.2898C61.6668 10.8555 62.2582 10.7932 62.7197 10.7932C63.1812 10.7932 71.2574 13.8969 71.6035 14.2693C71.9496 14.6418 72.4812 31.4033 72.4111 28.174C72.3815 26.8083 72.8726 14.2693 73.3341 14.021C73.7956 13.7727 81.7565 11.6622 82.7948 11.5381C83.6255 11.4387 84.6793 11.9933 85.1023 12.283C85.0254 11.9933 84.7793 11.3643 84.4101 11.1656C84.0409 10.967 83.0256 10.669 82.5641 10.5449L72.065 13.7727L63.5273 10.5449Z" fill="white" fill-opacity="0.57" style="mix-blend-mode:screen"/>
<path d="M63.5273 10.5449L72.5265 7.31702L71.9496 7.19287L61.1044 10.669C61.6813 10.5449 61.4506 11.7864 61.5659 11.2898C61.6668 10.8555 62.2582 10.7932 62.7197 10.7932C63.1812 10.7932 71.2574 13.8969 71.6035 14.2693C71.9496 14.6418 72.4812 31.4033 72.4111 28.174C72.3815 26.8083 72.8726 14.2693 73.3341 14.021C73.7956 13.7727 81.7565 11.6622 82.7948 11.5381C83.6255 11.4387 84.6793 11.9933 85.1023 12.283C85.0254 11.9933 84.7793 11.3643 84.4101 11.1656C84.0409 10.967 83.0256 10.669 82.5641 10.5449L72.065 13.7727L63.5273 10.5449Z" fill="#2E89B6" fill-opacity="0.7" style="mix-blend-mode:color-dodge"/>
<path d="M69.6421 13.4003C69.377 13.5088 61.3352 27.5533 61.3352 27.5533L63.4119 28.4223L70.9113 13.8969C70.3965 13.6081 69.9072 13.2918 69.6421 13.4003Z" fill="#92DCEE" fill-opacity="0.21"/>
<path d="M72.1804 22.7113C72.1804 22.3387 67.3347 29.9674 67.3347 29.9674L68.0853 30.2829L72.1804 23.9529V22.7113Z" fill="#92DCEE" fill-opacity="0.21"/>
<path d="M78.6414 9.30339L66.8732 11.7864L66.1809 11.5381L75.8724 8.43436L78.6414 9.30339Z" fill="url(#paint12_linear_215_236)"/>
<path d="M61.4505 16.6286C61.4505 14.9401 61.9119 12.1588 63.181 10.9173C62.9501 10.7928 61.6155 10.414 61.2196 10.6694C60.0659 11.4139 60.2197 12.2834 60.1813 13.0283C60.1428 16.8355 59.9823 24.7631 60.1813 25.9397C60.4122 27.3049 61.335 27.5528 62.258 27.9257L72.4111 32.2709L72.411 30.7815C69.2959 29.4986 62.8119 26.8336 61.7966 26.4363C60.5275 25.9397 61.4505 18.7391 61.4505 16.6286Z" fill="#F8F8F8" fill-opacity="0.18" style="mix-blend-mode:overlay"/>
<path d="M61.4505 16.6286C61.4505 14.9401 61.9119 12.1588 63.181 10.9173C62.9501 10.7928 61.6155 10.414 61.2196 10.6694C60.0659 11.4139 60.2197 12.2834 60.1813 13.0283C60.1428 16.8355 59.9823 24.7631 60.1813 25.9397C60.4122 27.3049 61.335 27.5528 62.258 27.9257L72.4111 32.2709L72.411 30.7815C69.2959 29.4986 62.8119 26.8336 61.7966 26.4363C60.5275 25.9397 61.4505 18.7391 61.4505 16.6286Z" fill="#F8F8F8" fill-opacity="0.18" style="mix-blend-mode:overlay"/>
<path d="M83.8337 17.4597C83.8337 15.7713 83.0256 13.0278 81.7565 11.7863C81.9873 11.6618 84.1296 11.0343 84.5255 11.2897C85.6792 12.0342 85.0645 13.1145 85.1029 13.8594C85.1414 17.6666 85.3019 25.5942 85.1029 26.7708C84.872 28.1361 83.9491 28.2977 83.026 28.6706L72.4111 32.2709L72.4116 30.657C75.5266 29.3741 81.7795 27.8263 82.7948 27.429C84.064 26.9324 83.8337 19.5702 83.8337 17.4597Z" fill="#F8F8F8" fill-opacity="0.18" style="mix-blend-mode:overlay"/>
<path d="M83.8337 17.4597C83.8337 15.7713 83.0256 13.0278 81.7565 11.7863C81.9873 11.6618 84.1296 11.0343 84.5255 11.2897C85.6792 12.0342 85.0645 13.1145 85.1029 13.8594C85.1414 17.6666 85.3019 25.5942 85.1029 26.7708C84.872 28.1361 83.9491 28.2977 83.026 28.6706L72.4111 32.2709L72.4116 30.657C75.5266 29.3741 81.7795 27.8263 82.7948 27.429C84.064 26.9324 83.8337 19.5702 83.8337 17.4597Z" fill="#F8F8F8" fill-opacity="0.18" style="mix-blend-mode:overlay"/>
<defs>
<linearGradient id="paint0_linear_215_236" x1="45.3897" y1="82" x2="42.8665" y2="0.0110224" gradientUnits="userSpaceOnUse">
<stop stop-color="#78C0FF"/>
<stop offset="1" stop-color="#DFF0FF"/>
</linearGradient>
<linearGradient id="paint1_linear_215_236" x1="5.41211" y1="39.5613" x2="85.2326" y2="39.5613" gradientUnits="userSpaceOnUse">
<stop stop-color="#DEF5FF"/>
<stop offset="1" stop-color="#3CB8EE"/>
</linearGradient>
<linearGradient id="paint2_linear_215_236" x1="45.3223" y1="7.19287" x2="45.3223" y2="71.9297" gradientUnits="userSpaceOnUse">
<stop stop-color="#70E0FF"/>
<stop offset="1" stop-color="#02A5D2"/>
</linearGradient>
<linearGradient id="paint3_linear_215_236" x1="45.3223" y1="7.19287" x2="45.3223" y2="71.9297" gradientUnits="userSpaceOnUse">
<stop stop-color="#2D96C5"/>
<stop offset="1" stop-color="#1D7EAA"/>
</linearGradient>
<linearGradient id="paint4_linear_215_236" x1="45.3223" y1="7.19287" x2="45.3223" y2="71.9297" gradientUnits="userSpaceOnUse">
<stop stop-color="#F6F6F6"/>
<stop offset="1" stop-color="#3AC7FF"/>
</linearGradient>
<linearGradient id="paint5_linear_215_236" x1="5.41211" y1="39.5613" x2="85.2326" y2="39.5613" gradientUnits="userSpaceOnUse">
<stop stop-color="#DEF5FF"/>
<stop offset="1" stop-color="#3CB8EE"/>
</linearGradient>
<linearGradient id="paint6_linear_215_236" x1="45.3223" y1="7.19287" x2="45.3223" y2="71.9297" gradientUnits="userSpaceOnUse">
<stop stop-color="#70E0FF"/>
<stop offset="1" stop-color="#02A5D2"/>
</linearGradient>
<linearGradient id="paint7_linear_215_236" x1="45.3223" y1="7.19287" x2="45.3223" y2="71.9297" gradientUnits="userSpaceOnUse">
<stop stop-color="#2D96C5"/>
<stop offset="1" stop-color="#1D7EAA"/>
</linearGradient>
<linearGradient id="paint8_linear_215_236" x1="45.3223" y1="7.19287" x2="45.3223" y2="71.9297" gradientUnits="userSpaceOnUse">
<stop stop-color="#F6F6F6"/>
<stop offset="1" stop-color="#3AC7FF"/>
</linearGradient>
<linearGradient id="paint9_linear_215_236" x1="5.41211" y1="39.5613" x2="85.2326" y2="39.5613" gradientUnits="userSpaceOnUse">
<stop stop-color="#DEF5FF"/>
<stop offset="1" stop-color="#3CB8EE"/>
</linearGradient>
<linearGradient id="paint10_linear_215_236" x1="45.3223" y1="7.19287" x2="45.3223" y2="71.9297" gradientUnits="userSpaceOnUse">
<stop stop-color="#70E0FF"/>
<stop offset="1" stop-color="#02A5D2"/>
</linearGradient>
<linearGradient id="paint11_linear_215_236" x1="45.3223" y1="7.19287" x2="45.3223" y2="71.9297" gradientUnits="userSpaceOnUse">
<stop stop-color="#2D96C5"/>
<stop offset="1" stop-color="#1D7EAA"/>
</linearGradient>
<linearGradient id="paint12_linear_215_236" x1="45.3223" y1="7.19287" x2="45.3223" y2="71.9297" gradientUnits="userSpaceOnUse">
<stop stop-color="#F6F6F6"/>
<stop offset="1" stop-color="#3AC7FF"/>
</linearGradient>
</defs>
</svg>
