<svg width="89" height="82" viewBox="0 0 89 82" fill="none" xmlns="http://www.w3.org/2000/svg">
<rect width="88.6143" height="82" rx="12" fill="url(#paint0_linear_215_237)"/>
<path d="M42.5372 28.1067C42.7517 28.0371 42.9805 28.0362 43.1955 28.1041L54.8576 31.7899C56.0149 32.1556 55.9403 33.9459 54.7572 34.1987L43.3504 36.6362C43.1833 36.6719 43.011 36.6673 42.8458 36.6229L32.3897 33.8101C31.253 33.5043 31.2147 31.7811 32.3364 31.4171L42.5372 28.1067Z" fill="url(#paint1_linear_215_237)"/>
<path d="M31.0978 33.2554C31.0978 31.8949 32.3402 30.937 33.5374 31.3745L42.0751 34.4946C42.8238 34.7683 43.3275 35.5246 43.3275 36.3755V53.078L32.2638 48.3609C31.56 48.0608 31.0978 47.3288 31.0978 46.5142V33.2554Z" fill="url(#paint2_linear_215_237)"/>
<path d="M43.2219 36.2391C43.2161 35.3349 43.7786 34.5406 44.5902 34.3067L53.8104 31.6493C54.9828 31.3114 56.134 32.262 56.134 33.568V47.2759C56.134 48.1428 55.6116 48.9095 54.8433 49.1703L43.3296 53.078L43.2219 36.2391Z" fill="url(#paint3_linear_215_237)"/>
<path d="M34.4436 31.352L43.4428 28.1241L42.866 28L32.0208 31.4762C32.5976 31.352 32.3669 32.5935 32.4823 32.0969C32.5832 31.6626 33.1745 31.6003 33.636 31.6003C34.0975 31.6003 42.1737 34.704 42.5198 35.0765C42.866 35.4489 43.3975 52.2105 43.3275 48.9811C43.2979 47.6155 43.789 35.0765 44.2505 34.8282C44.712 34.5799 52.6728 32.4693 53.7112 32.3452C54.5419 32.2459 55.5956 32.8004 56.0187 33.0901C55.9418 32.8004 55.6956 32.1714 55.3264 31.9727C54.9572 31.7741 53.9419 31.4762 53.4804 31.352L42.9813 34.5799L34.4436 31.352Z" fill="white" fill-opacity="0.57" style="mix-blend-mode:screen"/>
<path d="M34.4436 31.352L43.4428 28.1241L42.866 28L32.0208 31.4762C32.5976 31.352 32.3669 32.5935 32.4823 32.0969C32.5832 31.6626 33.1745 31.6003 33.636 31.6003C34.0975 31.6003 42.1737 34.704 42.5198 35.0765C42.866 35.4489 43.3975 52.2105 43.3275 48.9811C43.2979 47.6155 43.789 35.0765 44.2505 34.8282C44.712 34.5799 52.6728 32.4693 53.7112 32.3452C54.5419 32.2459 55.5956 32.8004 56.0187 33.0901C55.9418 32.8004 55.6956 32.1714 55.3264 31.9727C54.9572 31.7741 53.9419 31.4762 53.4804 31.352L42.9813 34.5799L34.4436 31.352Z" fill="#2E89B6" fill-opacity="0.7" style="mix-blend-mode:color-dodge"/>
<path d="M40.5585 34.2074C40.2934 34.3159 32.2515 48.3604 32.2515 48.3604L34.3283 49.2294L41.8276 34.7041C41.3129 34.4153 40.8236 34.0989 40.5585 34.2074Z" fill="#92DCEE" fill-opacity="0.21"/>
<path d="M43.0967 43.5184C43.0967 43.1459 38.251 50.7745 38.251 50.7745L39.0016 51.09L43.0967 44.76V43.5184Z" fill="#92DCEE" fill-opacity="0.21"/>
<path d="M49.5577 30.1105L37.7895 32.5935L37.0972 32.3452L46.7887 29.2415L49.5577 30.1105Z" fill="url(#paint4_linear_215_237)"/>
<path d="M32.3668 37.4357C32.3668 35.7473 32.8282 32.9659 34.0973 31.7245C33.8665 31.5999 32.5318 31.2211 32.136 31.4766C30.9822 32.221 31.136 33.0905 31.0976 33.8354C31.0592 37.6426 30.8986 45.5702 31.0976 46.7468C31.3285 48.112 32.2513 48.3599 33.1743 48.7328L43.3275 53.078L43.3273 51.5886C40.2122 50.3057 33.7282 47.6407 32.713 47.2434C31.4438 46.7468 32.3668 39.5462 32.3668 37.4357Z" fill="#F8F8F8" fill-opacity="0.18" style="mix-blend-mode:overlay"/>
<path d="M32.3668 37.4357C32.3668 35.7473 32.8282 32.9659 34.0973 31.7245C33.8665 31.5999 32.5318 31.2211 32.136 31.4766C30.9822 32.221 31.136 33.0905 31.0976 33.8354C31.0592 37.6426 30.8986 45.5702 31.0976 46.7468C31.3285 48.112 32.2513 48.3599 33.1743 48.7328L43.3275 53.078L43.3273 51.5886C40.2122 50.3057 33.7282 47.6407 32.713 47.2434C31.4438 46.7468 32.3668 39.5462 32.3668 37.4357Z" fill="#F8F8F8" fill-opacity="0.18" style="mix-blend-mode:overlay"/>
<path d="M54.7501 38.2668C54.7501 36.5784 53.9419 33.8349 52.6728 32.5934C52.9037 32.4689 55.046 31.8414 55.4418 32.0968C56.5956 32.8413 55.9809 33.9216 56.0193 34.6665C56.0577 38.4737 56.2183 46.4013 56.0193 47.578C55.7884 48.9432 54.8654 49.1049 53.9424 49.4777L43.3275 53.078L43.3279 51.4641C46.443 50.1812 52.6959 48.6334 53.7112 48.2361C54.9803 47.7395 54.7501 40.3774 54.7501 38.2668Z" fill="#F8F8F8" fill-opacity="0.18" style="mix-blend-mode:overlay"/>
<path d="M54.7501 38.2668C54.7501 36.5784 53.9419 33.8349 52.6728 32.5934C52.9037 32.4689 55.046 31.8414 55.4418 32.0968C56.5956 32.8413 55.9809 33.9216 56.0193 34.6665C56.0577 38.4737 56.2183 46.4013 56.0193 47.578C55.7884 48.9432 54.8654 49.1049 53.9424 49.4777L43.3275 53.078L43.3279 51.4641C46.443 50.1812 52.6959 48.6334 53.7112 48.2361C54.9803 47.7395 54.7501 40.3774 54.7501 38.2668Z" fill="#F8F8F8" fill-opacity="0.18" style="mix-blend-mode:overlay"/>
<defs>
<linearGradient id="paint0_linear_215_237" x1="45.3897" y1="82" x2="42.8665" y2="0.0110224" gradientUnits="userSpaceOnUse">
<stop stop-color="#78C0FF"/>
<stop offset="1" stop-color="#DFF0FF"/>
</linearGradient>
<linearGradient id="paint1_linear_215_237" x1="31" y1="40.539" x2="56.1489" y2="40.539" gradientUnits="userSpaceOnUse">
<stop stop-color="#DEF5FF"/>
<stop offset="1" stop-color="#3CB8EE"/>
</linearGradient>
<linearGradient id="paint2_linear_215_237" x1="43.5745" y1="28" x2="43.5745" y2="53.078" gradientUnits="userSpaceOnUse">
<stop stop-color="#70E0FF"/>
<stop offset="1" stop-color="#02A5D2"/>
</linearGradient>
<linearGradient id="paint3_linear_215_237" x1="43.5745" y1="28" x2="43.5745" y2="53.078" gradientUnits="userSpaceOnUse">
<stop stop-color="#2D96C5"/>
<stop offset="1" stop-color="#1D7EAA"/>
</linearGradient>
<linearGradient id="paint4_linear_215_237" x1="43.5745" y1="28" x2="43.5745" y2="53.078" gradientUnits="userSpaceOnUse">
<stop stop-color="#F6F6F6"/>
<stop offset="1" stop-color="#3AC7FF"/>
</linearGradient>
</defs>
</svg>
