<svg width="89" height="82" viewBox="0 0 89 82" fill="none" xmlns="http://www.w3.org/2000/svg">
<rect width="88.6143" height="82" rx="12" fill="url(#paint0_linear_215_245)"/>
<path d="M73.6952 46.9584C73.4807 46.8888 73.252 46.8879 73.037 46.9559L61.3748 50.6416C60.2175 51.0074 60.2921 52.7977 61.4752 53.0505L72.882 55.4879C73.0491 55.5236 73.2214 55.5191 73.3866 55.4746L83.8427 52.6618C84.9794 52.356 85.0178 50.6328 83.896 50.2688L73.6952 46.9584Z" fill="url(#paint1_linear_215_245)"/>
<path d="M85.1347 52.1071C85.1347 50.7466 83.8922 49.7887 82.695 50.2263L74.1573 53.3464C73.4086 53.62 72.905 54.3764 72.905 55.2272V71.9297L83.9687 67.2126C84.6725 66.9125 85.1347 66.1805 85.1347 65.3659V52.1071Z" fill="url(#paint2_linear_215_245)"/>
<path d="M73.0105 55.0908C73.0163 54.1867 72.4539 53.3924 71.6422 53.1584L62.422 50.501C61.2496 50.1631 60.0984 51.1137 60.0984 52.4197V66.1276C60.0984 66.9945 60.6208 67.7613 61.3891 68.022L72.9029 71.9297L73.0105 55.0908Z" fill="url(#paint3_linear_215_245)"/>
<path d="M81.7888 50.2037L72.7896 46.9759L73.3665 46.8517L84.2117 50.3279C83.6348 50.2037 83.8655 51.4452 83.7502 50.9486C83.6493 50.5144 83.0579 50.452 82.5964 50.452C82.1349 50.452 74.0587 53.5557 73.7126 53.9282C73.3665 54.3006 72.8349 71.0622 72.905 67.8328C72.9346 66.4672 72.4435 53.9282 71.982 53.6799C71.5205 53.4316 63.5596 51.3211 62.5212 51.1969C61.6905 51.0976 60.6368 51.6521 60.2138 51.9418C60.2907 51.6521 60.5368 51.0231 60.906 50.8245C61.2752 50.6258 62.2905 50.3279 62.752 50.2037L73.2511 53.4316L81.7888 50.2037Z" fill="white" fill-opacity="0.57" style="mix-blend-mode:screen"/>
<path d="M81.7888 50.2037L72.7896 46.9759L73.3665 46.8517L84.2117 50.3279C83.6348 50.2037 83.8655 51.4452 83.7502 50.9486C83.6493 50.5144 83.0579 50.452 82.5964 50.452C82.1349 50.452 74.0587 53.5557 73.7126 53.9282C73.3665 54.3006 72.8349 71.0622 72.905 67.8328C72.9346 66.4672 72.4435 53.9282 71.982 53.6799C71.5205 53.4316 63.5596 51.3211 62.5212 51.1969C61.6905 51.0976 60.6368 51.6521 60.2138 51.9418C60.2907 51.6521 60.5368 51.0231 60.906 50.8245C61.2752 50.6258 62.2905 50.3279 62.752 50.2037L73.2511 53.4316L81.7888 50.2037Z" fill="#2E89B6" fill-opacity="0.7" style="mix-blend-mode:color-dodge"/>
<path d="M75.6739 53.0592C75.939 53.1677 83.9809 67.2121 83.9809 67.2121L81.9042 68.0812L74.4048 53.5558C74.9196 53.267 75.4088 52.9506 75.6739 53.0592Z" fill="#92DCEE" fill-opacity="0.21"/>
<path d="M73.1357 62.3702C73.1357 61.9976 77.9814 69.6262 77.9814 69.6262L77.2308 69.9418L73.1357 63.6118V62.3702Z" fill="#92DCEE" fill-opacity="0.21"/>
<path d="M66.6747 48.9623L78.4429 51.4452L79.1352 51.1969L69.4437 48.0932L66.6747 48.9623Z" fill="url(#paint4_linear_215_245)"/>
<path d="M83.8656 56.2874C83.8656 54.599 83.4042 51.8177 82.1351 50.5762C82.366 50.4516 83.7006 50.0729 84.0965 50.3283C85.2502 51.0728 85.0964 51.9422 85.1348 52.6871C85.1733 56.4943 85.3338 64.4219 85.1348 65.5986C84.9039 66.9638 83.9811 67.2117 83.0581 67.5845L72.905 71.9297L72.9051 70.4403C76.0202 69.1575 82.5042 66.4924 83.5195 66.0951C84.7886 65.5986 83.8656 58.3979 83.8656 56.2874Z" fill="#F8F8F8" fill-opacity="0.18" style="mix-blend-mode:overlay"/>
<path d="M83.8656 56.2874C83.8656 54.599 83.4042 51.8177 82.1351 50.5762C82.366 50.4516 83.7006 50.0729 84.0965 50.3283C85.2502 51.0728 85.0964 51.9422 85.1348 52.6871C85.1733 56.4943 85.3338 64.4219 85.1348 65.5986C84.9039 66.9638 83.9811 67.2117 83.0581 67.5845L72.905 71.9297L72.9051 70.4403C76.0202 69.1575 82.5042 66.4924 83.5195 66.0951C84.7886 65.5986 83.8656 58.3979 83.8656 56.2874Z" fill="#F8F8F8" fill-opacity="0.18" style="mix-blend-mode:overlay"/>
<path d="M61.4824 57.1186C61.4824 55.4301 62.2905 52.6866 63.5596 51.4452C63.3287 51.3206 61.1865 50.6931 60.7906 50.9486C59.6369 51.693 60.2516 52.7734 60.2132 53.5183C60.1747 57.3255 60.0142 65.2531 60.2132 66.4297C60.444 67.7949 61.367 67.9566 62.2901 68.3294L72.905 71.9297L72.9045 70.3158C69.7894 69.033 63.5365 67.4851 62.5212 67.0879C61.2521 66.5913 61.4824 59.2291 61.4824 57.1186Z" fill="#F8F8F8" fill-opacity="0.18" style="mix-blend-mode:overlay"/>
<path d="M61.4824 57.1186C61.4824 55.4301 62.2905 52.6866 63.5596 51.4452C63.3287 51.3206 61.1865 50.6931 60.7906 50.9486C59.6369 51.693 60.2516 52.7734 60.2132 53.5183C60.1747 57.3255 60.0142 65.2531 60.2132 66.4297C60.444 67.7949 61.367 67.9566 62.2901 68.3294L72.905 71.9297L72.9045 70.3158C69.7894 69.033 63.5365 67.4851 62.5212 67.0879C61.2521 66.5913 61.4824 59.2291 61.4824 57.1186Z" fill="#F8F8F8" fill-opacity="0.18" style="mix-blend-mode:overlay"/>
<path d="M19.0237 7.29957C18.8091 7.22995 18.5804 7.22905 18.3654 7.297L6.70325 10.9827C5.54593 11.3485 5.62054 13.1388 6.80365 13.3916L18.2105 15.8291C18.3775 15.8648 18.5498 15.8602 18.715 15.8158L29.1711 13.003C30.3078 12.6972 30.3462 10.974 29.2244 10.6099L19.0237 7.29957Z" fill="url(#paint5_linear_215_245)"/>
<path d="M30.4631 12.4483C30.4631 11.0877 29.2207 10.1299 28.0235 10.5674L19.4857 13.6875C18.737 13.9611 18.2334 14.7175 18.2334 15.5684V32.2709L29.2971 27.5538C30.0009 27.2537 30.4631 26.5217 30.4631 25.7071V12.4483Z" fill="url(#paint6_linear_215_245)"/>
<path d="M18.339 15.432C18.3447 14.5278 17.7823 13.7335 16.9706 13.4996L7.75043 10.8421C6.57804 10.5042 5.42683 11.4549 5.42683 12.7609V26.4688C5.42683 27.3357 5.94925 28.1024 6.71754 28.3632L18.2313 32.2709L18.339 15.432Z" fill="url(#paint7_linear_215_245)"/>
<path d="M27.1172 10.5449L18.118 7.31702L18.6949 7.19287L29.5401 10.669C28.9632 10.5449 29.194 11.7864 29.0786 11.2898C28.9777 10.8555 28.3864 10.7932 27.9249 10.7932C27.4634 10.7932 19.3871 13.8969 19.041 14.2693C18.6949 14.6418 18.1634 31.4033 18.2334 28.174C18.263 26.8083 17.7719 14.2693 17.3104 14.021C16.8489 13.7727 8.88805 11.6622 7.84969 11.5381C7.01899 11.4387 5.96524 11.9933 5.5422 12.283C5.61912 11.9933 5.86524 11.3643 6.23444 11.1656C6.60365 10.967 7.61894 10.669 8.08044 10.5449L18.5795 13.7727L27.1172 10.5449Z" fill="white" fill-opacity="0.57" style="mix-blend-mode:screen"/>
<path d="M27.1172 10.5449L18.118 7.31702L18.6949 7.19287L29.5401 10.669C28.9632 10.5449 29.194 11.7864 29.0786 11.2898C28.9777 10.8555 28.3864 10.7932 27.9249 10.7932C27.4634 10.7932 19.3871 13.8969 19.041 14.2693C18.6949 14.6418 18.1634 31.4033 18.2334 28.174C18.263 26.8083 17.7719 14.2693 17.3104 14.021C16.8489 13.7727 8.88805 11.6622 7.84969 11.5381C7.01899 11.4387 5.96524 11.9933 5.5422 12.283C5.61912 11.9933 5.86524 11.3643 6.23444 11.1656C6.60365 10.967 7.61894 10.669 8.08044 10.5449L18.5795 13.7727L27.1172 10.5449Z" fill="#2E89B6" fill-opacity="0.7" style="mix-blend-mode:color-dodge"/>
<path d="M21.0024 13.4003C21.2675 13.5088 29.3093 27.5533 29.3093 27.5533L27.2326 28.4223L19.7333 13.8969C20.248 13.6081 20.7373 13.2918 21.0024 13.4003Z" fill="#92DCEE" fill-opacity="0.21"/>
<path d="M18.4641 22.7113C18.4641 22.3387 23.3099 29.9674 23.3099 29.9674L22.5592 30.2829L18.4641 23.9529V22.7113Z" fill="#92DCEE" fill-opacity="0.21"/>
<path d="M12.0032 9.30339L23.7714 11.7864L24.4636 11.5381L14.7722 8.43436L12.0032 9.30339Z" fill="url(#paint8_linear_215_245)"/>
<path d="M29.194 16.6286C29.194 14.9401 28.7327 12.1588 27.4635 10.9173C27.6944 10.7928 29.029 10.414 29.4249 10.6694C30.5787 11.4139 30.4248 12.2834 30.4632 13.0283C30.5017 16.8355 30.6622 24.7631 30.4632 25.9397C30.2323 27.3049 29.3096 27.5528 28.3865 27.9257L18.2334 32.2709L18.2335 30.7815C21.3486 29.4986 27.8326 26.8336 28.8479 26.4363C30.117 25.9397 29.194 18.7391 29.194 16.6286Z" fill="#F8F8F8" fill-opacity="0.18" style="mix-blend-mode:overlay"/>
<path d="M29.194 16.6286C29.194 14.9401 28.7327 12.1588 27.4635 10.9173C27.6944 10.7928 29.029 10.414 29.4249 10.6694C30.5787 11.4139 30.4248 12.2834 30.4632 13.0283C30.5017 16.8355 30.6622 24.7631 30.4632 25.9397C30.2323 27.3049 29.3096 27.5528 28.3865 27.9257L18.2334 32.2709L18.2335 30.7815C21.3486 29.4986 27.8326 26.8336 28.8479 26.4363C30.117 25.9397 29.194 18.7391 29.194 16.6286Z" fill="#F8F8F8" fill-opacity="0.18" style="mix-blend-mode:overlay"/>
<path d="M6.8108 17.4597C6.8108 15.7713 7.61894 13.0278 8.88806 11.7863C8.65719 11.6618 6.51491 11.0343 6.11903 11.2897C4.96529 12.0342 5.58 13.1145 5.5416 13.8594C5.50314 17.6666 5.3426 25.5942 5.5416 26.7708C5.77248 28.1361 6.69547 28.2977 7.61851 28.6706L18.2334 32.2709L18.233 30.657C15.1179 29.3741 8.86498 27.8263 7.84969 27.429C6.58057 26.9324 6.8108 19.5702 6.8108 17.4597Z" fill="#F8F8F8" fill-opacity="0.18" style="mix-blend-mode:overlay"/>
<path d="M6.8108 17.4597C6.8108 15.7713 7.61894 13.0278 8.88806 11.7863C8.65719 11.6618 6.51491 11.0343 6.11903 11.2897C4.96529 12.0342 5.58 13.1145 5.5416 13.8594C5.50314 17.6666 5.3426 25.5942 5.5416 26.7708C5.77248 28.1361 6.69547 28.2977 7.61851 28.6706L18.2334 32.2709L18.233 30.657C15.1179 29.3741 8.86498 27.8263 7.84969 27.429C6.58057 26.9324 6.8108 19.5702 6.8108 17.4597Z" fill="#F8F8F8" fill-opacity="0.18" style="mix-blend-mode:overlay"/>
<path d="M16.9493 46.9584C17.1638 46.8888 17.3926 46.8879 17.6076 46.9559L29.2697 50.6416C30.427 51.0074 30.3524 52.7977 29.1693 53.0505L17.7625 55.4879C17.5955 55.5236 17.4232 55.5191 17.2579 55.4746L6.80186 52.6618C5.66515 52.356 5.62676 50.6328 6.74855 50.2688L16.9493 46.9584Z" fill="url(#paint9_linear_215_245)"/>
<path d="M5.50988 52.1071C5.50988 50.7466 6.75229 49.7887 7.94951 50.2263L16.4872 53.3464C17.236 53.62 17.7396 54.3764 17.7396 55.2272V71.9297L6.67587 67.2126C5.97208 66.9125 5.50988 66.1805 5.50988 65.3659V52.1071Z" fill="url(#paint10_linear_215_245)"/>
<path d="M17.634 55.0908C17.6282 54.1867 18.1907 53.3924 19.0024 53.1584L28.2225 50.501C29.3949 50.1631 30.5462 51.1137 30.5462 52.4197V66.1276C30.5462 66.9945 30.0237 67.7613 29.2554 68.022L17.7417 71.9297L17.634 55.0908Z" fill="url(#paint11_linear_215_245)"/>
<path d="M8.85574 50.2037L17.855 46.9759L17.2781 46.8517L6.43287 50.3279C7.00975 50.2037 6.779 51.4452 6.89437 50.9486C6.99526 50.5144 7.58662 50.452 8.04812 50.452C8.50962 50.452 16.5858 53.5557 16.932 53.9282C17.2781 54.3006 17.8096 71.0622 17.7396 67.8328C17.71 66.4672 18.2011 53.9282 18.6626 53.6799C19.1241 53.4316 27.0849 51.3211 28.1233 51.1969C28.954 51.0976 30.0077 51.6521 30.4308 51.9418C30.3539 51.6521 30.1077 51.0231 29.7385 50.8245C29.3693 50.6258 28.354 50.3279 27.8925 50.2037L17.3935 53.4316L8.85574 50.2037Z" fill="white" fill-opacity="0.57" style="mix-blend-mode:screen"/>
<path d="M8.85574 50.2037L17.855 46.9759L17.2781 46.8517L6.43287 50.3279C7.00975 50.2037 6.779 51.4452 6.89437 50.9486C6.99526 50.5144 7.58662 50.452 8.04812 50.452C8.50962 50.452 16.5858 53.5557 16.932 53.9282C17.2781 54.3006 17.8096 71.0622 17.7396 67.8328C17.71 66.4672 18.2011 53.9282 18.6626 53.6799C19.1241 53.4316 27.0849 51.3211 28.1233 51.1969C28.954 51.0976 30.0077 51.6521 30.4308 51.9418C30.3539 51.6521 30.1077 51.0231 29.7385 50.8245C29.3693 50.6258 28.354 50.3279 27.8925 50.2037L17.3935 53.4316L8.85574 50.2037Z" fill="#2E89B6" fill-opacity="0.7" style="mix-blend-mode:color-dodge"/>
<path d="M14.9706 53.0592C14.7055 53.1677 6.66362 67.2121 6.66362 67.2121L8.74037 68.0812L16.2397 53.5558C15.725 53.267 15.2357 52.9506 14.9706 53.0592Z" fill="#92DCEE" fill-opacity="0.21"/>
<path d="M17.5088 62.3702C17.5088 61.9976 12.6631 69.6262 12.6631 69.6262L13.4137 69.9418L17.5088 63.6118V62.3702Z" fill="#92DCEE" fill-opacity="0.21"/>
<path d="M23.9698 48.9623L12.2016 51.4452L11.5094 51.1969L21.2008 48.0932L23.9698 48.9623Z" fill="url(#paint12_linear_215_245)"/>
<path d="M6.77894 56.2874C6.77894 54.599 7.24032 51.8177 8.50944 50.5762C8.27857 50.4516 6.94394 50.0729 6.54807 50.3283C5.39432 51.0728 5.54814 51.9422 5.50974 52.6871C5.47128 56.4943 5.31074 64.4219 5.50974 65.5986C5.74063 66.9638 6.66341 67.2117 7.58644 67.5845L17.7396 71.9297L17.7394 70.4403C14.6244 69.1575 8.14036 66.4924 7.12506 66.0951C5.85594 65.5986 6.77894 58.3979 6.77894 56.2874Z" fill="#F8F8F8" fill-opacity="0.18" style="mix-blend-mode:overlay"/>
<path d="M6.77894 56.2874C6.77894 54.599 7.24032 51.8177 8.50944 50.5762C8.27857 50.4516 6.94394 50.0729 6.54807 50.3283C5.39432 51.0728 5.54814 51.9422 5.50974 52.6871C5.47128 56.4943 5.31074 64.4219 5.50974 65.5986C5.74063 66.9638 6.66341 67.2117 7.58644 67.5845L17.7396 71.9297L17.7394 70.4403C14.6244 69.1575 8.14036 66.4924 7.12506 66.0951C5.85594 65.5986 6.77894 58.3979 6.77894 56.2874Z" fill="#F8F8F8" fill-opacity="0.18" style="mix-blend-mode:overlay"/>
<path d="M29.1622 57.1186C29.1622 55.4301 28.354 52.6866 27.0849 51.4452C27.3158 51.3206 29.4581 50.6931 29.8539 50.9486C31.0077 51.693 30.393 52.7734 30.4314 53.5183C30.4698 57.3255 30.6304 65.2531 30.4314 66.4297C30.2005 67.7949 29.2775 67.9566 28.3545 68.3294L17.7396 71.9297L17.74 70.3158C20.8551 69.033 27.108 67.4851 28.1233 67.0879C29.3924 66.5913 29.1622 59.2291 29.1622 57.1186Z" fill="#F8F8F8" fill-opacity="0.18" style="mix-blend-mode:overlay"/>
<path d="M29.1622 57.1186C29.1622 55.4301 28.354 52.6866 27.0849 51.4452C27.3158 51.3206 29.4581 50.6931 29.8539 50.9486C31.0077 51.693 30.393 52.7734 30.4314 53.5183C30.4698 57.3255 30.6304 65.2531 30.4314 66.4297C30.2005 67.7949 29.2775 67.9566 28.3545 68.3294L17.7396 71.9297L17.74 70.3158C20.8551 69.033 27.108 67.4851 28.1233 67.0879C29.3924 66.5913 29.1622 59.2291 29.1622 57.1186Z" fill="#F8F8F8" fill-opacity="0.18" style="mix-blend-mode:overlay"/>
<path d="M71.6209 7.29957C71.8354 7.22995 72.0641 7.22905 72.2791 7.297L83.9413 10.9827C85.0986 11.3485 85.024 13.1388 83.8409 13.3916L72.434 15.8291C72.267 15.8648 72.0947 15.8602 71.9295 15.8158L61.4734 13.003C60.3367 12.6972 60.2983 10.974 61.4201 10.6099L71.6209 7.29957Z" fill="url(#paint13_linear_215_245)"/>
<path d="M60.1814 12.4483C60.1814 11.0877 61.4238 10.1299 62.6211 10.5674L71.1588 13.6875C71.9075 13.9611 72.4111 14.7175 72.4111 15.5684V32.2709L61.3474 27.5538C60.6436 27.2537 60.1814 26.5217 60.1814 25.7071V12.4483Z" fill="url(#paint14_linear_215_245)"/>
<path d="M72.3056 15.432C72.2998 14.5278 72.8622 13.7335 73.6739 13.4996L82.8941 10.8421C84.0665 10.5042 85.2177 11.4549 85.2177 12.7609V26.4688C85.2177 27.3357 84.6953 28.1024 83.927 28.3632L72.4132 32.2709L72.3056 15.432Z" fill="url(#paint15_linear_215_245)"/>
<path d="M63.5273 10.5449L72.5265 7.31702L71.9496 7.19287L61.1044 10.669C61.6813 10.5449 61.4506 11.7864 61.5659 11.2898C61.6668 10.8555 62.2582 10.7932 62.7197 10.7932C63.1812 10.7932 71.2574 13.8969 71.6035 14.2693C71.9496 14.6418 72.4812 31.4033 72.4111 28.174C72.3815 26.8083 72.8726 14.2693 73.3341 14.021C73.7956 13.7727 81.7565 11.6622 82.7948 11.5381C83.6255 11.4387 84.6793 11.9933 85.1023 12.283C85.0254 11.9933 84.7793 11.3643 84.4101 11.1656C84.0409 10.967 83.0256 10.669 82.5641 10.5449L72.065 13.7727L63.5273 10.5449Z" fill="white" fill-opacity="0.57" style="mix-blend-mode:screen"/>
<path d="M63.5273 10.5449L72.5265 7.31702L71.9496 7.19287L61.1044 10.669C61.6813 10.5449 61.4506 11.7864 61.5659 11.2898C61.6668 10.8555 62.2582 10.7932 62.7197 10.7932C63.1812 10.7932 71.2574 13.8969 71.6035 14.2693C71.9496 14.6418 72.4812 31.4033 72.4111 28.174C72.3815 26.8083 72.8726 14.2693 73.3341 14.021C73.7956 13.7727 81.7565 11.6622 82.7948 11.5381C83.6255 11.4387 84.6793 11.9933 85.1023 12.283C85.0254 11.9933 84.7793 11.3643 84.4101 11.1656C84.0409 10.967 83.0256 10.669 82.5641 10.5449L72.065 13.7727L63.5273 10.5449Z" fill="#2E89B6" fill-opacity="0.7" style="mix-blend-mode:color-dodge"/>
<path d="M69.6421 13.4003C69.377 13.5088 61.3352 27.5533 61.3352 27.5533L63.4119 28.4223L70.9113 13.8969C70.3965 13.6081 69.9072 13.2918 69.6421 13.4003Z" fill="#92DCEE" fill-opacity="0.21"/>
<path d="M72.1804 22.7113C72.1804 22.3387 67.3347 29.9674 67.3347 29.9674L68.0853 30.2829L72.1804 23.9529V22.7113Z" fill="#92DCEE" fill-opacity="0.21"/>
<path d="M78.6414 9.30339L66.8732 11.7864L66.1809 11.5381L75.8724 8.43436L78.6414 9.30339Z" fill="url(#paint16_linear_215_245)"/>
<path d="M61.4505 16.6286C61.4505 14.9401 61.9119 12.1588 63.181 10.9173C62.9501 10.7928 61.6155 10.414 61.2196 10.6694C60.0659 11.4139 60.2197 12.2834 60.1813 13.0283C60.1428 16.8355 59.9823 24.7631 60.1813 25.9397C60.4122 27.3049 61.335 27.5528 62.258 27.9257L72.4111 32.2709L72.411 30.7815C69.2959 29.4986 62.8119 26.8336 61.7966 26.4363C60.5275 25.9397 61.4505 18.7391 61.4505 16.6286Z" fill="#F8F8F8" fill-opacity="0.18" style="mix-blend-mode:overlay"/>
<path d="M61.4505 16.6286C61.4505 14.9401 61.9119 12.1588 63.181 10.9173C62.9501 10.7928 61.6155 10.414 61.2196 10.6694C60.0659 11.4139 60.2197 12.2834 60.1813 13.0283C60.1428 16.8355 59.9823 24.7631 60.1813 25.9397C60.4122 27.3049 61.335 27.5528 62.258 27.9257L72.4111 32.2709L72.411 30.7815C69.2959 29.4986 62.8119 26.8336 61.7966 26.4363C60.5275 25.9397 61.4505 18.7391 61.4505 16.6286Z" fill="#F8F8F8" fill-opacity="0.18" style="mix-blend-mode:overlay"/>
<path d="M83.8337 17.4597C83.8337 15.7713 83.0256 13.0278 81.7565 11.7863C81.9873 11.6618 84.1296 11.0343 84.5255 11.2897C85.6792 12.0342 85.0645 13.1145 85.1029 13.8594C85.1414 17.6666 85.3019 25.5942 85.1029 26.7708C84.872 28.1361 83.9491 28.2977 83.026 28.6706L72.4111 32.2709L72.4116 30.657C75.5266 29.3741 81.7795 27.8263 82.7948 27.429C84.064 26.9324 83.8337 19.5702 83.8337 17.4597Z" fill="#F8F8F8" fill-opacity="0.18" style="mix-blend-mode:overlay"/>
<path d="M83.8337 17.4597C83.8337 15.7713 83.0256 13.0278 81.7565 11.7863C81.9873 11.6618 84.1296 11.0343 84.5255 11.2897C85.6792 12.0342 85.0645 13.1145 85.1029 13.8594C85.1414 17.6666 85.3019 25.5942 85.1029 26.7708C84.872 28.1361 83.9491 28.2977 83.026 28.6706L72.4111 32.2709L72.4116 30.657C75.5266 29.3741 81.7795 27.8263 82.7948 27.429C84.064 26.9324 83.8337 19.5702 83.8337 17.4597Z" fill="#F8F8F8" fill-opacity="0.18" style="mix-blend-mode:overlay"/>
<defs>
<linearGradient id="paint0_linear_215_245" x1="45.3897" y1="82" x2="42.8665" y2="0.0110224" gradientUnits="userSpaceOnUse">
<stop stop-color="#78C0FF"/>
<stop offset="1" stop-color="#DFF0FF"/>
</linearGradient>
<linearGradient id="paint1_linear_215_245" x1="85.2324" y1="39.5613" x2="5.41195" y2="39.5613" gradientUnits="userSpaceOnUse">
<stop stop-color="#DEF5FF"/>
<stop offset="1" stop-color="#3CB8EE"/>
</linearGradient>
<linearGradient id="paint2_linear_215_245" x1="45.3222" y1="7.19287" x2="45.3222" y2="71.9297" gradientUnits="userSpaceOnUse">
<stop stop-color="#70E0FF"/>
<stop offset="1" stop-color="#02A5D2"/>
</linearGradient>
<linearGradient id="paint3_linear_215_245" x1="45.3222" y1="7.19287" x2="45.3222" y2="71.9297" gradientUnits="userSpaceOnUse">
<stop stop-color="#2D96C5"/>
<stop offset="1" stop-color="#1D7EAA"/>
</linearGradient>
<linearGradient id="paint4_linear_215_245" x1="45.3222" y1="7.19287" x2="45.3222" y2="71.9297" gradientUnits="userSpaceOnUse">
<stop stop-color="#F6F6F6"/>
<stop offset="1" stop-color="#3AC7FF"/>
</linearGradient>
<linearGradient id="paint5_linear_215_245" x1="85.2324" y1="39.5613" x2="5.41195" y2="39.5613" gradientUnits="userSpaceOnUse">
<stop stop-color="#DEF5FF"/>
<stop offset="1" stop-color="#3CB8EE"/>
</linearGradient>
<linearGradient id="paint6_linear_215_245" x1="45.3222" y1="7.19287" x2="45.3222" y2="71.9297" gradientUnits="userSpaceOnUse">
<stop stop-color="#70E0FF"/>
<stop offset="1" stop-color="#02A5D2"/>
</linearGradient>
<linearGradient id="paint7_linear_215_245" x1="45.3222" y1="7.19287" x2="45.3222" y2="71.9297" gradientUnits="userSpaceOnUse">
<stop stop-color="#2D96C5"/>
<stop offset="1" stop-color="#1D7EAA"/>
</linearGradient>
<linearGradient id="paint8_linear_215_245" x1="45.3222" y1="7.19287" x2="45.3222" y2="71.9297" gradientUnits="userSpaceOnUse">
<stop stop-color="#F6F6F6"/>
<stop offset="1" stop-color="#3AC7FF"/>
</linearGradient>
<linearGradient id="paint9_linear_215_245" x1="5.41211" y1="39.5613" x2="85.2326" y2="39.5613" gradientUnits="userSpaceOnUse">
<stop stop-color="#DEF5FF"/>
<stop offset="1" stop-color="#3CB8EE"/>
</linearGradient>
<linearGradient id="paint10_linear_215_245" x1="45.3223" y1="7.19287" x2="45.3223" y2="71.9297" gradientUnits="userSpaceOnUse">
<stop stop-color="#70E0FF"/>
<stop offset="1" stop-color="#02A5D2"/>
</linearGradient>
<linearGradient id="paint11_linear_215_245" x1="45.3223" y1="7.19287" x2="45.3223" y2="71.9297" gradientUnits="userSpaceOnUse">
<stop stop-color="#2D96C5"/>
<stop offset="1" stop-color="#1D7EAA"/>
</linearGradient>
<linearGradient id="paint12_linear_215_245" x1="45.3223" y1="7.19287" x2="45.3223" y2="71.9297" gradientUnits="userSpaceOnUse">
<stop stop-color="#F6F6F6"/>
<stop offset="1" stop-color="#3AC7FF"/>
</linearGradient>
<linearGradient id="paint13_linear_215_245" x1="5.41211" y1="39.5613" x2="85.2326" y2="39.5613" gradientUnits="userSpaceOnUse">
<stop stop-color="#DEF5FF"/>
<stop offset="1" stop-color="#3CB8EE"/>
</linearGradient>
<linearGradient id="paint14_linear_215_245" x1="45.3223" y1="7.19287" x2="45.3223" y2="71.9297" gradientUnits="userSpaceOnUse">
<stop stop-color="#70E0FF"/>
<stop offset="1" stop-color="#02A5D2"/>
</linearGradient>
<linearGradient id="paint15_linear_215_245" x1="45.3223" y1="7.19287" x2="45.3223" y2="71.9297" gradientUnits="userSpaceOnUse">
<stop stop-color="#2D96C5"/>
<stop offset="1" stop-color="#1D7EAA"/>
</linearGradient>
<linearGradient id="paint16_linear_215_245" x1="45.3223" y1="7.19287" x2="45.3223" y2="71.9297" gradientUnits="userSpaceOnUse">
<stop stop-color="#F6F6F6"/>
<stop offset="1" stop-color="#3AC7FF"/>
</linearGradient>
</defs>
</svg>
