<svg width="997" height="885" viewBox="0 0 997 885" fill="none" xmlns="http://www.w3.org/2000/svg">
<path d="M198.416 38.6245C203.792 35.0588 211.04 36.5264 214.606 41.9023L260.048 110.415C263.613 115.791 262.146 123.04 256.77 126.605L188.257 172.047C182.881 175.613 175.632 174.145 172.067 168.769L126.625 100.256C123.059 94.8805 124.527 87.6319 129.903 84.0662L198.416 38.6245Z" fill="url(#paint0_radial_237_243)" fill-opacity="0.5"/>
<path d="M295.644 507.542C299.696 504.855 305.158 505.961 307.845 510.013L342.09 561.643C344.777 565.694 343.671 571.157 339.619 573.844L287.989 608.089C283.938 610.776 278.475 609.67 275.788 605.618L241.544 553.988C238.856 549.937 239.962 544.474 244.014 541.787L295.644 507.542Z" fill="url(#paint1_radial_237_243)" fill-opacity="0.5"/>
<path d="M658.644 516.542C662.696 513.855 668.158 514.961 670.845 519.013L705.09 570.643C707.777 574.694 706.671 580.157 702.619 582.844L650.989 617.089C646.938 619.776 641.475 618.67 638.788 614.618L604.544 562.988C601.856 558.937 602.962 553.474 607.014 550.787L658.644 516.542Z" fill="url(#paint2_radial_237_243)" fill-opacity="0.5"/>
<path d="M92.4156 730.624C97.7915 727.059 105.04 728.526 108.606 733.902L154.048 802.415C157.613 807.791 156.146 815.04 150.77 818.605L82.257 864.047C76.8811 867.613 69.6324 866.145 66.0668 860.769L20.6251 792.256C17.0594 786.88 18.5269 779.632 23.9029 776.066L92.4156 730.624Z" fill="url(#paint3_radial_237_243)" fill-opacity="0.5"/>
<path d="M934.176 748.84C939.867 751.878 942.019 758.953 938.982 764.645L900.275 837.175C897.238 842.867 890.162 845.018 884.47 841.981L811.94 803.274C806.248 800.237 804.097 793.161 807.134 787.47L845.841 714.939C848.878 709.248 855.954 707.096 861.645 710.133L934.176 748.84Z" fill="url(#paint4_radial_237_243)" fill-opacity="0.5"/>
<path d="M914.416 375.624C919.792 372.059 927.04 373.526 930.606 378.902L976.048 447.415C979.613 452.791 978.146 460.04 972.77 463.605L904.257 509.047C898.881 512.613 891.632 511.145 888.067 505.769L842.625 437.256C839.059 431.88 840.527 424.632 845.903 421.066L914.416 375.624Z" fill="url(#paint5_radial_237_243)" fill-opacity="0.5"/>
<path d="M901.416 20.6245C906.792 17.0588 914.04 18.5264 917.606 23.9023L963.048 92.415C966.613 97.791 965.146 105.04 959.77 108.605L891.257 154.047C885.881 157.613 878.632 156.145 875.067 150.769L829.625 82.2565C826.059 76.8805 827.527 69.6319 832.903 66.0662L901.416 20.6245Z" fill="url(#paint6_radial_237_243)" fill-opacity="0.5"/>
<defs>
<radialGradient id="paint0_radial_237_243" cx="0" cy="0" r="1" gradientUnits="userSpaceOnUse" gradientTransform="translate(193.336 105.336) rotate(146.445) scale(52.7869)">
<stop offset="0.293269" stop-color="#73BEF2"/>
<stop offset="1" stop-color="white"/>
</radialGradient>
<radialGradient id="paint1_radial_237_243" cx="0" cy="0" r="1" gradientUnits="userSpaceOnUse" gradientTransform="translate(291.817 557.815) rotate(146.445) scale(39.7798)">
<stop offset="0.293269" stop-color="#73BEF2"/>
<stop offset="1" stop-color="white"/>
</radialGradient>
<radialGradient id="paint2_radial_237_243" cx="0" cy="0" r="1" gradientUnits="userSpaceOnUse" gradientTransform="translate(654.817 566.815) rotate(146.445) scale(39.7798)">
<stop offset="0.293269" stop-color="#73BEF2"/>
<stop offset="1" stop-color="white"/>
</radialGradient>
<radialGradient id="paint3_radial_237_243" cx="0" cy="0" r="1" gradientUnits="userSpaceOnUse" gradientTransform="translate(87.3362 797.336) rotate(146.445) scale(52.7869)">
<stop offset="0.293269" stop-color="#73BEF2"/>
<stop offset="1" stop-color="white"/>
</radialGradient>
<radialGradient id="paint4_radial_237_243" cx="0" cy="0" r="1" gradientUnits="userSpaceOnUse" gradientTransform="translate(873.058 776.057) rotate(-151.913) scale(52.7869)">
<stop offset="0.293269" stop-color="#73BEF2"/>
<stop offset="1" stop-color="white"/>
</radialGradient>
<radialGradient id="paint5_radial_237_243" cx="0" cy="0" r="1" gradientUnits="userSpaceOnUse" gradientTransform="translate(909.336 442.336) rotate(146.445) scale(52.7869)">
<stop offset="0.293269" stop-color="#73BEF2"/>
<stop offset="1" stop-color="white"/>
</radialGradient>
<radialGradient id="paint6_radial_237_243" cx="0" cy="0" r="1" gradientUnits="userSpaceOnUse" gradientTransform="translate(896.336 87.3357) rotate(146.445) scale(52.7869)">
<stop offset="0.293269" stop-color="#73BEF2"/>
<stop offset="1" stop-color="white"/>
</radialGradient>
</defs>
</svg>
