<svg width="1446" height="991" viewBox="0 0 1446 991" fill="none" xmlns="http://www.w3.org/2000/svg">
<path d="M568.416 112.624C573.792 109.059 581.04 110.526 584.606 115.902L630.048 184.415C633.613 189.791 632.146 197.04 626.77 200.605L558.257 246.047C552.881 249.613 545.632 248.145 542.067 242.769L496.625 174.256C493.059 168.88 494.527 161.632 499.903 158.066L568.416 112.624Z" fill="url(#paint0_radial_233_226)" fill-opacity="0.5"/>
<rect x="1143" y="723.97" width="235" height="235" rx="26" transform="rotate(-20.4144 1143 723.97)" fill="url(#paint1_radial_233_226)"/>
<rect x="185.522" y="12.9993" width="246.655" height="246.655" rx="26" transform="rotate(23.7962 185.522 12.9993)" fill="url(#paint2_radial_233_226)"/>
<path d="M195.211 152.61C192.871 151.552 191.053 150.291 189.757 148.828C188.461 147.365 187.759 145.625 187.651 143.611C187.553 141.574 188.109 139.183 189.319 136.438C190.374 134.044 191.669 132.149 193.203 130.753C194.758 129.367 196.491 128.531 198.4 128.246C200.32 127.938 202.366 128.263 204.54 129.222C206.451 130.064 207.999 131.075 209.184 132.253C210.369 133.432 211.141 134.716 211.498 136.107C211.887 137.485 211.816 138.896 211.284 140.34C210.781 141.718 210.037 142.78 209.052 143.526C208.09 144.282 206.912 144.812 205.519 145.116C206.229 145.586 206.732 146.32 207.027 147.316C207.345 148.321 207.276 149.34 206.821 150.372C206.511 151.075 206.053 151.725 205.448 152.324C204.843 152.923 204.065 153.38 203.113 153.694C202.183 154.019 201.054 154.111 199.725 153.971C198.428 153.819 196.924 153.365 195.211 152.61ZM198.356 139.321C198.73 139.722 199.235 140.063 199.872 140.344C200.519 140.603 201.156 140.674 201.784 140.558C202.435 140.451 202.91 140.057 203.21 139.376C203.433 138.871 203.458 138.397 203.286 137.954C203.137 137.521 202.866 137.153 202.475 136.849C202.094 136.524 201.668 136.27 201.198 136.089C200.727 135.907 200.288 135.832 199.881 135.862C199.377 135.876 198.941 136.091 198.574 136.506C198.229 136.931 198.016 137.414 197.935 137.955C197.886 138.484 198.026 138.939 198.356 139.321ZM194.957 147.029C195.341 147.408 195.851 147.738 196.488 148.019C197.134 148.278 197.762 148.371 198.371 148.298C199.002 148.236 199.448 147.908 199.71 147.315C199.903 146.876 199.904 146.457 199.713 146.057C199.554 145.646 199.278 145.289 198.888 144.985C198.497 144.682 198.061 144.45 197.581 144.291C197.11 144.109 196.681 144.012 196.293 143.998C195.799 143.99 195.382 144.161 195.045 144.51C194.729 144.869 194.545 145.287 194.493 145.762C194.462 146.247 194.617 146.669 194.957 147.029ZM209.306 158.865C208.559 158.535 208.051 158.023 207.781 157.327C207.542 156.618 207.486 155.793 207.613 154.852C207.739 153.911 207.995 152.884 208.382 151.769C208.769 150.654 209.214 149.526 209.717 148.384C210.056 147.615 210.411 146.84 210.782 146.06C211.184 145.266 211.623 144.568 212.099 143.965C212.597 143.371 213.157 142.963 213.78 142.739C214.435 142.503 215.18 142.569 216.014 142.937C216.607 143.199 217.082 143.579 217.439 144.077C217.806 144.554 217.935 145.096 217.824 145.703C218.533 145.464 219.315 145.416 220.171 145.557C221.058 145.686 221.919 145.935 222.753 146.303C223.456 146.613 224.092 147.103 224.662 147.774C225.241 148.423 225.653 149.155 225.897 149.971C226.14 150.786 226.097 151.567 225.768 152.314C225.487 152.951 224.979 153.448 224.245 153.806C223.532 154.174 222.747 154.169 221.891 153.791C221.517 153.627 221.229 153.447 221.026 153.253C220.833 153.036 220.646 152.836 220.465 152.651C220.284 152.466 220.04 152.306 219.733 152.171C218.92 151.813 218.028 151.813 217.057 152.171C216.118 152.518 215.406 153.24 214.922 154.338C214.67 154.909 214.372 155.525 214.028 156.186C213.715 156.835 213.336 157.429 212.889 157.966C212.464 158.513 211.956 158.892 211.364 159.104C210.782 159.293 210.096 159.213 209.306 158.865ZM228.942 167.524C227.295 166.798 225.987 165.84 225.016 164.651C224.076 163.45 223.502 162.135 223.294 160.705C223.116 159.263 223.352 157.806 224.001 156.335C224.63 154.908 225.552 153.74 226.765 152.832C228 151.935 229.382 151.39 230.909 151.197C232.458 151.015 234.024 151.273 235.605 151.97C237.076 152.619 238.208 153.472 239.001 154.53C239.793 155.587 240.261 156.698 240.403 157.863C240.577 159.015 240.441 160.096 239.996 161.106C239.55 162.116 238.952 162.849 238.2 163.304C237.458 163.738 236.636 163.966 235.735 163.988C234.865 163.998 233.988 163.874 233.105 163.615C232.222 163.357 231.411 163.026 230.672 162.621C229.942 162.194 229.352 161.777 228.903 161.369C229.017 162.18 229.317 162.837 229.804 163.34C230.322 163.831 230.915 164.21 231.584 164.479C232.284 164.735 232.933 164.929 233.53 165.062C234.278 165.208 234.824 165.488 235.166 165.901C235.509 166.314 235.584 166.768 235.393 167.26C235.241 167.665 234.924 167.998 234.442 168.257C233.982 168.527 233.305 168.635 232.411 168.581C231.526 168.506 230.37 168.153 228.942 167.524ZM230.774 157.394C230.838 157.842 231.045 158.235 231.395 158.572C231.754 158.888 232.152 159.116 232.588 159.256C233.047 159.406 233.462 159.445 233.835 159.373C234.23 159.311 234.504 159.104 234.659 158.753C234.824 158.38 234.816 157.982 234.634 157.561C234.484 157.128 234.091 156.771 233.454 156.49C232.839 156.219 232.28 156.209 231.776 156.459C231.282 156.687 230.948 156.998 230.774 157.394ZM242.752 173.613C241.676 173.139 240.76 172.539 240.005 171.812C239.272 171.095 238.787 170.291 238.551 169.4C238.324 168.487 238.438 167.514 238.893 166.482C239.28 165.604 239.873 164.974 240.671 164.591C241.47 164.209 242.38 164.046 243.404 164.104C244.45 164.172 245.51 164.443 246.586 164.917C247.223 165.198 247.781 165.51 248.26 165.852C248.748 166.172 249.062 166.442 249.201 166.661C249.424 166.156 249.409 165.624 249.157 165.067C248.914 164.488 248.276 163.971 247.244 163.516C246.761 163.303 246.357 163.177 246.033 163.139C245.74 163.089 245.46 163.07 245.192 163.083C244.924 163.096 244.628 163.083 244.304 163.045C244.011 162.995 243.634 162.868 243.173 162.665C242.493 162.365 242.021 161.947 241.759 161.411C241.528 160.864 241.577 160.217 241.907 159.47C242.207 158.789 242.65 158.29 243.236 157.971C243.854 157.64 244.543 157.446 245.304 157.388C246.064 157.329 246.829 157.378 247.6 157.535C248.392 157.7 249.118 157.929 249.776 158.219C251.731 159.081 253.163 160.145 254.073 161.412C254.993 162.657 255.498 163.981 255.587 165.385C255.676 166.788 255.426 168.16 254.835 169.499C254.506 170.246 254.135 170.908 253.722 171.487C253.332 172.076 252.96 172.502 252.608 172.766C252.799 173.165 252.894 173.574 252.893 173.993C252.913 174.422 252.841 174.823 252.677 175.197C252.406 175.812 251.955 176.269 251.325 176.568C250.726 176.855 250.053 176.833 249.307 176.504C248.736 176.252 248.324 175.966 248.072 175.645C247.82 175.324 247.593 174.948 247.389 174.518C246.727 174.593 246.038 174.577 245.324 174.472C244.619 174.345 243.762 174.059 242.752 173.613ZM244.878 170.577C245.383 170.8 245.8 170.866 246.128 170.775C246.489 170.671 246.727 170.488 246.843 170.224C246.959 169.961 246.929 169.672 246.753 169.358C246.608 169.032 246.283 168.758 245.778 168.535C245.295 168.322 244.873 168.267 244.513 168.37C244.162 168.452 243.929 168.624 243.813 168.888C243.697 169.151 243.722 169.451 243.888 169.787C244.065 170.101 244.395 170.364 244.878 170.577ZM256.598 179.641C255.127 178.992 254.503 177.641 254.726 175.589C254.958 173.514 255.966 170.457 257.748 166.416C258.745 164.154 259.698 162.201 260.607 160.556C261.526 158.889 262.473 157.693 263.448 156.969C264.455 156.233 265.551 156.126 266.737 156.649C267.593 157.026 268.13 157.565 268.346 158.263C268.584 158.972 268.588 159.826 268.357 160.826C268.148 161.835 267.774 162.982 267.234 164.265C266.694 165.548 266.086 166.959 265.408 168.496L265.536 168.473C266.963 168.211 268.309 168.044 269.573 167.972C270.847 167.878 271.913 168.02 272.769 168.398C273.406 168.678 273.865 169.065 274.147 169.556C274.46 170.035 274.625 170.554 274.641 171.112C274.667 171.648 274.578 172.146 274.375 172.607C274.007 173.442 273.376 174.069 272.483 174.488C271.59 174.907 270.517 175.26 269.262 175.546C269.381 175.992 269.474 176.466 269.541 176.968C269.64 177.457 269.73 177.995 269.812 178.582C269.934 179.318 269.98 180.046 269.95 180.768C269.921 181.489 269.794 182.102 269.572 182.608C269.31 183.2 268.959 183.61 268.519 183.835C268.088 184.039 267.63 184.125 267.145 184.095C266.67 184.043 266.229 183.914 265.821 183.708C265.204 183.383 264.702 182.795 264.317 181.943C263.932 181.091 263.613 180.15 263.359 179.12C263.24 178.675 263.127 178.218 263.018 177.75C262.941 177.271 262.871 176.807 262.806 176.358C262.419 176.345 262.052 176.314 261.705 176.267C260.835 177.824 260 178.885 259.2 179.45C258.431 180.003 257.564 180.067 256.598 179.641ZM280.404 171.135C279.328 170.66 278.586 169.874 278.178 168.776C277.78 167.656 277.828 166.537 278.322 165.417C278.651 164.67 279.111 164.073 279.702 163.625C280.315 163.187 280.984 162.918 281.71 162.819C282.468 162.707 283.209 162.811 283.933 163.13C284.636 163.44 285.191 163.908 285.597 164.533C286.035 165.146 286.299 165.826 286.389 166.574C286.479 167.322 286.359 168.069 286.03 168.816C285.7 169.562 285.225 170.165 284.602 170.625C283.989 171.063 283.304 171.338 282.547 171.45C281.821 171.55 281.106 171.445 280.404 171.135ZM273.359 187.11C272.48 186.723 271.933 186.18 271.716 185.481C271.522 184.792 271.575 183.898 271.877 182.798C272.21 181.686 272.729 180.301 273.433 178.645C274.159 176.998 274.821 175.676 275.417 174.68C276.036 173.694 276.671 173.056 277.323 172.767C277.985 172.455 278.755 172.493 279.634 172.88C280.512 173.268 281.049 173.806 281.243 174.495C281.469 175.172 281.427 176.071 281.116 177.193C280.805 178.315 280.286 179.699 279.56 181.346C278.855 183.003 278.194 184.324 277.575 185.311C276.967 186.275 276.331 186.913 275.669 187.224C275.007 187.536 274.237 187.498 273.359 187.11ZM291.555 195.134C290.677 194.747 290.157 194.23 289.997 193.582C289.868 192.922 289.936 192.204 290.199 191.428C290.472 190.631 290.778 189.848 291.117 189.079C291.63 187.915 291.877 186.909 291.858 186.061C291.848 185.191 291.426 184.572 290.591 184.204C289.845 183.875 289.136 183.995 288.465 184.565C287.804 185.113 287.216 185.969 286.703 187.133C286.364 187.901 285.997 188.644 285.602 189.362C285.229 190.089 284.755 190.628 284.181 190.978C283.617 191.306 282.873 191.267 281.951 190.86C281.27 190.56 280.811 190.056 280.572 189.347C280.356 188.648 280.306 187.839 280.423 186.92C280.54 186.001 280.751 185.046 281.058 184.053C281.386 183.07 281.744 182.139 282.132 181.261C282.519 180.382 282.96 179.501 283.455 178.618C283.949 177.734 284.48 176.946 285.049 176.252C285.639 175.568 286.26 175.081 286.912 174.792C287.565 174.502 288.242 174.513 288.945 174.822C290.196 175.374 290.724 176.289 290.528 177.567C290.917 177.397 291.451 177.318 292.128 177.328C292.837 177.326 293.565 177.49 294.312 177.819C296.003 178.564 297.198 179.603 297.896 180.934C298.594 182.265 298.851 183.794 298.666 185.522C298.512 187.238 297.989 189.08 297.095 191.046C296.65 192.057 296.145 192.935 295.579 193.683C295.045 194.418 294.436 194.936 293.752 195.238C293.1 195.527 292.368 195.493 291.555 195.134ZM300.386 205.757C299.156 205.214 298.231 204.518 297.609 203.667C296.978 202.838 296.842 202.017 297.2 201.204C297.568 200.37 298.216 199.882 299.144 199.74C300.072 199.598 301.014 199.843 301.968 200.474C303.098 201.182 304.208 201.58 305.298 201.667C306.4 201.785 307.179 201.565 307.635 201.006C307.197 201.048 306.641 201 305.968 200.861C305.295 200.721 304.574 200.482 303.806 200.143C302.313 199.485 301.147 198.708 300.308 197.814C299.501 196.907 298.946 195.967 298.641 194.993C298.345 193.998 298.229 193.041 298.292 192.125C298.387 191.196 298.585 190.392 298.885 189.711C299.679 187.91 300.731 186.564 302.042 185.674C303.375 184.792 304.786 184.3 306.274 184.195C307.763 184.091 309.144 184.32 310.418 184.882C310.835 185.066 311.315 185.316 311.856 185.634C312.43 185.939 312.901 186.239 313.27 186.533C313.688 186.061 314.172 185.737 314.722 185.56C315.294 185.393 316.03 185.507 316.931 185.904C317.721 186.253 318.259 186.818 318.544 187.599C318.839 188.359 318.936 189.268 318.837 190.325C318.747 191.361 318.522 192.468 318.159 193.646C317.807 194.802 317.358 195.969 316.813 197.145C316.3 198.309 315.761 199.382 315.196 200.366C314.076 202.311 312.737 203.832 311.178 204.929C309.619 206.025 307.914 206.65 306.062 206.804C304.233 206.968 302.341 206.619 300.386 205.757ZM306.413 195.391C307.094 195.691 307.798 195.7 308.526 195.418C309.253 195.136 309.763 194.665 310.053 194.006C310.353 193.325 310.362 192.621 310.08 191.893C309.798 191.166 309.316 190.652 308.635 190.351C307.954 190.051 307.25 190.042 306.522 190.325C305.817 190.617 305.314 191.103 305.013 191.784C304.723 192.443 304.708 193.131 304.968 193.849C305.251 194.577 305.732 195.091 306.413 195.391ZM207.728 214.882C206.96 214.543 206.185 214.189 205.404 213.818C204.633 213.426 203.957 212.996 203.375 212.53C202.794 212.064 202.387 211.53 202.153 210.929C201.942 210.337 202.001 209.668 202.33 208.922C202.756 207.955 203.386 207.42 204.219 207.315C205.062 207.189 205.984 207.267 206.987 207.552C207.26 206.754 207.584 205.901 207.959 204.991C208.344 204.059 208.768 203.066 209.233 202.012C209.659 201.045 210.072 200.139 210.472 199.292C210.881 198.423 211.268 197.636 211.631 196.931C210.569 196.305 209.729 195.594 209.11 194.796C208.513 194.009 208.462 193.055 208.955 191.935C209.323 191.1 209.824 190.56 210.457 190.315C211.099 190.047 211.822 189.986 212.624 190.129C213.458 190.261 214.312 190.494 215.188 190.827C216.086 191.171 216.963 191.531 217.819 191.909C218.676 192.287 219.534 192.691 220.393 193.122C221.252 193.554 222 194.028 222.637 194.545C223.285 195.04 223.726 195.615 223.962 196.27C224.229 196.913 224.179 197.651 223.811 198.486C223.482 199.232 223.034 199.743 222.467 200.018C221.9 200.292 221.25 200.399 220.516 200.338C219.792 200.254 219.037 200.092 218.252 199.851C217.998 200.604 217.693 201.414 217.338 202.28C216.982 203.147 216.586 204.074 216.151 205.062C215.686 206.116 215.228 207.094 214.777 207.997C214.358 208.888 213.947 209.703 213.542 210.443C214.481 210.988 215.2 211.62 215.697 212.337C216.225 213.042 216.271 213.889 215.835 214.877C215.506 215.624 215.041 216.114 214.44 216.347C213.861 216.59 213.192 216.649 212.434 216.525C211.697 216.41 210.924 216.2 210.114 215.895C209.314 215.569 208.519 215.231 207.728 214.882ZM226.751 223.31C224.664 222.39 222.949 221.135 221.604 219.546C220.269 217.934 219.474 216.049 219.219 213.89C218.964 211.732 219.403 209.368 220.536 206.799C221.204 205.284 222.102 203.962 223.23 202.833C224.367 201.682 225.645 200.776 227.063 200.117C228.504 199.467 230.008 199.12 231.575 199.076C233.141 199.033 234.704 199.355 236.263 200.042C238.218 200.904 239.771 202.022 240.923 203.395C242.084 204.747 242.8 206.217 243.07 207.805C243.362 209.402 243.174 210.959 242.506 212.474C242.245 213.067 241.872 213.585 241.389 214.027C240.937 214.457 240.392 214.742 239.753 214.88C239.137 215.028 238.456 214.937 237.709 214.608C237.007 214.298 236.495 213.941 236.175 213.538C235.876 213.144 235.652 212.73 235.502 212.297C235.384 211.851 235.255 211.401 235.114 210.946C234.974 210.49 234.744 210.061 234.424 209.657C234.103 209.254 233.581 208.892 232.856 208.573C232.175 208.272 231.472 208.172 230.746 208.272C230.02 208.371 229.346 208.651 228.723 209.111C228.133 209.559 227.668 210.167 227.329 210.935C226.825 212.077 226.681 213.207 226.896 214.325C227.134 215.453 227.812 216.263 228.932 216.757C229.81 217.145 230.56 217.318 231.182 217.277C231.825 217.246 232.395 217.143 232.891 216.969C233.42 216.782 233.95 216.649 234.484 216.569C235.039 216.499 235.657 216.615 236.338 216.915C237.304 217.341 237.889 217.979 238.091 218.829C238.315 219.688 238.18 220.56 237.685 221.443C237.181 222.349 236.367 223.065 235.243 223.593C234.14 224.129 232.842 224.396 231.348 224.393C229.886 224.378 228.354 224.017 226.751 223.31ZM248.498 232.979C247.598 232.582 246.661 232.09 245.687 231.503C244.735 230.926 243.856 230.211 243.052 229.358C242.248 228.505 241.619 227.493 241.165 226.322C240.71 225.151 240.537 223.79 240.645 222.237C240.762 220.662 241.261 218.876 242.142 216.878C243.111 214.682 244.365 212.848 245.906 211.377C247.447 209.905 249.212 208.965 251.202 208.558C253.191 208.15 255.328 208.449 257.612 209.456C259.259 210.183 260.535 210.916 261.442 211.657C262.37 212.407 263.029 213.144 263.418 213.866C263.808 214.589 263.991 215.273 263.969 215.919C263.968 216.574 263.847 217.177 263.605 217.726C263.353 218.297 262.957 218.778 262.418 219.169C261.9 219.57 261.254 219.784 260.482 219.811C259.741 219.825 259.046 219.676 258.397 219.364C257.758 219.029 257.175 218.746 256.648 218.513C255.506 218.01 254.513 217.821 253.671 217.948C252.859 218.063 252.138 218.479 251.507 219.197C251.868 219.33 252.257 219.489 252.674 219.673C253.123 219.844 253.578 220.032 254.039 220.235C254.939 220.632 255.786 221.032 256.579 221.434C257.404 221.824 257.967 222.125 258.267 222.336C258.968 222.828 259.414 223.392 259.606 224.028C259.808 224.641 259.783 225.234 259.531 225.805C259.289 226.354 258.884 226.765 258.317 227.04C257.75 227.314 257.011 227.356 256.099 227.163C255.762 227.094 255.145 226.887 254.247 226.544C253.381 226.188 252.476 225.802 251.532 225.385C251.159 225.221 250.796 225.061 250.445 224.906C250.103 224.729 249.79 224.578 249.504 224.452C249.511 225.268 249.735 226.01 250.176 226.676C250.648 227.33 251.378 227.875 252.366 228.311C252.74 228.476 253.292 228.68 254.024 228.924C254.766 229.146 255.422 229.501 255.994 229.989C256.903 230.783 257.125 231.707 256.66 232.762C256.408 233.332 255.973 233.783 255.355 234.114C254.769 234.433 253.918 234.517 252.804 234.366C251.712 234.226 250.277 233.763 248.498 232.979Z" fill="white"/>
<rect x="146.901" y="660" width="235" height="235" rx="26" transform="rotate(38.6902 146.901 660)" fill="url(#paint3_radial_233_226)"/>
<path d="M229.286 549.026C232.072 545.547 237.152 544.985 240.632 547.772L284.975 583.285C288.454 586.071 289.016 591.151 286.229 594.631L250.716 638.974C247.93 642.453 242.85 643.015 239.37 640.228L195.027 604.715C191.548 601.929 190.986 596.849 193.773 593.369L229.286 549.026Z" fill="url(#paint4_radial_233_226)" fill-opacity="0.5"/>
<path d="M730.285 786.026C733.071 782.547 738.151 781.985 741.631 784.772L785.974 820.285C789.453 823.071 790.015 828.151 787.228 831.631L751.715 875.974C748.929 879.453 743.849 880.015 740.369 877.228L696.026 841.715C692.547 838.929 691.985 833.849 694.772 830.369L730.285 786.026Z" fill="url(#paint5_radial_233_226)" fill-opacity="0.5"/>
<path d="M755.691 335.923C757.462 333.712 760.69 333.355 762.901 335.126L791.077 357.691C793.288 359.462 793.645 362.69 791.874 364.901L769.309 393.077C767.538 395.288 764.31 395.645 762.099 393.874L733.923 371.309C731.712 369.538 731.355 366.31 733.126 364.099L755.691 335.923Z" fill="url(#paint6_radial_233_226)" fill-opacity="0.5"/>
<path d="M1327.43 248.644C1333.85 244.384 1342.51 246.137 1346.77 252.561L1401.07 334.427C1405.33 340.85 1403.58 349.512 1397.15 353.772L1315.29 408.071C1308.86 412.331 1300.2 410.578 1295.94 404.154L1241.64 322.288C1237.38 315.864 1239.14 307.203 1245.56 302.942L1327.43 248.644Z" fill="url(#paint7_radial_233_226)" fill-opacity="0.5"/>
<path d="M1203.43 24.6442C1209.85 20.3836 1218.51 22.1371 1222.77 28.5609L1277.07 110.427C1281.33 116.85 1279.58 125.512 1273.15 129.772L1191.29 184.071C1184.86 188.331 1176.2 186.578 1171.94 180.154L1117.64 98.2881C1113.38 91.8644 1115.14 83.203 1121.56 78.9424L1203.43 24.6442Z" fill="url(#paint8_radial_233_226)" fill-opacity="0.5"/>
<defs>
<radialGradient id="paint0_radial_233_226" cx="0" cy="0" r="1" gradientUnits="userSpaceOnUse" gradientTransform="translate(563.336 179.336) rotate(146.445) scale(52.7869)">
<stop offset="0.293269" stop-color="#73BEF2"/>
<stop offset="1" stop-color="white"/>
</radialGradient>
<radialGradient id="paint1_radial_233_226" cx="0" cy="0" r="1" gradientUnits="userSpaceOnUse" gradientTransform="translate(1260.5 841.47) rotate(90) scale(117.5)">
<stop offset="0.293269" stop-color="#73BEF2"/>
<stop offset="1" stop-color="white"/>
</radialGradient>
<radialGradient id="paint2_radial_233_226" cx="0" cy="0" r="1" gradientUnits="userSpaceOnUse" gradientTransform="translate(308.85 136.327) rotate(90) scale(123.327)">
<stop stop-color="#43ABF4"/>
<stop offset="1" stop-color="#92D2FF"/>
</radialGradient>
<radialGradient id="paint3_radial_233_226" cx="0" cy="0" r="1" gradientUnits="userSpaceOnUse" gradientTransform="translate(264.401 777.5) rotate(90) scale(117.5)">
<stop offset="0.293269" stop-color="#73BEF2"/>
<stop offset="1" stop-color="white"/>
</radialGradient>
<radialGradient id="paint4_radial_233_226" cx="0" cy="0" r="1" gradientUnits="userSpaceOnUse" gradientTransform="translate(240.001 594) rotate(128.69) scale(36.4771)">
<stop offset="0.293269" stop-color="#73BEF2"/>
<stop offset="1" stop-color="white"/>
</radialGradient>
<radialGradient id="paint5_radial_233_226" cx="0" cy="0" r="1" gradientUnits="userSpaceOnUse" gradientTransform="translate(741 831) rotate(128.69) scale(36.4771)">
<stop offset="0.293269" stop-color="#73BEF2"/>
<stop offset="1" stop-color="white"/>
</radialGradient>
<radialGradient id="paint6_radial_233_226" cx="0" cy="0" r="1" gradientUnits="userSpaceOnUse" gradientTransform="translate(762.5 364.5) rotate(128.69) scale(23.1782)">
<stop offset="0.293269" stop-color="#73BEF2"/>
<stop offset="1" stop-color="white"/>
</radialGradient>
<radialGradient id="paint7_radial_233_226" cx="0" cy="0" r="1" gradientUnits="userSpaceOnUse" gradientTransform="translate(1321.36 328.357) rotate(146.445) scale(63.075)">
<stop offset="0.293269" stop-color="#73BEF2"/>
<stop offset="1" stop-color="white"/>
</radialGradient>
<radialGradient id="paint8_radial_233_226" cx="0" cy="0" r="1" gradientUnits="userSpaceOnUse" gradientTransform="translate(1197.36 104.357) rotate(146.445) scale(63.075)">
<stop offset="0.293269" stop-color="#73BEF2"/>
<stop offset="1" stop-color="white"/>
</radialGradient>
</defs>
</svg>
