<svg width="317" height="358" viewBox="0 0 317 358" fill="none" xmlns="http://www.w3.org/2000/svg">
<path d="M104.248 195.107L124.453 245.916L64 273.247L53.3772 276.646C40.6208 280.728 29.5262 267.436 36.155 255.798C48.139 234.758 63.2655 210.113 71.2493 204.607C85.7503 194.607 104.248 195.107 104.248 195.107Z" fill="#609CCC"/>
<path d="M212.273 198.107L192.068 248.916L252.521 276.247L263.144 279.646C275.901 283.728 286.995 270.436 280.367 258.798C268.382 237.758 253.256 213.113 245.272 207.607C230.771 197.607 212.273 198.107 212.273 198.107Z" fill="#609CCC"/>
<path d="M152 45.2471C202.258 45.2471 243 83.3029 243 130.247C243 152.88 233.528 173.446 218.087 188.678C235.284 204.796 246 227.541 246 252.747C255.62 314.212 227.5 347.747 156 347.747C84.5003 347.747 60.0341 317.567 66 252.747C66 229.482 75.1292 208.313 90.0576 192.517C72.1826 176.996 61 154.841 61 130.247C61 83.3029 101.742 45.2471 152 45.2471Z" fill="#FEF8E7"/>
<path d="M223 301.747C229.793 340.539 203.987 347.747 153.5 347.747C103.013 347.747 81.3251 337.766 85.5377 296.856C85.5377 266.008 117.099 225.247 152.197 225.247C187.295 225.247 223 270.899 223 301.747Z" fill="#A1D7F6"/>
<path d="M135.592 349.788C138.279 356.147 127.555 357.247 107.583 357.247C87.6102 357.247 79.5462 355.693 81.2127 348.986C81.2127 343.929 93.698 337.247 107.583 337.247C121.467 337.247 135.592 344.731 135.592 349.788Z" fill="#326894"/>
<path d="M231.592 349.788C234.279 356.147 223.555 357.247 203.583 357.247C183.61 357.247 175.546 355.693 177.213 348.986C177.213 343.929 189.698 337.247 203.583 337.247C217.467 337.247 231.592 344.731 231.592 349.788Z" fill="#326894"/>
<ellipse cx="113.5" cy="123.247" rx="10.5" ry="13" fill="#171717"/>
<ellipse cx="188.5" cy="123.247" rx="10.5" ry="13" fill="#171717"/>
<ellipse cx="98" cy="156.247" rx="17" ry="16" transform="rotate(90 98 156.247)" fill="#EE9E78"/>
<ellipse cx="205" cy="156.247" rx="17" ry="16" transform="rotate(90 205 156.247)" fill="#EE9E78"/>
<path d="M150.269 147.445C150.651 147.317 151.063 147.307 151.451 147.417L165.278 151.333C166.735 151.746 167.222 153.565 166.168 154.651L153.373 167.833C152.611 168.617 151.361 168.645 150.566 167.895L136.927 155.035C135.828 153.999 136.23 152.166 137.661 151.684L150.269 147.445Z" fill="#8B5663"/>
<path d="M150.164 145.527C150.61 145.346 151.106 145.332 151.562 145.487L165.672 150.302C167.15 150.806 167.505 152.734 166.304 153.733L153.082 164.726C152.364 165.323 151.33 165.344 150.588 164.777L136.779 154.216C135.55 153.276 135.808 151.357 137.242 150.774L150.164 145.527Z" fill="#FE9FB6"/>
<path d="M110 84.7467C84 84.7467 76.0001 110.58 61.5001 125.247C60.9963 122.747 60.996 120.747 63.0002 111.247C65.1872 100.881 79 63.7471 105.5 48.7471C122.909 38.8932 146.496 41.2471 160.5 41.2469C215.741 41.2462 244.005 99.2467 242.505 126.747C239.839 123.247 229.6 111.547 220 96.7467C208 78.2467 189.496 85.2471 177 92.2467C166.957 97.8723 161.5 105.747 148 104.747C134.5 103.747 121.413 84.7467 110 84.7467Z" fill="#609CCC"/>
<g filter="url(#filter0_d_204_302)">
<path d="M225.999 196.001C218.386 197.001 200.986 199.401 192.285 201.001C183.585 202.601 169.084 209.668 162.921 213.001C162.816 212.904 162.708 212.794 162.6 212.673L159.518 218.038L172.998 245.001L153.499 260.501L131.499 245.001L146.999 219.001L147.194 218.984L144.203 213.779C144.134 213.859 144.066 213.934 143.999 214.001C138.332 210.668 124.999 203.601 116.999 202.001C108.999 200.401 92.999 198.001 85.999 197.001L89.999 193.001C105.395 194.849 135.697 199.343 142.749 203.485L162.837 203.61C162.865 203.574 162.892 203.537 162.921 203.501C166.402 199.101 203.523 194.001 221.648 192.001L225.999 196.001Z" fill="#FF7676"/>
</g>
<g filter="url(#filter1_d_204_302)">
<path d="M55.7686 56.7671L164.691 20.1256L175.124 51.1389C136.227 78.574 112.065 85.4046 66.2015 87.7804L55.7686 56.7671Z" fill="white"/>
<path d="M64.873 83.8315C117.295 80.3348 136.693 74.5394 173.795 47.1901L176.089 54.0095C139.236 79.0625 115.059 86.961 67.1671 90.651L64.873 83.8315Z" fill="#1677BA"/>
<ellipse cx="109.996" cy="37.7523" rx="57.46" ry="10.9827" transform="rotate(-18.593 109.996 37.7523)" fill="#3C679D"/>
<path d="M160.005 26.7128C161.603 22.2023 151.788 13.7599 141.755 12.5902C131.722 11.4205 116.862 13.8129 104.615 17.9328C92.3682 22.0526 76.7444 29.9149 69.458 36.9109C62.1717 43.907 64.507 59.2358 64.507 59.2358C64.507 59.2358 75.6467 63.037 115.75 47.9572L146.987 35.8598L160.005 26.7128Z" fill="white"/>
<path d="M56.002 57.4609C101.537 55.6931 125.337 47.3586 164.924 20.8194L166.104 24.3275C127.213 49.4439 103.513 57.9533 57.1821 60.969L56.002 57.4609Z" fill="#F93737"/>
</g>
<defs>
<filter id="filter0_d_204_302" x="81.999" y="192.001" width="148" height="76.5" filterUnits="userSpaceOnUse" color-interpolation-filters="sRGB">
<feFlood flood-opacity="0" result="BackgroundImageFix"/>
<feColorMatrix in="SourceAlpha" type="matrix" values="0 0 0 0 0 0 0 0 0 0 0 0 0 0 0 0 0 0 127 0" result="hardAlpha"/>
<feOffset dy="4"/>
<feGaussianBlur stdDeviation="2"/>
<feComposite in2="hardAlpha" operator="out"/>
<feColorMatrix type="matrix" values="0 0 0 0 0.820559 0 0 0 0 0.437485 0 0 0 0 0.437485 0 0 0 0.15 0"/>
<feBlend mode="normal" in2="BackgroundImageFix" result="effect1_dropShadow_204_302"/>
<feBlend mode="normal" in="SourceGraphic" in2="effect1_dropShadow_204_302" result="shape"/>
</filter>
<filter id="filter1_d_204_302" x="51.4209" y="12.2935" width="128.668" height="86.3574" filterUnits="userSpaceOnUse" color-interpolation-filters="sRGB">
<feFlood flood-opacity="0" result="BackgroundImageFix"/>
<feColorMatrix in="SourceAlpha" type="matrix" values="0 0 0 0 0 0 0 0 0 0 0 0 0 0 0 0 0 0 127 0" result="hardAlpha"/>
<feOffset dy="4"/>
<feGaussianBlur stdDeviation="2"/>
<feComposite in2="hardAlpha" operator="out"/>
<feColorMatrix type="matrix" values="0 0 0 0 0.104012 0 0 0 0 0.197804 0 0 0 0 0.615605 0 0 0 0.13 0"/>
<feBlend mode="normal" in2="BackgroundImageFix" result="effect1_dropShadow_204_302"/>
<feBlend mode="normal" in="SourceGraphic" in2="effect1_dropShadow_204_302" result="shape"/>
</filter>
</defs>
</svg>
