<svg width="356" height="411" viewBox="0 0 356 411" fill="none" xmlns="http://www.w3.org/2000/svg">
<path d="M104.25 248.114L124.455 298.923L64.002 326.254L53.3792 329.653C40.6227 333.735 29.5282 320.443 36.1569 308.805C48.141 287.765 63.2675 263.12 71.2512 257.614C85.7522 247.614 104.25 248.114 104.25 248.114Z" fill="#609CCC"/>
<path d="M212.275 251.114L192.07 301.923L252.523 329.254L263.146 332.653C275.903 336.735 286.997 323.443 280.368 311.805C268.384 290.765 253.258 266.12 245.274 260.614C230.773 250.614 212.275 251.114 212.275 251.114Z" fill="#609CCC"/>
<path d="M152 98.2544C202.258 98.2544 243 136.31 243 183.254C243 205.887 233.528 226.453 218.087 241.685C235.284 257.804 246 280.548 246 305.754C255.62 367.22 227.5 400.754 156 400.754C84.5003 400.754 60.0341 370.575 66 305.754C66 282.489 75.1292 261.321 90.0576 245.524C72.1826 230.003 61 207.849 61 183.254C61 136.31 101.742 98.2544 152 98.2544Z" fill="#FEF8E7"/>
<path d="M223.002 354.754C229.795 393.547 203.989 400.754 153.502 400.754C103.015 400.754 81.3271 390.773 85.5397 349.863C85.5397 319.015 117.101 278.254 152.199 278.254C187.296 278.254 223.002 323.907 223.002 354.754Z" fill="#A1D7F6"/>
<path d="M135.594 402.795C138.281 409.155 127.557 410.254 107.584 410.254C87.6121 410.254 79.5482 408.7 81.2147 401.994C81.2147 396.937 93.7 390.254 107.584 390.254C121.469 390.254 135.594 397.738 135.594 402.795Z" fill="#326894"/>
<path d="M231.594 402.795C234.281 409.155 223.557 410.254 203.584 410.254C183.612 410.254 175.548 408.7 177.215 401.994C177.215 396.937 189.7 390.254 203.584 390.254C217.469 390.254 231.594 397.738 231.594 402.795Z" fill="#326894"/>
<ellipse cx="113.502" cy="176.254" rx="10.5" ry="13" fill="#171717"/>
<ellipse cx="188.502" cy="176.254" rx="10.5" ry="13" fill="#171717"/>
<ellipse cx="98.002" cy="209.254" rx="17" ry="16" transform="rotate(90 98.002 209.254)" fill="#EE9E78"/>
<ellipse cx="205.002" cy="209.254" rx="17" ry="16" transform="rotate(90 205.002 209.254)" fill="#EE9E78"/>
<path d="M150.27 200.453C150.652 200.324 151.064 200.314 151.452 200.424L165.279 204.341C166.736 204.753 167.223 206.572 166.169 207.658L153.374 220.84C152.612 221.624 151.362 221.652 150.567 220.902L136.928 208.042C135.829 207.006 136.231 205.173 137.662 204.692L150.27 200.453Z" fill="#8B5663"/>
<path d="M150.165 198.534C150.611 198.353 151.107 198.339 151.563 198.495L165.673 203.309C167.151 203.814 167.506 205.741 166.305 206.74L153.083 217.734C152.365 218.33 151.331 218.351 150.589 217.784L136.78 207.223C135.551 206.284 135.809 204.364 137.243 203.782L150.165 198.534Z" fill="#FE9FB6"/>
<path d="M110.001 137.754C84.001 137.754 76.0011 163.587 61.5011 178.254C60.9973 175.755 60.997 173.754 63.0012 164.254C65.1882 153.888 79.001 116.754 105.501 101.754C122.91 91.9005 146.497 94.2544 160.501 94.2542C215.742 94.2535 244.006 152.254 242.506 179.754C239.839 176.254 229.601 164.554 220.001 149.754C208.001 131.254 189.497 138.254 177.001 145.254C166.958 150.88 161.501 158.754 148.001 157.754C134.501 156.754 121.414 137.754 110.001 137.754Z" fill="#609CCC"/>
<path d="M151.5 0C168.901 8.82686e-08 183.833 7.7311 190.227 18.7529C195.352 17.1261 201.007 16.2227 206.95 16.2227C230.174 16.2227 249 29.992 249 46.9775C249 61.7609 234.739 74.1054 215.729 77.0586V123.021C162.826 138.579 134.726 139.401 88.1943 123.021V77.1934C68.7254 74.5024 54 61.9994 54 46.9775C54 29.992 72.8264 16.2227 96.0498 16.2227C101.993 16.2227 107.647 17.1263 112.772 18.7529C119.166 7.73087 134.099 0 151.5 0Z" fill="white"/>
<path d="M88 78C138.403 86.798 166.513 86.6005 216 78V84.6386C165.549 92.8294 137.501 93.4067 88 84.6386V78Z" fill="#D9D9D9"/>
<ellipse cx="287.186" cy="246.234" rx="51.4408" ry="49.6076" transform="rotate(26.2078 287.186 246.234)" fill="#696666"/>
<path d="M274.934 252.49L289.087 259.456L250.689 337.465C249.713 339.447 247.315 340.263 245.333 339.288L239.255 336.296C236.777 335.076 235.757 332.079 236.977 329.602L274.934 252.49Z" fill="#696666"/>
<ellipse cx="286.732" cy="247.162" rx="45.2679" ry="43.7512" transform="rotate(26.2078 286.732 247.162)" fill="#2F2F2F"/>
</svg>
